SplineFontDB: 3.0
FontName: Oxygen-Regular
FullName: Oxygen
FamilyName: Oxygen
Weight: Regular
Copyright: Copyright (c) 2011-12 by vernon adams. All rights reserved.
ItalicAngle: 0
UnderlinePosition: 0
UnderlineWidth: 0
Ascent: 1638
Descent: 410
UFOAscent: 1638
UFODescent: 410
LayerCount: 2
Layer: 0 0 "Back"  1
Layer: 1 0 "Fore"  0
FSType: 256
OS2Version: 0
OS2_WeightWidthSlopeOnly: 0
OS2_UseTypoMetrics: 0
CreationTime: 1344017913
ModificationTime: 1344017913
PfmFamily: 0
TTFWeight: 400
TTFWidth: 5
LineGap: 0
VLineGap: 0
OS2TypoAscent: 0
OS2TypoAOffset: 1
OS2TypoDescent: 0
OS2TypoDOffset: 1
OS2TypoLinegap: 0
OS2WinAscent: 2427
OS2WinAOffset: 0
OS2WinDescent: 688
OS2WinDOffset: 0
HheadAscent: 1638
HheadAOffset: 0
HheadDescent: 410
HheadDOffset: 0
OS2Vendor: 'newt'
DEI: 91125
LangName: 1033 "" "" "" "" "" "" "" "Oxygen is a trademark of vernon adams." "vernon adams" "vernon adams" "Copyright (c) 2011 by vernon adams. All rights reserved." "newtypography.co.uk" "newtypography.co.uk" 
PickledData: "(dp1
S'com.typemytype.robofont.compileSettings.autohint'
p2
I01
sS'com.typemytype.robofont.compileSettings.decompose'
p3
I01
sS'com.typemytype.robofont.foreground.layerStrokeColor'
p4
(F0.5
F0
F0.5
F0.69999999999999996
tp5
sS'com.typemytype.robofont.guides'
p6
((dp7
S'angle'
p8
I0
sS'name'
p9
NsS'magnetic'
p10
I5
sS'isGlobal'
p11
I1
sS'y'
I123
sS'x'
I651
s(dp12
g8
I0
sg9
Nsg10
I5
sg11
I1
sS'y'
I-20
sS'x'
I295
s(dp13
g8
I0
sg9
Nsg10
I5
sg11
I1
sS'y'
I1120
sS'x'
I627
s(dp14
g8
I0
sg9
Nsg10
I5
sg11
I1
sS'y'
I974
sS'x'
I639
stp15
sS'com.typemytype.robofont.compileSettings.releaseMode'
p16
I00
sS'com.typemytype.robofont.shouldAddPointsInSplineConversion'
p17
I00
sS'com.typemytype.robofont.b.layerStrokeColor'
p18
(F0.5
F1
F0
F0.69999999999999996
tp19
sS'org.robofab.glyphOrder'
p20
(S'A'
S'Aacute'
S'Abreve'
S'Acircumflex'
S'Adieresis'
S'Agrave'
S'Amacron'
S'Aogonek'
S'Aring'
S'Aringacute'
S'Atilde'
S'AE'
S'AEacute'
S'uni01E2'
S'B'
S'C'
S'Cacute'
S'Ccaron'
S'Ccedilla'
S'Ccircumflex'

StartChar: .notdef
Encoding: 65536 -1 0
Width: 1024
VWidth: 0
Flags: W
LayerCount: 2
Fore
SplineSet
102 0 m 1
 922 0 l 1
 922 1092 l 1
 102 1092 l 1
 102 0 l 1
204 102 m 1
 204 990 l 1
 820 990 l 1
 820 102 l 1
 204 102 l 1
EndSplineSet
EndChar

StartChar: A
Encoding: 65 65 1
Width: 1304
VWidth: 0
Flags: W
PickledData: "(dp1
S'com.typemytype.robofont.layerData'
p2
(dp3
s."
LayerCount: 2
Fore
SplineSet
431 617 m 1
 888 617 l 1
 888 617 674 1220 652 1296 c 1
 632 1230 431 617 431 617 c 1
1111 0 m 1
 941 472 l 1
 376 472 l 1
 203 0 l 1
 12 0 l 1
 544 1479 l 1
 761 1479 l 1
 1292 0 l 1
 1111 0 l 1
652 1479 m 0
1242 10 m 0
EndSplineSet
EndChar

StartChar: AE
Encoding: 198 198 2
Width: 2108
VWidth: 0
Flags: W
LayerCount: 2
Fore
SplineSet
1248 1409 m 1
 1287 882 l 1
 1918 882 l 1
 1918 724 l 1
 1307 724 l 1
 1349 158 l 1
 1973 158 l 1
 1973 0 l 1
 1190 0 l 1
 1159 427 l 1
 505 427 l 1
 265 0 l 1
 92 0 l 1
 1008 1568 l 1
 1953 1568 l 1
 1953 1409 l 1
 1248 1409 l 1
1137 589 m 1
 1076 1409 l 1
 589 589 l 1
 1137 589 l 1
1054 1479 m 0
EndSplineSet
EndChar

StartChar: AEacute
Encoding: 508 508 3
Width: 2108
VWidth: 0
Flags: W
LayerCount: 2
Fore
SplineSet
1414 2119 m 1
 1090 1731 l 1
 976 1731 l 1
 1162 2119 l 1
 1414 2119 l 1
1248 1409 m 1
 1287 882 l 1
 1918 882 l 1
 1918 724 l 1
 1307 724 l 1
 1349 158 l 1
 1973 158 l 1
 1973 0 l 1
 1190 0 l 1
 1159 427 l 1
 505 427 l 1
 265 0 l 1
 92 0 l 1
 1008 1568 l 1
 1953 1568 l 1
 1953 1409 l 1
 1248 1409 l 1
1137 589 m 1
 1076 1409 l 1
 589 589 l 1
 1137 589 l 1
EndSplineSet
EndChar

StartChar: Aacute
Encoding: 193 193 4
Width: 1477
VWidth: 0
Flags: W
LayerCount: 2
Fore
SplineSet
1121 2052 m 1
 796 1664 l 1
 682 1664 l 1
 868 2052 l 1
 1121 2052 l 1
521 617 m 1
 972 617 l 1
 972 617 761 1227 739 1303 c 1
 719 1237 521 617 521 617 c 1
1198 0 m 1
 1028 472 l 1
 463 472 l 1
 290 0 l 1
 99 0 l 1
 631 1479 l 1
 848 1479 l 1
 1379 0 l 1
 1198 0 l 1
EndSplineSet
EndChar

StartChar: Abreve
Encoding: 258 258 5
Width: 1478
VWidth: 0
Flags: W
LayerCount: 2
Fore
SplineSet
474 1709 m 0
 351 1709 225 1795 225 1967 c 1
 341 1967 l 1
 341 1871 401 1826 474 1826 c 0
 547 1826 610 1871 610 1967 c 1
 727 1967 l 1
 727 1795 598 1709 474 1709 c 0
522 617 m 1
 973 617 l 1
 973 617 762 1227 740 1303 c 1
 720 1237 522 617 522 617 c 1
1199 0 m 1
 1029 472 l 1
 464 472 l 1
 291 0 l 1
 100 0 l 1
 632 1479 l 1
 849 1479 l 1
 1380 0 l 1
 1199 0 l 1
EndSplineSet
EndChar

StartChar: Acircumflex
Encoding: 194 194 6
Width: 1477
VWidth: 0
Flags: W
LayerCount: 2
Fore
SplineSet
730 1933 m 1
 569 1661 l 1
 438 1661 l 1
 625 2049 l 1
 838 2049 l 1
 1025 1661 l 1
 891 1661 l 1
 730 1933 l 1
521 617 m 1
 972 617 l 1
 972 617 761 1227 739 1303 c 1
 719 1237 521 617 521 617 c 1
1198 0 m 1
 1028 472 l 1
 463 472 l 1
 290 0 l 1
 99 0 l 1
 631 1479 l 1
 848 1479 l 1
 1379 0 l 1
 1198 0 l 1
EndSplineSet
EndChar

StartChar: Adieresis
Encoding: 196 196 7
Width: 1477
VWidth: 0
Flags: W
LayerCount: 2
Fore
SplineSet
621 1876 m 1
 621 1664 l 1
 467 1664 l 1
 467 1876 l 1
 621 1876 l 1
1011 1876 m 1
 1011 1664 l 1
 857 1664 l 1
 857 1876 l 1
 1011 1876 l 1
521 617 m 1
 972 617 l 1
 972 617 761 1227 739 1303 c 1
 719 1237 521 617 521 617 c 1
1198 0 m 1
 1028 472 l 1
 463 472 l 1
 290 0 l 1
 99 0 l 1
 631 1479 l 1
 848 1479 l 1
 1379 0 l 1
 1198 0 l 1
EndSplineSet
EndChar

StartChar: Agrave
Encoding: 192 192 8
Width: 1477
VWidth: 0
Flags: W
LayerCount: 2
Fore
SplineSet
610 2051 m 1
 795 1664 l 1
 683 1664 l 1
 360 2051 l 1
 610 2051 l 1
521 617 m 1
 972 617 l 1
 972 617 761 1227 739 1303 c 1
 719 1237 521 617 521 617 c 1
1198 0 m 1
 1028 472 l 1
 463 472 l 1
 290 0 l 1
 99 0 l 1
 631 1479 l 1
 848 1479 l 1
 1379 0 l 1
 1198 0 l 1
EndSplineSet
EndChar

StartChar: Alpha
Encoding: 913 913 9
Width: 1477
VWidth: 0
Flags: W
LayerCount: 2
Fore
SplineSet
521 617 m 1
 972 617 l 1
 972 617 761 1227 739 1303 c 1
 719 1237 521 617 521 617 c 1
1198 0 m 1
 1028 472 l 1
 463 472 l 1
 290 0 l 1
 99 0 l 1
 631 1479 l 1
 848 1479 l 1
 1379 0 l 1
 1198 0 l 1
739 1479 m 0
EndSplineSet
EndChar

StartChar: Alphatonos
Encoding: 902 902 10
Width: 496
VWidth: 0
Flags: W
LayerCount: 2
Fore
SplineSet
245 532 m 0
 157 532 112 598 112 664 c 0
 112 730 157 796 245 796 c 0
 334 796 378 730 378 664 c 0
 378 598 334 532 245 532 c 0
EndSplineSet
EndChar

StartChar: Amacron
Encoding: 256 256 11
Width: 1478
VWidth: 0
Flags: W
LayerCount: 2
Fore
SplineSet
1140 1803 m 1
 1140 1664 l 1
 340 1664 l 1
 340 1803 l 1
 1140 1803 l 1
522 617 m 1
 973 617 l 1
 973 617 762 1227 740 1303 c 1
 720 1237 522 617 522 617 c 1
1199 0 m 1
 1029 472 l 1
 464 472 l 1
 291 0 l 1
 100 0 l 1
 632 1479 l 1
 849 1479 l 1
 1380 0 l 1
 1199 0 l 1
EndSplineSet
EndChar

StartChar: Aogonek
Encoding: 260 260 12
Width: 1477
VWidth: 0
Flags: W
LayerCount: 2
Fore
SplineSet
741 -410 m 0
 633 -410 548 -348 548 -234 c 0
 548 -125 643 -42 739 14 c 1
 853 14 l 1
 749 -63 673 -137 673 -205 c 0
 673 -258 720 -294 761 -294 c 0
 815 -294 847 -282 898 -261 c 1
 898 -378 l 1
 860 -394 795 -410 741 -410 c 0
521 617 m 1
 972 617 l 1
 972 617 761 1227 739 1303 c 1
 719 1237 521 617 521 617 c 1
1198 0 m 1
 1028 472 l 1
 463 472 l 1
 290 0 l 1
 99 0 l 1
 631 1479 l 1
 848 1479 l 1
 1379 0 l 1
 1198 0 l 1
EndSplineSet
EndChar

StartChar: Aring
Encoding: 197 197 13
Width: 1477
VWidth: 0
Flags: W
LayerCount: 2
Fore
SplineSet
739 1561 m 0
 790 1561 835 1612 835 1673 c 0
 835 1734 794 1788 739 1788 c 0
 688 1788 641 1734 641 1673 c 0
 641 1606 678 1561 739 1561 c 0
741 1488 m 0
 637 1488 545 1558 545 1673 c 0
 545 1792 638 1869 739 1869 c 0
 843 1869 933 1785 933 1673 c 0
 933 1558 840 1488 741 1488 c 0
521 617 m 1
 972 617 l 1
 972 617 761 1227 739 1303 c 1
 719 1237 521 617 521 617 c 1
1198 0 m 1
 1028 472 l 1
 463 472 l 1
 290 0 l 1
 99 0 l 1
 631 1479 l 1
 848 1479 l 1
 1379 0 l 1
 1198 0 l 1
EndSplineSet
EndChar

StartChar: Aringacute
Encoding: 506 506 14
Width: 1477
VWidth: 0
Flags: W
LayerCount: 2
Fore
SplineSet
1121 2420 m 1
 796 2032 l 1
 682 2032 l 1
 868 2420 l 1
 1121 2420 l 1
739 1561 m 0
 790 1561 835 1612 835 1673 c 0
 835 1734 794 1788 739 1788 c 0
 688 1788 641 1734 641 1673 c 0
 641 1606 678 1561 739 1561 c 0
741 1488 m 0
 637 1488 545 1558 545 1673 c 0
 545 1792 638 1869 739 1869 c 0
 843 1869 933 1785 933 1673 c 0
 933 1558 840 1488 741 1488 c 0
521 617 m 1
 972 617 l 1
 972 617 761 1227 739 1303 c 1
 719 1237 521 617 521 617 c 1
1198 0 m 1
 1028 472 l 1
 463 472 l 1
 290 0 l 1
 99 0 l 1
 631 1479 l 1
 848 1479 l 1
 1379 0 l 1
 1198 0 l 1
EndSplineSet
EndChar

StartChar: Atilde
Encoding: 195 195 15
Width: 1477
VWidth: 0
Flags: W
LayerCount: 2
Fore
SplineSet
535 1664 m 1
 427 1664 l 1
 427 1814 492 1883 599 1883 c 0
 723 1883 895 1789 895 1789 c 1
 935 1792 938 1841 941 1883 c 1
 1051 1883 l 1
 1051 1746 1007 1664 901 1664 c 0
 811 1664 589 1761 589 1761 c 1
 556 1760 538 1719 535 1664 c 1
521 617 m 1
 972 617 l 1
 972 617 761 1227 739 1303 c 1
 719 1237 521 617 521 617 c 1
1198 0 m 1
 1028 472 l 1
 463 472 l 1
 290 0 l 1
 99 0 l 1
 631 1479 l 1
 848 1479 l 1
 1379 0 l 1
 1198 0 l 1
EndSplineSet
EndChar

StartChar: B
Encoding: 66 66 16
Width: 1291
VWidth: 0
Flags: W
PickledData: "(dp1
S'com.typemytype.robofont.layerData'
p2
(dp3
s."
LayerCount: 2
Fore
SplineSet
176 0 m 1
 176 1479 l 1
 600 1479 l 2
 975 1479 1160 1372 1160 1115 c 0
 1160 1043 1142 856 912 783 c 1
 1117 744 1215 598 1215 421 c 0
 1215 159 1045 0 692 0 c 2
 176 0 l 1
349 704 m 1
 349 142 l 1
 658 142 l 2
 906 142 1034 230 1034 428 c 0
 1034 639 891 704 616 704 c 2
 349 704 l 1
349 1333 m 1
 349 843 l 1
 666 843 l 2
 857 843 979 894 979 1089 c 0
 979 1284 840 1333 591 1333 c 2
 349 1333 l 1
EndSplineSet
EndChar

StartChar: Beta
Encoding: 914 914 17
Width: 1320
VWidth: 0
Flags: W
LayerCount: 2
Fore
SplineSet
150 0 m 1
 150 1479 l 1
 574 1479 l 2
 949 1479 1134 1372 1134 1115 c 0
 1134 1043 1116 856 886 783 c 1
 1091 744 1189 598 1189 421 c 0
 1189 159 1019 0 666 0 c 2
 150 0 l 1
323 704 m 1
 323 142 l 1
 632 142 l 2
 880 142 1008 230 1008 428 c 0
 1008 639 865 704 590 704 c 2
 323 704 l 1
323 1333 m 1
 323 843 l 1
 640 843 l 2
 831 843 953 894 953 1089 c 0
 953 1284 814 1333 565 1333 c 2
 323 1333 l 1
EndSplineSet
EndChar

StartChar: C
Encoding: 67 67 18
Width: 1287
VWidth: 0
Flags: W
PickledData: "(dp1
S'com.typemytype.robofont.layerData'
p2
(dp3
s."
LayerCount: 2
Fore
SplineSet
775 -22 m 1
 351 -15 98 289 98 745 c 0
 98 1190 363 1504 807 1504 c 0
 982 1504 1118 1464 1227 1394 c 1
 1169 1258 l 1
 1071 1317 941 1352 809 1352 c 0
 467 1352 283 1089 283 738 c 0
 283 389 449 130 813 130 c 0
 939 130 1070 168 1177 220 c 1
 1206 73 l 1
 1110 12 959 -22 795 -22 c 2
 775 -22 l 1
657 1479 m 0
657 0 m 0
EndSplineSet
EndChar

StartChar: Cacute
Encoding: 262 262 19
Width: 1368
VWidth: 0
Flags: W
LayerCount: 2
Fore
SplineSet
1071 2055 m 1
 747 1667 l 1
 633 1667 l 1
 819 2055 l 1
 1071 2055 l 1
802 -22 m 1
 378 -15 125 289 125 745 c 0
 125 1190 390 1504 834 1504 c 0
 1009 1504 1145 1464 1254 1394 c 1
 1196 1258 l 1
 1098 1317 968 1352 836 1352 c 0
 494 1352 310 1089 310 738 c 0
 310 389 476 130 840 130 c 0
 966 130 1097 168 1204 220 c 1
 1233 73 l 1
 1137 12 986 -22 822 -22 c 2
 802 -22 l 1
EndSplineSet
EndChar

StartChar: Ccaron
Encoding: 268 268 20
Width: 1368
VWidth: 0
Flags: W
LayerCount: 2
Fore
SplineSet
1118 2049 m 1
 931 1661 l 1
 718 1661 l 1
 531 2049 l 1
 662 2049 l 1
 823 1737 l 1
 984 2049 l 1
 1118 2049 l 1
802 -22 m 1
 378 -15 125 289 125 745 c 0
 125 1190 390 1504 834 1504 c 0
 1009 1504 1145 1464 1254 1394 c 1
 1196 1258 l 1
 1098 1317 968 1352 836 1352 c 0
 494 1352 310 1089 310 738 c 0
 310 389 476 130 840 130 c 0
 966 130 1097 168 1204 220 c 1
 1233 73 l 1
 1137 12 986 -22 822 -22 c 2
 802 -22 l 1
EndSplineSet
EndChar

StartChar: Ccedilla
Encoding: 199 199 21
Width: 1368
VWidth: 0
Flags: W
LayerCount: 2
Fore
SplineSet
1204 220 m 1
 1233 73 l 1
 1140 14 988 -23 829 -23 c 0
 797 -23 764 -21 731 -18 c 1
 689 -434 l 1
 535 -434 l 1
 647 -8 l 1
 662 -8 l 1
 323 57 125 342 125 745 c 0
 125 1190 390 1504 834 1504 c 0
 1009 1504 1145 1464 1254 1394 c 1
 1196 1258 l 1
 1098 1317 968 1352 836 1352 c 0
 494 1352 310 1089 310 738 c 0
 310 389 476 130 840 130 c 0
 966 130 1097 168 1204 220 c 1
EndSplineSet
EndChar

StartChar: Ccircumflex
Encoding: 264 264 22
Width: 1368
VWidth: 0
Flags: W
LayerCount: 2
Fore
SplineSet
823 1933 m 1
 662 1661 l 1
 531 1661 l 1
 718 2049 l 1
 931 2049 l 1
 1118 1661 l 1
 984 1661 l 1
 823 1933 l 1
802 -22 m 1
 378 -15 125 289 125 745 c 0
 125 1190 390 1504 834 1504 c 0
 1009 1504 1145 1464 1254 1394 c 1
 1196 1258 l 1
 1098 1317 968 1352 836 1352 c 0
 494 1352 310 1089 310 738 c 0
 310 389 476 130 840 130 c 0
 966 130 1097 168 1204 220 c 1
 1233 73 l 1
 1137 12 986 -22 822 -22 c 2
 802 -22 l 1
EndSplineSet
EndChar

StartChar: Cdotaccent
Encoding: 266 266 23
Width: 1368
VWidth: 0
Flags: W
LayerCount: 2
Fore
SplineSet
605 1667 m 1
 605 1865 l 1
 773 1865 l 1
 773 1667 l 1
 605 1667 l 1
802 -22 m 1
 378 -15 125 289 125 745 c 0
 125 1190 390 1504 834 1504 c 0
 1009 1504 1145 1464 1254 1394 c 1
 1196 1258 l 1
 1098 1317 968 1352 836 1352 c 0
 494 1352 310 1089 310 738 c 0
 310 389 476 130 840 130 c 0
 966 130 1097 168 1204 220 c 1
 1233 73 l 1
 1137 12 986 -22 822 -22 c 2
 802 -22 l 1
EndSplineSet
EndChar

StartChar: Chi
Encoding: 935 935 24
Width: 1406
VWidth: 0
Flags: W
LayerCount: 2
Fore
SplineSet
806 746 m 1
 1298 1479 l 1
 1098 1479 l 1
 706 897 l 1
 314 1479 l 1
 114 1479 l 1
 606 746 l 1
 114 0 l 1
 314 0 l 1
 706 596 l 1
 1098 0 l 1
 1298 0 l 1
 806 746 l 1
EndSplineSet
EndChar

StartChar: D
Encoding: 68 68 25
Width: 1492
VWidth: 0
Flags: W
PickledData: "(dp1
S'com.typemytype.robofont.layerData'
p2
(dp3
s."
LayerCount: 2
Fore
SplineSet
368 1328 m 1
 368 151 l 1
 610 151 l 2
 996 151 1200 347 1200 736 c 0
 1200 1162 974 1328 581 1328 c 2
 368 1328 l 1
176 0 m 1
 176 1479 l 1
 586 1479 l 2
 1071 1479 1392 1255 1392 741 c 0
 1392 252 1097 0 615 0 c 2
 176 0 l 1
773 1479 m 0
773 740 m 0
EndSplineSet
EndChar

StartChar: Dcaron
Encoding: 270 270 26
Width: 1494
VWidth: 0
Flags: W
LayerCount: 2
Fore
SplineSet
941 2050 m 1
 754 1662 l 1
 541 1662 l 1
 354 2050 l 1
 485 2050 l 1
 646 1738 l 1
 807 2050 l 1
 941 2050 l 1
342 1328 m 1
 342 151 l 1
 584 151 l 2
 970 151 1174 347 1174 736 c 0
 1174 1162 948 1328 555 1328 c 2
 342 1328 l 1
150 0 m 1
 150 1479 l 1
 560 1479 l 2
 1045 1479 1366 1255 1366 741 c 0
 1366 252 1071 0 589 0 c 2
 150 0 l 1
EndSplineSet
EndChar

StartChar: Dcroat
Encoding: 272 272 27
Width: 1638
VWidth: 0
Flags: W
LayerCount: 2
Fore
SplineSet
422 697 m 1
 422 155 l 1
 737 155 l 2
 1103 155 1321 347 1321 734 c 0
 1321 1205 1047 1341 638 1341 c 2
 422 1341 l 1
 422 832 l 1
 664 832 l 1
 664 697 l 1
 422 697 l 1
245 832 m 1
 245 1496 l 1
 617 1496 l 2
 1134 1496 1510 1315 1510 738 c 0
 1510 240 1191 0 719 0 c 2
 245 0 l 1
 245 697 l 1
 127 697 l 1
 127 832 l 1
 245 832 l 1
EndSplineSet
EndChar

StartChar: Delta
Encoding: 916 916 28
Width: 1481
VWidth: 0
Flags: W
LayerCount: 2
Fore
SplineSet
99 0 m 1
 648 1496 l 1
 833 1496 l 1
 1384 0 l 1
 99 0 l 1
1147 155 m 1
 741 1306 l 1
 340 155 l 1
 1147 155 l 1
EndSplineSet
EndChar

StartChar: E
Encoding: 69 69 29
Width: 1183
VWidth: 0
Flags: W
PickledData: "(dp1
S'com.typemytype.robofont.layerData'
p2
(dp3
s."
LayerCount: 2
Fore
SplineSet
368 1326 m 1
 368 842 l 1
 1008 842 l 1
 1008 691 l 1
 368 691 l 1
 368 153 l 1
 1072 153 l 1
 1064 0 l 1
 176 0 l 1
 176 1479 l 1
 1072 1479 l 1
 1065 1326 l 1
 368 1326 l 1
617 1479 m 0
617 0 m 0
1089 10 m 0
EndSplineSet
EndChar

StartChar: Eacute
Encoding: 201 201 30
Width: 1181
VWidth: 0
Flags: W
LayerCount: 2
Fore
SplineSet
980 2052 m 1
 655 1664 l 1
 541 1664 l 1
 727 2052 l 1
 980 2052 l 1
342 1326 m 1
 342 842 l 1
 982 842 l 1
 982 691 l 1
 342 691 l 1
 342 153 l 1
 1046 153 l 1
 1038 0 l 1
 150 0 l 1
 150 1479 l 1
 1046 1479 l 1
 1039 1326 l 1
 342 1326 l 1
EndSplineSet
EndChar

StartChar: Ebreve
Encoding: 276 276 31
Width: 1202
VWidth: 0
Flags: W
LayerCount: 2
Fore
SplineSet
380 1709 m 0
 257 1709 131 1795 131 1967 c 1
 247 1967 l 1
 247 1871 307 1826 380 1826 c 0
 453 1826 516 1871 516 1967 c 1
 633 1967 l 1
 633 1795 504 1709 380 1709 c 0
363 1326 m 1
 363 842 l 1
 1003 842 l 1
 1003 691 l 1
 363 691 l 1
 363 153 l 1
 1067 153 l 1
 1059 0 l 1
 171 0 l 1
 171 1479 l 1
 1067 1479 l 1
 1060 1326 l 1
 363 1326 l 1
EndSplineSet
EndChar

StartChar: Ecaron
Encoding: 282 282 32
Width: 1181
VWidth: 0
Flags: W
LayerCount: 2
Fore
SplineSet
911 2049 m 1
 724 1661 l 1
 511 1661 l 1
 324 2049 l 1
 455 2049 l 1
 616 1737 l 1
 777 2049 l 1
 911 2049 l 1
342 1326 m 1
 342 842 l 1
 982 842 l 1
 982 691 l 1
 342 691 l 1
 342 153 l 1
 1046 153 l 1
 1038 0 l 1
 150 0 l 1
 150 1479 l 1
 1046 1479 l 1
 1039 1326 l 1
 342 1326 l 1
EndSplineSet
EndChar

StartChar: Ecircumflex
Encoding: 202 202 33
Width: 1181
VWidth: 0
Flags: W
LayerCount: 2
Fore
SplineSet
616 1933 m 1
 455 1661 l 1
 324 1661 l 1
 511 2049 l 1
 724 2049 l 1
 911 1661 l 1
 777 1661 l 1
 616 1933 l 1
342 1326 m 1
 342 842 l 1
 982 842 l 1
 982 691 l 1
 342 691 l 1
 342 153 l 1
 1046 153 l 1
 1038 0 l 1
 150 0 l 1
 150 1479 l 1
 1046 1479 l 1
 1039 1326 l 1
 342 1326 l 1
EndSplineSet
EndChar

StartChar: Edieresis
Encoding: 203 203 34
Width: 1181
VWidth: 0
Flags: W
LayerCount: 2
Fore
SplineSet
480 1876 m 1
 480 1664 l 1
 326 1664 l 1
 326 1876 l 1
 480 1876 l 1
870 1876 m 1
 870 1664 l 1
 716 1664 l 1
 716 1876 l 1
 870 1876 l 1
342 1326 m 1
 342 842 l 1
 982 842 l 1
 982 691 l 1
 342 691 l 1
 342 153 l 1
 1046 153 l 1
 1038 0 l 1
 150 0 l 1
 150 1479 l 1
 1046 1479 l 1
 1039 1326 l 1
 342 1326 l 1
EndSplineSet
EndChar

StartChar: Edotaccent
Encoding: 278 278 35
Width: 1181
VWidth: 0
Flags: W
LayerCount: 2
Fore
SplineSet
514 1664 m 1
 514 1862 l 1
 682 1862 l 1
 682 1664 l 1
 514 1664 l 1
342 1326 m 1
 342 842 l 1
 982 842 l 1
 982 691 l 1
 342 691 l 1
 342 153 l 1
 1046 153 l 1
 1038 0 l 1
 150 0 l 1
 150 1479 l 1
 1046 1479 l 1
 1039 1326 l 1
 342 1326 l 1
EndSplineSet
EndChar

StartChar: Egrave
Encoding: 200 200 36
Width: 1181
VWidth: 0
Flags: W
LayerCount: 2
Fore
SplineSet
469 2051 m 1
 654 1664 l 1
 542 1664 l 1
 219 2051 l 1
 469 2051 l 1
342 1326 m 1
 342 842 l 1
 982 842 l 1
 982 691 l 1
 342 691 l 1
 342 153 l 1
 1046 153 l 1
 1038 0 l 1
 150 0 l 1
 150 1479 l 1
 1046 1479 l 1
 1039 1326 l 1
 342 1326 l 1
EndSplineSet
EndChar

StartChar: Emacron
Encoding: 274 274 37
Width: 1181
VWidth: 0
Flags: W
LayerCount: 2
Fore
SplineSet
998 1803 m 1
 998 1664 l 1
 198 1664 l 1
 198 1803 l 1
 998 1803 l 1
342 1326 m 1
 342 842 l 1
 982 842 l 1
 982 691 l 1
 342 691 l 1
 342 153 l 1
 1046 153 l 1
 1038 0 l 1
 150 0 l 1
 150 1479 l 1
 1046 1479 l 1
 1039 1326 l 1
 342 1326 l 1
EndSplineSet
EndChar

StartChar: Eng
Encoding: 330 330 38
Width: 1420
VWidth: 0
Flags: W
LayerCount: 2
Fore
SplineSet
845 -328 m 0
 817 -328 767 -326 645 -314 c 1
 622 -166 l 1
 758 -174 779 -175 800 -175 c 0
 1077 -175 1100 -101 1100 171 c 2
 1100 1003 l 2
 1100 1269 1026 1358 810 1358 c 0
 592 1358 423 1232 328 1089 c 1
 328 0 l 1
 152 0 l 1
 150 1496 l 1
 310 1496 l 1
 328 1284 l 1
 509 1480 689 1520 863 1520 c 0
 1134 1520 1275 1341 1275 1009 c 2
 1275 165 l 2
 1275 -143 1206 -328 845 -328 c 0
EndSplineSet
EndChar

StartChar: Eogonek
Encoding: 280 280 39
Width: 1181
VWidth: 0
Flags: W
LayerCount: 2
Fore
SplineSet
342 1326 m 1
 342 842 l 1
 982 842 l 1
 982 691 l 1
 342 691 l 1
 342 153 l 1
 1046 153 l 1
 1038 0 l 1
 693 0 l 1
 599 -72 532 -141 532 -205 c 0
 532 -258 579 -294 620 -294 c 0
 674 -294 706 -282 757 -261 c 1
 757 -378 l 1
 719 -394 654 -410 600 -410 c 0
 492 -410 407 -348 407 -234 c 0
 407 -134 487 -55 575 0 c 1
 150 0 l 1
 150 1479 l 1
 1046 1479 l 1
 1039 1326 l 1
 342 1326 l 1
EndSplineSet
EndChar

StartChar: Epsilon
Encoding: 917 917 40
Width: 1181
VWidth: 0
Flags: W
LayerCount: 2
Fore
SplineSet
342 1326 m 1
 342 842 l 1
 982 842 l 1
 982 691 l 1
 342 691 l 1
 342 153 l 1
 1046 153 l 1
 1038 0 l 1
 150 0 l 1
 150 1479 l 1
 1046 1479 l 1
 1039 1326 l 1
 342 1326 l 1
591 1479 m 0
EndSplineSet
EndChar

StartChar: Epsilontonos
Encoding: 904 904 41
Width: 496
VWidth: 0
Flags: W
LayerCount: 2
Fore
SplineSet
245 532 m 0
 157 532 112 598 112 664 c 0
 112 730 157 796 245 796 c 0
 334 796 378 730 378 664 c 0
 378 598 334 532 245 532 c 0
EndSplineSet
EndChar

StartChar: Eta
Encoding: 919 919 42
Width: 1451
VWidth: 0
Flags: W
LayerCount: 2
Fore
SplineSet
1110 844 m 1
 1110 1479 l 1
 1302 1479 l 1
 1302 0 l 1
 1110 0 l 1
 1110 692 l 1
 342 692 l 1
 342 0 l 1
 150 0 l 1
 150 1479 l 1
 342 1479 l 1
 342 844 l 1
 1110 844 l 1
EndSplineSet
EndChar

StartChar: Etatonos
Encoding: 905 905 43
Width: 496
VWidth: 0
Flags: W
LayerCount: 2
Fore
SplineSet
245 532 m 0
 157 532 112 598 112 664 c 0
 112 730 157 796 245 796 c 0
 334 796 378 730 378 664 c 0
 378 598 334 532 245 532 c 0
EndSplineSet
EndChar

StartChar: Eth
Encoding: 208 208 44
Width: 1638
VWidth: 0
Flags: W
LayerCount: 2
Fore
SplineSet
422 697 m 1
 422 155 l 1
 737 155 l 2
 1103 155 1321 347 1321 734 c 0
 1321 1205 1047 1341 638 1341 c 2
 422 1341 l 1
 422 832 l 1
 664 832 l 1
 664 697 l 1
 422 697 l 1
245 832 m 1
 245 1496 l 1
 617 1496 l 2
 1134 1496 1510 1315 1510 738 c 0
 1510 240 1191 0 719 0 c 2
 245 0 l 1
 245 697 l 1
 127 697 l 1
 127 832 l 1
 245 832 l 1
EndSplineSet
EndChar

StartChar: Euro
Encoding: 8364 8364 45
Width: 1237
VWidth: 0
Flags: W
LayerCount: 2
Fore
SplineSet
797 -22 m 0
 449 -22 286 287 243 580 c 1
 122 580 l 1
 139 683 l 1
 231 683 l 1
 230 699 229 715 229 731 c 0
 229 769 232 808 234 845 c 1
 121 845 l 1
 140 957 l 1
 250 957 l 1
 301 1288 484 1524 812 1524 c 0
 936 1524 1028 1494 1104 1429 c 1
 1103 1249 l 1
 1036 1322 943 1369 834 1369 c 0
 606 1369 482 1203 441 957 c 1
 999 957 l 1
 982 845 l 1
 423 845 l 1
 418 796 420 684 418 683 c 1
 967 683 l 1
 957 580 l 1
 435 580 l 1
 463 345 580 135 816 135 c 0
 912 135 1008 169 1104 244 c 1
 1103 69 l 1
 1015 5 916 -22 797 -22 c 0
EndSplineSet
EndChar

StartChar: F
Encoding: 70 70 46
Width: 1072
VWidth: 0
Flags: W
PickledData: "(dp1
S'com.typemytype.robofont.layerData'
p2
(dp3
s."
LayerCount: 2
Fore
SplineSet
368 1326 m 1
 368 807 l 1
 944 807 l 1
 944 660 l 1
 368 660 l 1
 368 0 l 1
 176 0 l 1
 176 1479 l 1
 1008 1479 l 1
 1001 1326 l 1
 368 1326 l 1
EndSplineSet
EndChar

StartChar: G
Encoding: 71 71 47
Width: 1442
VWidth: 0
Flags: W
PickledData: "(dp1
S'com.typemytype.robofont.layerData'
p2
(dp3
s."
LayerCount: 2
Fore
SplineSet
806 -27 m 0
 347 -27 98 297 98 738 c 0
 98 1184 373 1504 842 1504 c 0
 1016 1504 1158 1468 1280 1388 c 1
 1226 1253 l 1
 1125 1311 1029 1352 858 1352 c 2
 834 1352 l 1
 466 1344 290 1089 290 738 c 0
 290 374 458 123 834 123 c 0
 947 123 1059 136 1122 154 c 1
 1122 614 l 1
 803 614 l 1
 809 765 l 1
 1314 765 l 1
 1314 58 l 1
 1160 -2 1008 -27 806 -27 c 0
715 1479 m 0
715 0 m 0
EndSplineSet
EndChar

StartChar: Gamma
Encoding: 915 915 48
Width: 1105
VWidth: 0
Flags: W
LayerCount: 2
Fore
SplineSet
327 1341 m 1
 327 0 l 1
 150 0 l 1
 150 1496 l 1
 1022 1496 l 1
 1007 1341 l 1
 327 1341 l 1
EndSplineSet
EndChar

StartChar: Gbreve
Encoding: 286 286 49
Width: 1482
VWidth: 0
Flags: W
LayerCount: 2
Fore
SplineSet
613 1709 m 0
 490 1709 364 1795 364 1967 c 1
 480 1967 l 1
 480 1871 540 1826 613 1826 c 0
 686 1826 749 1871 749 1967 c 1
 866 1967 l 1
 866 1795 737 1709 613 1709 c 0
832 -27 m 0
 373 -27 124 297 124 738 c 0
 124 1184 399 1504 868 1504 c 0
 1042 1504 1184 1468 1306 1388 c 1
 1252 1253 l 1
 1151 1311 1055 1352 884 1352 c 2
 860 1352 l 1
 492 1344 316 1089 316 738 c 0
 316 374 484 123 860 123 c 0
 973 123 1085 136 1148 154 c 1
 1148 614 l 1
 829 614 l 1
 835 765 l 1
 1340 765 l 1
 1340 58 l 1
 1186 -2 1034 -27 832 -27 c 0
EndSplineSet
EndChar

StartChar: Gcaron
Encoding: 486 486 50
Width: 1482
VWidth: 0
Flags: W
LayerCount: 2
Fore
SplineSet
1165 2049 m 1
 978 1661 l 1
 765 1661 l 1
 578 2049 l 1
 709 2049 l 1
 870 1737 l 1
 1031 2049 l 1
 1165 2049 l 1
832 -27 m 0
 373 -27 124 297 124 738 c 0
 124 1184 399 1504 868 1504 c 0
 1042 1504 1184 1468 1306 1388 c 1
 1252 1253 l 1
 1151 1311 1055 1352 884 1352 c 2
 860 1352 l 1
 492 1344 316 1089 316 738 c 0
 316 374 484 123 860 123 c 0
 973 123 1085 136 1148 154 c 1
 1148 614 l 1
 829 614 l 1
 835 765 l 1
 1340 765 l 1
 1340 58 l 1
 1186 -2 1034 -27 832 -27 c 0
EndSplineSet
EndChar

StartChar: Gcircumflex
Encoding: 284 284 51
Width: 1482
VWidth: 0
Flags: W
LayerCount: 2
Fore
SplineSet
870 1933 m 1
 709 1661 l 1
 578 1661 l 1
 765 2049 l 1
 978 2049 l 1
 1165 1661 l 1
 1031 1661 l 1
 870 1933 l 1
832 -27 m 0
 373 -27 124 297 124 738 c 0
 124 1184 399 1504 868 1504 c 0
 1042 1504 1184 1468 1306 1388 c 1
 1252 1253 l 1
 1151 1311 1055 1352 884 1352 c 2
 860 1352 l 1
 492 1344 316 1089 316 738 c 0
 316 374 484 123 860 123 c 0
 973 123 1085 136 1148 154 c 1
 1148 614 l 1
 829 614 l 1
 835 765 l 1
 1340 765 l 1
 1340 58 l 1
 1186 -2 1034 -27 832 -27 c 0
EndSplineSet
EndChar

StartChar: Gcommaaccent
Encoding: 290 290 52
Width: 1482
VWidth: 0
Flags: W
LayerCount: 2
Fore
SplineSet
602 -688 m 1
 697 -190 l 1
 862 -190 l 1
 718 -688 l 1
 602 -688 l 1
832 -27 m 0
 373 -27 124 297 124 738 c 0
 124 1184 399 1504 868 1504 c 0
 1042 1504 1184 1468 1306 1388 c 1
 1252 1253 l 1
 1151 1311 1055 1352 884 1352 c 2
 860 1352 l 1
 492 1344 316 1089 316 738 c 0
 316 374 484 123 860 123 c 0
 973 123 1085 136 1148 154 c 1
 1148 614 l 1
 829 614 l 1
 835 765 l 1
 1340 765 l 1
 1340 58 l 1
 1186 -2 1034 -27 832 -27 c 0
EndSplineSet
EndChar

StartChar: Gdotaccent
Encoding: 288 288 53
Width: 1482
VWidth: 0
Flags: W
LayerCount: 2
Fore
SplineSet
648 1667 m 1
 648 1865 l 1
 816 1865 l 1
 816 1667 l 1
 648 1667 l 1
832 -27 m 0
 373 -27 124 297 124 738 c 0
 124 1184 399 1504 868 1504 c 0
 1042 1504 1184 1468 1306 1388 c 1
 1252 1253 l 1
 1151 1311 1055 1352 884 1352 c 2
 860 1352 l 1
 492 1344 316 1089 316 738 c 0
 316 374 484 123 860 123 c 0
 973 123 1085 136 1148 154 c 1
 1148 614 l 1
 829 614 l 1
 835 765 l 1
 1340 765 l 1
 1340 58 l 1
 1186 -2 1034 -27 832 -27 c 0
EndSplineSet
EndChar

StartChar: H
Encoding: 72 72 54
Width: 1504
VWidth: 0
Flags: W
PickledData: "(dp1
S'com.typemytype.robofont.layerData'
p2
(dp3
s."
LayerCount: 2
Fore
SplineSet
1136 844 m 1
 1136 1479 l 1
 1328 1479 l 1
 1328 0 l 1
 1136 0 l 1
 1136 692 l 1
 368 692 l 1
 368 0 l 1
 176 0 l 1
 176 1479 l 1
 368 1479 l 1
 368 844 l 1
 1136 844 l 1
752 1479 m 0
752 740 m 0
EndSplineSet
EndChar

StartChar: Hbar
Encoding: 294 294 55
Width: 1603
VWidth: 0
Flags: W
LayerCount: 2
Fore
SplineSet
215 1251 m 1
 215 1496 l 1
 392 1496 l 1
 392 1251 l 1
 1209 1251 l 1
 1209 1496 l 1
 1386 1496 l 1
 1386 1251 l 1
 1476 1251 l 1
 1476 1146 l 1
 1386 1146 l 1
 1386 0 l 1
 1209 0 l 1
 1209 696 l 1
 392 696 l 1
 392 0 l 1
 215 0 l 1
 215 1146 l 1
 125 1146 l 1
 125 1251 l 1
 215 1251 l 1
392 848 m 1
 1209 848 l 1
 1209 1146 l 1
 392 1146 l 1
 392 848 l 1
EndSplineSet
EndChar

StartChar: Hcircumflex
Encoding: 292 292 56
Width: 1451
VWidth: 0
Flags: W
LayerCount: 2
Fore
SplineSet
744 1933 m 1
 583 1661 l 1
 452 1661 l 1
 639 2049 l 1
 852 2049 l 1
 1039 1661 l 1
 905 1661 l 1
 744 1933 l 1
1110 844 m 1
 1110 1479 l 1
 1302 1479 l 1
 1302 0 l 1
 1110 0 l 1
 1110 692 l 1
 342 692 l 1
 342 0 l 1
 150 0 l 1
 150 1479 l 1
 342 1479 l 1
 342 844 l 1
 1110 844 l 1
EndSplineSet
EndChar

StartChar: I
Encoding: 73 73 57
Width: 540
VWidth: 0
Flags: W
PickledData: "(dp1
S'com.typemytype.robofont.layerData'
p2
(dp3
s."
LayerCount: 2
Fore
SplineSet
174 0 m 1
 174 1479 l 1
 366 1479 l 1
 366 0 l 1
 174 0 l 1
EndSplineSet
EndChar

StartChar: IJ
Encoding: 306 306 58
Width: 1218
VWidth: 0
Flags: W
LayerCount: 2
Fore
SplineSet
150 0 m 1
 150 1479 l 1
 342 1479 l 1
 342 0 l 1
 150 0 l 1
633 -214 m 1
 612 -49 l 1
 686 -49 l 2
 868 -49 878 56 878 204 c 2
 878 1479 l 1
 1070 1479 l 1
 1070 241 l 2
 1070 -67 1020 -214 668 -214 c 2
 633 -214 l 1
EndSplineSet
EndChar

StartChar: Iacute
Encoding: 205 205 59
Width: 644
VWidth: 0
Flags: W
LayerCount: 2
Fore
SplineSet
628 2052 m 1
 303 1664 l 1
 189 1664 l 1
 375 2052 l 1
 628 2052 l 1
150 0 m 1
 150 1479 l 1
 342 1479 l 1
 342 0 l 1
 150 0 l 1
EndSplineSet
EndChar

StartChar: Ibreve
Encoding: 300 300 60
Width: 776
VWidth: 0
Flags: W
LayerCount: 2
Fore
SplineSet
265 1709 m 0
 142 1709 16 1795 16 1967 c 1
 132 1967 l 1
 132 1871 192 1826 265 1826 c 0
 338 1826 401 1871 401 1967 c 1
 518 1967 l 1
 518 1795 389 1709 265 1709 c 0
435 0 m 1
 435 1479 l 1
 627 1479 l 1
 627 0 l 1
 435 0 l 1
EndSplineSet
EndChar

StartChar: Icircumflex
Encoding: 206 206 61
Width: 742
VWidth: 0
Flags: W
LayerCount: 2
Fore
SplineSet
367 1933 m 1
 206 1661 l 1
 75 1661 l 1
 262 2049 l 1
 475 2049 l 1
 662 1661 l 1
 528 1661 l 1
 367 1933 l 1
280 0 m 1
 280 1479 l 1
 472 1479 l 1
 472 0 l 1
 280 0 l 1
EndSplineSet
EndChar

StartChar: Idieresis
Encoding: 207 207 62
Width: 711
VWidth: 0
Flags: W
LayerCount: 2
Fore
SplineSet
237 1876 m 1
 237 1664 l 1
 83 1664 l 1
 83 1876 l 1
 237 1876 l 1
627 1876 m 1
 627 1664 l 1
 473 1664 l 1
 473 1876 l 1
 627 1876 l 1
259 0 m 1
 259 1479 l 1
 451 1479 l 1
 451 0 l 1
 259 0 l 1
EndSplineSet
EndChar

StartChar: Idotaccent
Encoding: 304 304 63
Width: 493
VWidth: 0
Flags: W
LayerCount: 2
Fore
SplineSet
163 1664 m 1
 163 1862 l 1
 331 1862 l 1
 331 1664 l 1
 163 1664 l 1
151 0 m 1
 151 1479 l 1
 343 1479 l 1
 343 0 l 1
 151 0 l 1
EndSplineSet
EndChar

StartChar: Igrave
Encoding: 204 204 64
Width: 641
VWidth: 0
Flags: W
LayerCount: 2
Fore
SplineSet
267 2051 m 1
 452 1664 l 1
 340 1664 l 1
 17 2051 l 1
 267 2051 l 1
300 0 m 1
 300 1479 l 1
 492 1479 l 1
 492 0 l 1
 300 0 l 1
EndSplineSet
EndChar

StartChar: Imacron
Encoding: 298 298 65
Width: 903
VWidth: 0
Flags: W
LayerCount: 2
Fore
SplineSet
850 1803 m 1
 850 1664 l 1
 50 1664 l 1
 50 1803 l 1
 850 1803 l 1
354 0 m 1
 354 1479 l 1
 546 1479 l 1
 546 0 l 1
 354 0 l 1
EndSplineSet
EndChar

StartChar: Iogonek
Encoding: 302 302 66
Width: 591
VWidth: 0
Flags: W
LayerCount: 2
Fore
SplineSet
246 0 m 1
 246 1479 l 1
 438 1479 l 1
 438 0 l 1
 380 0 l 1
 286 -72 219 -141 219 -205 c 0
 219 -258 266 -294 307 -294 c 0
 361 -294 393 -282 444 -261 c 1
 444 -378 l 1
 406 -394 341 -410 287 -410 c 0
 179 -410 94 -348 94 -234 c 0
 94 -134 174 -55 262 0 c 1
 246 0 l 1
EndSplineSet
EndChar

StartChar: Iota
Encoding: 921 921 67
Width: 491
VWidth: 0
Flags: W
LayerCount: 2
Fore
SplineSet
150 0 m 1
 150 1479 l 1
 342 1479 l 1
 342 0 l 1
 150 0 l 1
EndSplineSet
EndChar

StartChar: Iotadieresis
Encoding: 938 938 68
Width: 717
VWidth: 0
Flags: W
LayerCount: 2
Fore
SplineSet
228 1859 m 1
 228 1647 l 1
 74 1647 l 1
 74 1859 l 1
 228 1859 l 1
619 1859 m 1
 619 1647 l 1
 464 1647 l 1
 464 1859 l 1
 619 1859 l 1
289 0 m 1
 289 1479 l 1
 481 1479 l 1
 481 0 l 1
 289 0 l 1
EndSplineSet
EndChar

StartChar: Iotatonos
Encoding: 906 906 69
Width: 496
VWidth: 0
Flags: W
LayerCount: 2
Fore
SplineSet
245 532 m 0
 157 532 112 598 112 664 c 0
 112 730 157 796 245 796 c 0
 334 796 378 730 378 664 c 0
 378 598 334 532 245 532 c 0
EndSplineSet
EndChar

StartChar: Itilde
Encoding: 296 296 70
Width: 753
VWidth: 0
Flags: W
LayerCount: 2
Fore
SplineSet
179 1664 m 1
 71 1664 l 1
 71 1814 136 1883 243 1883 c 0
 367 1883 539 1789 539 1789 c 1
 579 1792 582 1841 585 1883 c 1
 695 1883 l 1
 695 1746 651 1664 545 1664 c 0
 455 1664 233 1761 233 1761 c 1
 200 1760 182 1719 179 1664 c 1
287 0 m 1
 287 1479 l 1
 479 1479 l 1
 479 0 l 1
 287 0 l 1
EndSplineSet
EndChar

StartChar: J
Encoding: 74 74 71
Width: 684
VWidth: 0
Flags: W
PickledData: "(dp1
S'com.typemytype.robofont.layerData'
p2
(dp3
s."
LayerCount: 2
Fore
SplineSet
79 -214 m 1
 58 -49 l 1
 132 -49 l 2
 314 -49 324 56 324 204 c 2
 324 1479 l 1
 516 1479 l 1
 516 241 l 2
 516 -67 466 -214 114 -214 c 2
 79 -214 l 1
317 1479 m 0
EndSplineSet
EndChar

StartChar: Jcircumflex
Encoding: 308 308 72
Width: 817
VWidth: 0
Flags: W
LayerCount: 2
Fore
SplineSet
439 1935 m 1
 278 1663 l 1
 147 1663 l 1
 334 2051 l 1
 547 2051 l 1
 734 1663 l 1
 600 1663 l 1
 439 1935 l 1
120 -214 m 1
 99 -49 l 1
 173 -49 l 2
 355 -49 365 56 365 204 c 2
 365 1479 l 1
 557 1479 l 1
 557 241 l 2
 557 -67 507 -214 155 -214 c 2
 120 -214 l 1
EndSplineSet
EndChar

StartChar: K
Encoding: 75 75 73
Width: 1268
VWidth: 0
Flags: W
PickledData: "(dp1
S'com.typemytype.robofont.layerData'
p2
(dp3
s."
LayerCount: 2
Fore
SplineSet
991 1479 m 1
 1233 1479 l 1
 634 816 l 1
 1264 0 l 1
 1024 0 l 1
 482 710 l 1
 368 597 l 1
 368 0 l 1
 176 0 l 1
 176 1479 l 1
 368 1479 l 1
 368 804 l 1
 991 1479 l 1
697 1479 m 0
697 0 m 0
EndSplineSet
EndChar

StartChar: Kappa
Encoding: 922 922 74
Width: 1341
VWidth: 0
Flags: W
LayerCount: 2
Fore
SplineSet
965 1479 m 1
 1207 1479 l 1
 608 816 l 1
 1238 0 l 1
 998 0 l 1
 456 710 l 1
 342 597 l 1
 342 0 l 1
 150 0 l 1
 150 1479 l 1
 342 1479 l 1
 342 804 l 1
 965 1479 l 1
EndSplineSet
EndChar

StartChar: Kcommaaccent
Encoding: 310 310 75
Width: 1341
VWidth: 0
Flags: W
LayerCount: 2
Fore
SplineSet
564 -661 m 1
 659 -163 l 1
 824 -163 l 1
 680 -661 l 1
 564 -661 l 1
965 1479 m 1
 1207 1479 l 1
 608 816 l 1
 1238 0 l 1
 998 0 l 1
 456 710 l 1
 342 597 l 1
 342 0 l 1
 150 0 l 1
 150 1479 l 1
 342 1479 l 1
 342 804 l 1
 965 1479 l 1
EndSplineSet
EndChar

StartChar: L
Encoding: 76 76 76
Width: 1049
VWidth: 0
Flags: W
PickledData: "(dp1
S'com.typemytype.robofont.layerData'
p2
(dp3
s."
LayerCount: 2
Fore
SplineSet
1001 154 m 1
 995 0 l 1
 176 0 l 1
 176 1479 l 1
 368 1479 l 1
 368 154 l 1
 1001 154 l 1
564 1479 m 0
564 0 m 0
EndSplineSet
EndChar

StartChar: Lacute
Encoding: 313 313 77
Width: 1077
VWidth: 0
Flags: W
LayerCount: 2
Fore
SplineSet
944 2052 m 1
 620 1664 l 1
 506 1664 l 1
 692 2052 l 1
 944 2052 l 1
975 154 m 1
 969 0 l 1
 150 0 l 1
 150 1479 l 1
 342 1479 l 1
 342 154 l 1
 975 154 l 1
EndSplineSet
EndChar

StartChar: Lambda
Encoding: 923 923 78
Width: 1481
VWidth: 0
Flags: W
LayerCount: 2
Fore
SplineSet
1202 0 m 1
 741 1306 l 1
 286 0 l 1
 99 0 l 1
 648 1496 l 1
 833 1496 l 1
 1384 0 l 1
 1202 0 l 1
EndSplineSet
EndChar

StartChar: Lcaron
Encoding: 317 317 79
Width: 1561
VWidth: 0
Flags: W
LayerCount: 2
Fore
SplineSet
1470 1501 m 1
 1336 1029 l 1
 1220 1029 l 1
 1312 1501 l 1
 1470 1501 l 1
975 154 m 1
 969 0 l 1
 150 0 l 1
 150 1479 l 1
 342 1479 l 1
 342 154 l 1
 975 154 l 1
EndSplineSet
EndChar

StartChar: Lcommaaccent
Encoding: 315 315 80
Width: 1076
VWidth: 0
Flags: W
LayerCount: 2
Fore
SplineSet
432 -661 m 1
 528 -163 l 1
 692 -163 l 1
 548 -661 l 1
 432 -661 l 1
975 154 m 1
 969 0 l 1
 150 0 l 1
 150 1479 l 1
 342 1479 l 1
 342 154 l 1
 975 154 l 1
EndSplineSet
EndChar

StartChar: Ldot
Encoding: 319 319 81
Width: 1076
VWidth: 0
Flags: W
LayerCount: 2
Fore
SplineSet
478 652 m 1
 478 850 l 1
 646 850 l 1
 646 652 l 1
 478 652 l 1
975 154 m 1
 969 0 l 1
 150 0 l 1
 150 1479 l 1
 342 1479 l 1
 342 154 l 1
 975 154 l 1
EndSplineSet
EndChar

StartChar: Lslash
Encoding: 321 321 82
Width: 1205
VWidth: 0
Flags: W
LayerCount: 2
Fore
SplineSet
270 756 m 1
 270 1496 l 1
 447 1496 l 1
 447 853 l 1
 797 1045 l 1
 797 889 l 1
 447 701 l 1
 447 155 l 1
 1104 155 l 1
 1092 0 l 1
 270 0 l 1
 270 606 l 1
 122 527 l 1
 122 675 l 1
 270 756 l 1
EndSplineSet
EndChar

StartChar: M
Encoding: 77 77 83
Width: 1824
VWidth: 0
Flags: W
PickledData: "(dp1
S'com.typemytype.robofont.layerData'
p2
(dp3
s."
LayerCount: 2
Fore
SplineSet
1413 1479 m 1
 1648 1479 l 1
 1648 0 l 1
 1473 0 l 1
 1473 878 l 1
 1480 1232 l 1
 1443 1131 l 1
 998 101 l 1
 829 101 l 1
 376 1135 l 1
 338 1236 l 1
 351 874 l 1
 351 0 l 1
 176 0 l 1
 176 1479 l 1
 417 1479 l 1
 913 318 l 1
 1413 1479 l 1
EndSplineSet
EndChar

StartChar: Mu
Encoding: 924 924 84
Width: 1771
VWidth: 0
Flags: W
LayerCount: 2
Fore
SplineSet
1404 1479 m 1
 1622 1479 l 1
 1622 0 l 1
 1454 0 l 1
 1454 890 l 1
 1461 1244 l 1
 1424 1143 l 1
 972 91 l 1
 803 91 l 1
 343 1147 l 1
 305 1248 l 1
 318 886 l 1
 318 0 l 1
 150 0 l 1
 150 1479 l 1
 374 1479 l 1
 887 301 l 1
 1404 1479 l 1
EndSplineSet
EndChar

StartChar: N
Encoding: 78 78 85
Width: 1568
VWidth: 0
Flags: W
PickledData: "(dp1
S'com.typemytype.robofont.layerData'
p2
(dp3
s."
LayerCount: 2
Fore
SplineSet
1230 241 m 1
 1230 241 1224 560 1224 610 c 2
 1224 1479 l 1
 1392 1479 l 1
 1392 0 l 1
 1196 0 l 1
 911 414 619 821 338 1239 c 1
 338 1239 344 983 344 864 c 2
 344 0 l 1
 176 0 l 1
 176 1479 l 1
 369 1479 l 1
 655 1066 947 658 1230 241 c 1
784 1479 m 0
784 0 m 0
EndSplineSet
EndChar

StartChar: Nacute
Encoding: 323 323 86
Width: 1515
VWidth: 0
Flags: W
LayerCount: 2
Fore
SplineSet
1140 2052 m 1
 815 1664 l 1
 701 1664 l 1
 887 2052 l 1
 1140 2052 l 1
1204 241 m 1
 1204 241 1198 560 1198 610 c 2
 1198 1479 l 1
 1366 1479 l 1
 1366 0 l 1
 1170 0 l 1
 885 414 593 821 312 1239 c 1
 312 1239 318 983 318 864 c 2
 318 0 l 1
 150 0 l 1
 150 1479 l 1
 343 1479 l 1
 629 1066 921 658 1204 241 c 1
EndSplineSet
EndChar

StartChar: Ncaron
Encoding: 327 327 87
Width: 1515
VWidth: 0
Flags: W
LayerCount: 2
Fore
SplineSet
1071 2050 m 1
 884 1662 l 1
 671 1662 l 1
 484 2050 l 1
 615 2050 l 1
 776 1738 l 1
 937 2050 l 1
 1071 2050 l 1
1204 241 m 1
 1204 241 1198 560 1198 610 c 2
 1198 1479 l 1
 1366 1479 l 1
 1366 0 l 1
 1170 0 l 1
 885 414 593 821 312 1239 c 1
 312 1239 318 983 318 864 c 2
 318 0 l 1
 150 0 l 1
 150 1479 l 1
 343 1479 l 1
 629 1066 921 658 1204 241 c 1
EndSplineSet
EndChar

StartChar: Ncommaaccent
Encoding: 325 325 88
Width: 1515
VWidth: 0
Flags: W
LayerCount: 2
Fore
SplineSet
628 -661 m 1
 723 -163 l 1
 888 -163 l 1
 744 -661 l 1
 628 -661 l 1
1204 241 m 1
 1204 241 1198 560 1198 610 c 2
 1198 1479 l 1
 1366 1479 l 1
 1366 0 l 1
 1170 0 l 1
 885 414 593 821 312 1239 c 1
 312 1239 318 983 318 864 c 2
 318 0 l 1
 150 0 l 1
 150 1479 l 1
 343 1479 l 1
 629 1066 921 658 1204 241 c 1
EndSplineSet
EndChar

StartChar: Ntilde
Encoding: 209 209 89
Width: 1515
VWidth: 0
Flags: W
LayerCount: 2
Fore
SplineSet
554 1664 m 1
 446 1664 l 1
 446 1814 511 1883 618 1883 c 0
 742 1883 914 1789 914 1789 c 1
 954 1792 957 1841 960 1883 c 1
 1070 1883 l 1
 1070 1746 1026 1664 920 1664 c 0
 830 1664 608 1761 608 1761 c 1
 575 1760 557 1719 554 1664 c 1
1204 241 m 1
 1204 241 1198 560 1198 610 c 2
 1198 1479 l 1
 1366 1479 l 1
 1366 0 l 1
 1170 0 l 1
 885 414 593 821 312 1239 c 1
 312 1239 318 983 318 864 c 2
 318 0 l 1
 150 0 l 1
 150 1479 l 1
 343 1479 l 1
 629 1066 921 658 1204 241 c 1
EndSplineSet
EndChar

StartChar: Nu
Encoding: 925 925 90
Width: 1515
VWidth: 0
Flags: W
LayerCount: 2
Fore
SplineSet
1204 241 m 1
 1204 241 1198 560 1198 610 c 2
 1198 1479 l 1
 1366 1479 l 1
 1366 0 l 1
 1170 0 l 1
 885 414 593 821 312 1239 c 1
 312 1239 318 983 318 864 c 2
 318 0 l 1
 150 0 l 1
 150 1479 l 1
 343 1479 l 1
 629 1066 921 658 1204 241 c 1
EndSplineSet
EndChar

StartChar: O
Encoding: 79 79 91
Width: 1604
VWidth: 0
Flags: W
PickledData: "(dp1
S'com.typemytype.robofont.layerData'
p2
(dp3
s."
LayerCount: 2
Fore
SplineSet
802 -22 m 0
 346 -22 98 276 98 734 c 0
 98 1203 355 1501 803 1501 c 0
 1244 1501 1506 1200 1506 733 c 0
 1506 282 1252 -22 802 -22 c 0
802 130 m 0
 1152 130 1314 383 1314 733 c 0
 1314 1096 1145 1349 803 1349 c 0
 461 1349 290 1097 290 733 c 0
 290 383 453 130 802 130 c 0
804 1479 m 0
EndSplineSet
EndChar

StartChar: OE
Encoding: 338 338 92
Width: 2051
VWidth: 0
Flags: W
LayerCount: 2
Fore
SplineSet
846 -23 m 0
 371 -23 124 299 124 771 c 1
 134 1207 421 1524 823 1524 c 0
 971 1524 1096 1478 1171 1413 c 1
 1171 1495 l 1
 1897 1495 l 1
 1880 1341 l 1
 1348 1341 l 1
 1348 845 l 1
 1844 845 l 1
 1844 692 l 1
 1348 692 l 1
 1348 156 l 1
 1921 156 l 1
 1906 0 l 1
 1171 0 l 1
 1171 82 l 1
 1128 36 963 -23 846 -23 c 0
847 129 m 1
 976 129 1123 193 1171 222 c 1
 1171 1259 l 1
 1094 1322 978 1373 838 1373 c 0
 514 1373 322 1121 314 773 c 1
 314 418 456 133 847 129 c 1
1026 1479 m 0
EndSplineSet
EndChar

StartChar: Oacute
Encoding: 211 211 93
Width: 1661
VWidth: 0
Flags: W
LayerCount: 2
Fore
SplineSet
1211 2052 m 1
 886 1664 l 1
 772 1664 l 1
 958 2052 l 1
 1211 2052 l 1
829 -22 m 0
 373 -22 125 276 125 734 c 0
 125 1203 382 1501 830 1501 c 0
 1271 1501 1533 1200 1533 733 c 0
 1533 282 1279 -22 829 -22 c 0
829 130 m 0
 1179 130 1341 383 1341 733 c 0
 1341 1096 1172 1349 830 1349 c 0
 488 1349 317 1097 317 733 c 0
 317 383 480 130 829 130 c 0
EndSplineSet
EndChar

StartChar: Obreve
Encoding: 334 334 94
Width: 1661
VWidth: 0
Flags: W
LayerCount: 2
Fore
SplineSet
560 1709 m 0
 437 1709 311 1795 311 1967 c 1
 427 1967 l 1
 427 1871 487 1826 560 1826 c 0
 633 1826 696 1871 696 1967 c 1
 813 1967 l 1
 813 1795 684 1709 560 1709 c 0
829 -22 m 0
 373 -22 125 276 125 734 c 0
 125 1203 382 1501 830 1501 c 0
 1271 1501 1533 1200 1533 733 c 0
 1533 282 1279 -22 829 -22 c 0
829 130 m 0
 1179 130 1341 383 1341 733 c 0
 1341 1096 1172 1349 830 1349 c 0
 488 1349 317 1097 317 733 c 0
 317 383 480 130 829 130 c 0
EndSplineSet
EndChar

StartChar: Ocircumflex
Encoding: 212 212 95
Width: 1661
VWidth: 0
Flags: W
LayerCount: 2
Fore
SplineSet
817 1933 m 1
 656 1661 l 1
 525 1661 l 1
 712 2049 l 1
 925 2049 l 1
 1112 1661 l 1
 978 1661 l 1
 817 1933 l 1
829 -22 m 0
 373 -22 125 276 125 734 c 0
 125 1203 382 1501 830 1501 c 0
 1271 1501 1533 1200 1533 733 c 0
 1533 282 1279 -22 829 -22 c 0
829 130 m 0
 1179 130 1341 383 1341 733 c 0
 1341 1096 1172 1349 830 1349 c 0
 488 1349 317 1097 317 733 c 0
 317 383 480 130 829 130 c 0
EndSplineSet
EndChar

StartChar: Odieresis
Encoding: 214 214 96
Width: 1661
VWidth: 0
Flags: W
LayerCount: 2
Fore
SplineSet
710 1876 m 1
 710 1664 l 1
 556 1664 l 1
 556 1876 l 1
 710 1876 l 1
1102 1876 m 1
 1102 1664 l 1
 946 1664 l 1
 946 1876 l 1
 1102 1876 l 1
829 -22 m 0
 373 -22 125 276 125 734 c 0
 125 1203 382 1501 830 1501 c 0
 1271 1501 1533 1200 1533 733 c 0
 1533 282 1279 -22 829 -22 c 0
829 130 m 0
 1179 130 1341 383 1341 733 c 0
 1341 1096 1172 1349 830 1349 c 0
 488 1349 317 1097 317 733 c 0
 317 383 480 130 829 130 c 0
EndSplineSet
EndChar

StartChar: Ograve
Encoding: 210 210 97
Width: 1661
VWidth: 0
Flags: W
LayerCount: 2
Fore
SplineSet
700 2051 m 1
 885 1664 l 1
 773 1664 l 1
 450 2051 l 1
 700 2051 l 1
829 -22 m 0
 373 -22 125 276 125 734 c 0
 125 1203 382 1501 830 1501 c 0
 1271 1501 1533 1200 1533 733 c 0
 1533 282 1279 -22 829 -22 c 0
829 130 m 0
 1179 130 1341 383 1341 733 c 0
 1341 1096 1172 1349 830 1349 c 0
 488 1349 317 1097 317 733 c 0
 317 383 480 130 829 130 c 0
EndSplineSet
EndChar

StartChar: Ohorn
Encoding: 416 416 98
Width: 1953
VWidth: 0
Flags: W
LayerCount: 2
Fore
SplineSet
1706 1156 m 0
 1677 1156 1645 1159 1614 1162 c 1
 1614 1256 l 1
 1629 1256 1647 1254 1664 1254 c 0
 1722 1254 1740 1299 1740 1354 c 0
 1740 1403 1725 1460 1710 1501 c 1
 1826 1501 l 1
 1847 1452 1858 1400 1858 1351 c 0
 1858 1245 1807 1156 1706 1156 c 0
829 -22 m 0
 373 -22 125 276 125 734 c 0
 125 1203 382 1501 830 1501 c 0
 1271 1501 1533 1200 1533 733 c 0
 1533 282 1279 -22 829 -22 c 0
829 130 m 0
 1179 130 1341 383 1341 733 c 0
 1341 1096 1172 1349 830 1349 c 0
 488 1349 317 1097 317 733 c 0
 317 383 480 130 829 130 c 0
EndSplineSet
EndChar

StartChar: Ohungarumlaut
Encoding: 336 336 99
Width: 1661
VWidth: 0
Flags: W
LayerCount: 2
Fore
SplineSet
1012 1999 m 1
 760 1664 l 1
 662 1664 l 1
 860 1999 l 1
 1012 1999 l 1
1246 1999 m 1
 996 1664 l 1
 894 1664 l 1
 1096 1999 l 1
 1246 1999 l 1
829 -22 m 0
 373 -22 125 276 125 734 c 0
 125 1203 382 1501 830 1501 c 0
 1271 1501 1533 1200 1533 733 c 0
 1533 282 1279 -22 829 -22 c 0
829 130 m 0
 1179 130 1341 383 1341 733 c 0
 1341 1096 1172 1349 830 1349 c 0
 488 1349 317 1097 317 733 c 0
 317 383 480 130 829 130 c 0
EndSplineSet
EndChar

StartChar: Omacron
Encoding: 332 332 100
Width: 1661
VWidth: 0
Flags: W
LayerCount: 2
Fore
SplineSet
1229 1803 m 1
 1229 1664 l 1
 429 1664 l 1
 429 1803 l 1
 1229 1803 l 1
829 -22 m 0
 373 -22 125 276 125 734 c 0
 125 1203 382 1501 830 1501 c 0
 1271 1501 1533 1200 1533 733 c 0
 1533 282 1279 -22 829 -22 c 0
829 130 m 0
 1179 130 1341 383 1341 733 c 0
 1341 1096 1172 1349 830 1349 c 0
 488 1349 317 1097 317 733 c 0
 317 383 480 130 829 130 c 0
EndSplineSet
EndChar

StartChar: Omega
Encoding: 937 937 101
Width: 1661
VWidth: 0
Flags: W
LayerCount: 2
Fore
SplineSet
829 -22 m 0
 373 -22 125 276 125 734 c 0
 125 1203 382 1501 830 1501 c 0
 1271 1501 1533 1200 1533 733 c 0
 1533 282 1279 -22 829 -22 c 0
829 130 m 0
 1179 130 1341 383 1341 733 c 0
 1341 1096 1172 1349 830 1349 c 0
 488 1349 317 1097 317 733 c 0
 317 383 480 130 829 130 c 0
20 1479 m 0
EndSplineSet
EndChar

StartChar: Omegatonos
Encoding: 911 911 102
Width: 496
VWidth: 0
Flags: W
LayerCount: 2
Fore
SplineSet
245 532 m 0
 157 532 112 598 112 664 c 0
 112 730 157 796 245 796 c 0
 334 796 378 730 378 664 c 0
 378 598 334 532 245 532 c 0
EndSplineSet
EndChar

StartChar: Omicron
Encoding: 927 927 103
Width: 1661
VWidth: 0
Flags: W
LayerCount: 2
Fore
SplineSet
829 -22 m 0
 373 -22 125 276 125 734 c 0
 125 1203 382 1501 830 1501 c 0
 1271 1501 1533 1200 1533 733 c 0
 1533 282 1279 -22 829 -22 c 0
829 130 m 0
 1179 130 1341 383 1341 733 c 0
 1341 1096 1172 1349 830 1349 c 0
 488 1349 317 1097 317 733 c 0
 317 383 480 130 829 130 c 0
EndSplineSet
EndChar

StartChar: Omicrontonos
Encoding: 908 908 104
Width: 496
VWidth: 0
Flags: W
LayerCount: 2
Fore
SplineSet
245 532 m 0
 157 532 112 598 112 664 c 0
 112 730 157 796 245 796 c 0
 334 796 378 730 378 664 c 0
 378 598 334 532 245 532 c 0
EndSplineSet
EndChar

StartChar: Oslash
Encoding: 216 216 105
Width: 1715
VWidth: 0
Flags: W
LayerCount: 2
Fore
SplineSet
549 -180 m 1
 424 -137 l 1
 501 53 l 1
 254 178 126 446 126 778 c 0
 126 1270 393 1586 856 1586 c 0
 946 1586 1029 1574 1105 1551 c 1
 1183 1745 l 1
 1314 1699 l 1
 1232 1497 l 1
 1461 1369 1586 1118 1586 778 c 0
 1586 311 1336 -25 856 -25 c 0
 771 -25 694 -15 624 5 c 1
 549 -180 l 1
571 227 m 1
 1037 1382 l 1
 983 1400 923 1409 856 1409 c 0
 495 1409 316 1133 316 785 c 0
 316 540 400 331 571 227 c 1
856 152 m 0
 1220 152 1395 429 1395 785 c 0
 1395 1015 1317 1213 1160 1322 c 1
 693 173 l 1
 742 159 796 152 856 152 c 0
858 1479 m 0
EndSplineSet
EndChar

StartChar: Oslashacute
Encoding: 510 510 106
Width: 1715
VWidth: 0
Flags: W
LayerCount: 2
Fore
SplineSet
1166 2255 m 1
 841 1867 l 1
 727 1867 l 1
 913 2255 l 1
 1166 2255 l 1
549 -180 m 1
 424 -137 l 1
 501 53 l 1
 254 178 126 446 126 778 c 0
 126 1270 393 1586 856 1586 c 0
 946 1586 1029 1574 1105 1551 c 1
 1183 1745 l 1
 1314 1699 l 1
 1232 1497 l 1
 1461 1369 1586 1118 1586 778 c 0
 1586 311 1336 -25 856 -25 c 0
 771 -25 694 -15 624 5 c 1
 549 -180 l 1
571 227 m 1
 1037 1382 l 1
 983 1400 923 1409 856 1409 c 0
 495 1409 316 1133 316 785 c 0
 316 540 400 331 571 227 c 1
856 152 m 0
 1220 152 1395 429 1395 785 c 0
 1395 1015 1317 1213 1160 1322 c 1
 693 173 l 1
 742 159 796 152 856 152 c 0
EndSplineSet
EndChar

StartChar: Otilde
Encoding: 213 213 107
Width: 1661
VWidth: 0
Flags: W
LayerCount: 2
Fore
SplineSet
624 1664 m 1
 518 1664 l 1
 518 1814 583 1883 690 1883 c 0
 814 1883 984 1789 984 1789 c 1
 1024 1792 1029 1841 1032 1883 c 1
 1140 1883 l 1
 1140 1746 1098 1664 992 1664 c 0
 902 1664 680 1761 680 1761 c 1
 647 1760 627 1719 624 1664 c 1
829 -22 m 0
 373 -22 125 276 125 734 c 0
 125 1203 382 1501 830 1501 c 0
 1271 1501 1533 1200 1533 733 c 0
 1533 282 1279 -22 829 -22 c 0
829 130 m 0
 1179 130 1341 383 1341 733 c 0
 1341 1096 1172 1349 830 1349 c 0
 488 1349 317 1097 317 733 c 0
 317 383 480 130 829 130 c 0
EndSplineSet
EndChar

StartChar: P
Encoding: 80 80 108
Width: 1216
VWidth: 0
Flags: W
PickledData: "(dp1
S'com.typemytype.robofont.layerData'
p2
(dp3
s."
LayerCount: 2
Fore
SplineSet
176 0 m 1
 176 1479 l 1
 626 1479 l 2
 910 1479 1136 1345 1136 1076 c 0
 1136 798 973 625 603 625 c 0
 541 625 444 625 368 629 c 1
 368 0 l 1
 176 0 l 1
612 769 m 0
 854 769 944 875 944 1073 c 0
 944 1251 807 1320 622 1320 c 2
 368 1320 l 1
 368 771 l 1
 368 771 544 769 612 769 c 0
EndSplineSet
EndChar

StartChar: Phi
Encoding: 934 934 109
Width: 1701
VWidth: 0
Flags: W
LayerCount: 2
Fore
SplineSet
935 0 m 1
 758 0 l 1
 758 170 l 1
 338 201 119 450 119 772 c 0
 119 1100 351 1329 758 1358 c 1
 758 1496 l 1
 935 1496 l 1
 935 1358 l 1
 1345 1330 1578 1101 1578 772 c 0
 1578 449 1358 199 935 170 c 1
 935 0 l 1
758 323 m 1
 758 1205 l 1
 459 1178 308 1012 308 772 c 0
 308 541 446 353 758 323 c 1
935 1205 m 1
 935 323 l 1
 1250 352 1389 540 1389 772 c 0
 1389 1010 1239 1179 935 1205 c 1
EndSplineSet
EndChar

StartChar: Pi
Encoding: 928 928 110
Width: 1470
VWidth: 0
Flags: W
LayerCount: 2
Fore
SplineSet
1144 0 m 1
 1144 1344 l 1
 327 1344 l 1
 327 0 l 1
 150 0 l 1
 150 1496 l 1
 1321 1496 l 1
 1321 0 l 1
 1144 0 l 1
EndSplineSet
EndChar

StartChar: Psi
Encoding: 936 936 111
Width: 496
VWidth: 0
Flags: W
LayerCount: 2
Fore
SplineSet
245 532 m 0
 157 532 112 598 112 664 c 0
 112 730 157 796 245 796 c 0
 334 796 378 730 378 664 c 0
 378 598 334 532 245 532 c 0
EndSplineSet
EndChar

StartChar: Q
Encoding: 81 81 112
Width: 1604
VWidth: 0
Flags: W
PickledData: "(dp1
S'com.typemytype.robofont.layerData'
p2
(dp3
s."
LayerCount: 2
Fore
SplineSet
1355 -350 m 1
 1244 -463 l 1
 1205 -424 1004 -181 920 -8 c 1
 885 -13 840 -22 802 -22 c 0
 346 -22 98 282 98 740 c 0
 98 1209 355 1505 803 1505 c 0
 1244 1505 1506 1206 1506 739 c 0
 1506 392 1356 128 1081 25 c 1
 1104 -12 1236 -232 1355 -350 c 1
802 130 m 0
 1152 130 1314 389 1314 739 c 0
 1314 1102 1145 1353 803 1353 c 0
 461 1353 290 1103 290 739 c 0
 290 389 453 130 802 130 c 0
EndSplineSet
EndChar

StartChar: R
Encoding: 82 82 113
Width: 1384
VWidth: 0
Flags: W
PickledData: "(dp1
S'com.typemytype.robofont.layerData'
p2
(dp3
s."
LayerCount: 2
Fore
SplineSet
729 837 m 2
 993 837 1072 918 1072 1094 c 0
 1072 1250 984 1324 751 1324 c 2
 368 1324 l 1
 368 837 l 1
 729 837 l 2
176 0 m 1
 176 1479 l 1
 664 1479 l 2
 1020 1479 1264 1434 1264 1097 c 0
 1264 912 1195 789 984 729 c 1
 984 723 1046 597 1080 522 c 2
 1316 0 l 1
 1116 0 l 1
 918 464 l 1
 879 552 843 638 812 689 c 1
 783 687 673 684 639 684 c 0
 620 684 368 686 368 686 c 1
 368 0 l 1
 176 0 l 1
730 1479 m 0
730 0 m 0
EndSplineSet
EndChar

StartChar: Racute
Encoding: 340 340 114
Width: 1408
VWidth: 0
Flags: W
LayerCount: 2
Fore
SplineSet
1102 2052 m 1
 777 1664 l 1
 663 1664 l 1
 849 2052 l 1
 1102 2052 l 1
703 837 m 2
 967 837 1046 918 1046 1094 c 0
 1046 1250 958 1324 725 1324 c 2
 342 1324 l 1
 342 837 l 1
 703 837 l 2
150 0 m 1
 150 1479 l 1
 638 1479 l 2
 994 1479 1238 1434 1238 1097 c 0
 1238 912 1169 789 958 729 c 1
 958 723 1020 597 1054 522 c 2
 1290 0 l 1
 1090 0 l 1
 892 464 l 1
 853 552 817 638 786 689 c 1
 757 687 647 684 613 684 c 0
 594 684 342 686 342 686 c 1
 342 0 l 1
 150 0 l 1
EndSplineSet
EndChar

StartChar: Rcaron
Encoding: 344 344 115
Width: 1408
VWidth: 0
Flags: W
LayerCount: 2
Fore
SplineSet
985 2049 m 1
 798 1661 l 1
 585 1661 l 1
 398 2049 l 1
 529 2049 l 1
 690 1737 l 1
 851 2049 l 1
 985 2049 l 1
703 837 m 2
 967 837 1046 918 1046 1094 c 0
 1046 1250 958 1324 725 1324 c 2
 342 1324 l 1
 342 837 l 1
 703 837 l 2
150 0 m 1
 150 1479 l 1
 638 1479 l 2
 994 1479 1238 1434 1238 1097 c 0
 1238 912 1169 789 958 729 c 1
 958 723 1020 597 1054 522 c 2
 1290 0 l 1
 1090 0 l 1
 892 464 l 1
 853 552 817 638 786 689 c 1
 757 687 647 684 613 684 c 0
 594 684 342 686 342 686 c 1
 342 0 l 1
 150 0 l 1
EndSplineSet
EndChar

StartChar: Rcommaaccent
Encoding: 342 342 116
Width: 1408
VWidth: 0
Flags: W
LayerCount: 2
Fore
SplineSet
590 -661 m 1
 685 -163 l 1
 850 -163 l 1
 706 -661 l 1
 590 -661 l 1
703 837 m 2
 967 837 1046 918 1046 1094 c 0
 1046 1250 958 1324 725 1324 c 2
 342 1324 l 1
 342 837 l 1
 703 837 l 2
150 0 m 1
 150 1479 l 1
 638 1479 l 2
 994 1479 1238 1434 1238 1097 c 0
 1238 912 1169 789 958 729 c 1
 958 723 1020 597 1054 522 c 2
 1290 0 l 1
 1090 0 l 1
 892 464 l 1
 853 552 817 638 786 689 c 1
 757 687 647 684 613 684 c 0
 594 684 342 686 342 686 c 1
 342 0 l 1
 150 0 l 1
EndSplineSet
EndChar

StartChar: Rho
Encoding: 929 929 117
Width: 1231
VWidth: 0
Flags: W
LayerCount: 2
Fore
SplineSet
150 0 m 1
 150 1479 l 1
 600 1479 l 2
 884 1479 1110 1345 1110 1076 c 0
 1110 798 947 625 577 625 c 0
 515 625 418 631 342 638 c 1
 342 0 l 1
 150 0 l 1
586 769 m 0
 828 769 918 875 918 1073 c 0
 918 1251 781 1320 596 1320 c 2
 342 1320 l 1
 342 780 l 1
 342 780 518 769 586 769 c 0
EndSplineSet
EndChar

StartChar: S
Encoding: 83 83 118
Width: 1160
VWidth: 0
Flags: W
PickledData: "(dp1
S'com.typemytype.robofont.layerData'
p2
(dp3
s."
LayerCount: 2
Fore
SplineSet
592 -22 m 0
 348 -22 175 80 90 136 c 1
 141 282 l 1
 262 210 413 130 592 130 c 0
 791 130 918 210 910 402 c 0
 905 522 830 594 654 657 c 2
 407 745 l 1
 217 806 92 911 92 1109 c 0
 92 1400 327 1501 604 1501 c 0
 775 1501 928 1439 1023 1375 c 1
 969 1235 l 1
 900 1278 763 1349 611 1349 c 0
 425 1349 264 1289 264 1121 c 0
 264 1004 335 945 468 903 c 1
 702 820 l 1
 909 755 1075 658 1082 414 c 0
 1091 103 879 -22 592 -22 c 0
603 1479 m 0
603 0 m 0
EndSplineSet
EndChar

StartChar: Sacute
Encoding: 346 346 119
Width: 1320
VWidth: 0
Flags: W
LayerCount: 2
Fore
SplineSet
1042 2052 m 1
 717 1664 l 1
 603 1664 l 1
 789 2052 l 1
 1042 2052 l 1
667 -22 m 0
 407 -22 222 44 131 100 c 1
 183 244 l 1
 317 178 487 130 678 130 c 0
 890 130 1005 224 1005 426 c 0
 1005 546 954 627 764 675 c 2
 470 749 l 2
 264 801 133 911 133 1109 c 0
 133 1400 351 1501 679 1501 c 0
 862 1501 1024 1468 1126 1404 c 1
 1076 1269 l 1
 972 1319 847 1349 685 1349 c 0
 447 1349 317 1289 317 1121 c 0
 317 1004 391 941 535 906 c 2
 816 838 l 2
 1040 784 1189 676 1189 432 c 0
 1189 121 973 -22 667 -22 c 0
EndSplineSet
EndChar

StartChar: Scaron
Encoding: 352 352 120
Width: 1320
VWidth: 0
Flags: W
LayerCount: 2
Fore
SplineSet
970 2049 m 1
 783 1661 l 1
 570 1661 l 1
 383 2049 l 1
 514 2049 l 1
 675 1737 l 1
 836 2049 l 1
 970 2049 l 1
667 -22 m 0
 407 -22 222 44 131 100 c 1
 183 244 l 1
 317 178 487 130 678 130 c 0
 890 130 1005 224 1005 426 c 0
 1005 546 954 627 764 675 c 2
 470 749 l 2
 264 801 133 911 133 1109 c 0
 133 1400 351 1501 679 1501 c 0
 862 1501 1024 1468 1126 1404 c 1
 1076 1269 l 1
 972 1319 847 1349 685 1349 c 0
 447 1349 317 1289 317 1121 c 0
 317 1004 391 941 535 906 c 2
 816 838 l 2
 1040 784 1189 676 1189 432 c 0
 1189 121 973 -22 667 -22 c 0
EndSplineSet
EndChar

StartChar: Scedilla
Encoding: 350 350 121
Width: 1319
VWidth: 0
Flags: W
LayerCount: 2
Fore
SplineSet
702 -21 m 1
 659 -434 l 1
 505 -434 l 1
 614 -21 l 1
 382 -13 216 48 131 100 c 1
 183 244 l 1
 317 178 487 130 678 130 c 0
 890 130 1005 224 1005 426 c 0
 1005 546 954 627 764 675 c 2
 470 749 l 2
 264 801 133 911 133 1109 c 0
 133 1400 351 1501 679 1501 c 0
 862 1501 1024 1468 1126 1404 c 1
 1076 1269 l 1
 972 1319 847 1349 685 1349 c 0
 447 1349 317 1289 317 1121 c 0
 317 1004 391 941 535 906 c 2
 816 838 l 2
 1040 784 1189 676 1189 432 c 0
 1189 133 990 -10 702 -21 c 1
EndSplineSet
EndChar

StartChar: Scircumflex
Encoding: 348 348 122
Width: 1320
VWidth: 0
Flags: W
LayerCount: 2
Fore
SplineSet
675 1933 m 1
 514 1661 l 1
 383 1661 l 1
 570 2049 l 1
 783 2049 l 1
 970 1661 l 1
 836 1661 l 1
 675 1933 l 1
667 -22 m 0
 407 -22 222 44 131 100 c 1
 183 244 l 1
 317 178 487 130 678 130 c 0
 890 130 1005 224 1005 426 c 0
 1005 546 954 627 764 675 c 2
 470 749 l 2
 264 801 133 911 133 1109 c 0
 133 1400 351 1501 679 1501 c 0
 862 1501 1024 1468 1126 1404 c 1
 1076 1269 l 1
 972 1319 847 1349 685 1349 c 0
 447 1349 317 1289 317 1121 c 0
 317 1004 391 941 535 906 c 2
 816 838 l 2
 1040 784 1189 676 1189 432 c 0
 1189 121 973 -22 667 -22 c 0
EndSplineSet
EndChar

StartChar: Scommaaccent
Encoding: 536 536 123
Width: 1319
VWidth: 0
Flags: W
LayerCount: 2
Fore
SplineSet
530 -683 m 1
 625 -185 l 1
 790 -185 l 1
 646 -683 l 1
 530 -683 l 1
667 -22 m 0
 407 -22 222 44 131 100 c 1
 183 244 l 1
 317 178 487 130 678 130 c 0
 890 130 1005 224 1005 426 c 0
 1005 546 954 627 764 675 c 2
 470 749 l 2
 264 801 133 911 133 1109 c 0
 133 1400 351 1501 679 1501 c 0
 862 1501 1024 1468 1126 1404 c 1
 1076 1269 l 1
 972 1319 847 1349 685 1349 c 0
 447 1349 317 1289 317 1121 c 0
 317 1004 391 941 535 906 c 2
 816 838 l 2
 1040 784 1189 676 1189 432 c 0
 1189 121 973 -22 667 -22 c 0
EndSplineSet
EndChar

StartChar: Sigma
Encoding: 931 931 124
Width: 1181
VWidth: 0
Flags: W
LayerCount: 2
Fore
SplineSet
342 1326 m 1
 342 842 l 1
 982 842 l 1
 982 691 l 1
 342 691 l 1
 342 153 l 1
 1046 153 l 1
 1038 0 l 1
 150 0 l 1
 150 1479 l 1
 1046 1479 l 1
 1039 1326 l 1
 342 1326 l 1
EndSplineSet
EndChar

StartChar: T
Encoding: 84 84 125
Width: 1188
VWidth: 0
Flags: W
PickledData: "(dp1
S'com.typemytype.robofont.layerData'
p2
(dp3
s."
LayerCount: 2
Fore
SplineSet
1138 1479 m 1
 1138 1326 l 1
 690 1326 l 1
 690 0 l 1
 498 0 l 1
 498 1326 l 1
 50 1326 l 1
 50 1479 l 1
 1138 1479 l 1
596 1479 m 0
596 0 m 0
596 740 m 0
EndSplineSet
EndChar

StartChar: Tau
Encoding: 932 932 126
Width: 1261
VWidth: 0
Flags: W
LayerCount: 2
Fore
SplineSet
1173 1479 m 1
 1173 1326 l 1
 725 1326 l 1
 725 0 l 1
 533 0 l 1
 533 1326 l 1
 85 1326 l 1
 85 1479 l 1
 1173 1479 l 1
EndSplineSet
EndChar

StartChar: Tbar
Encoding: 358 358 127
Width: 1243
VWidth: 0
Flags: W
LayerCount: 2
Fore
SplineSet
532 654 m 1
 532 1341 l 1
 85 1341 l 1
 85 1496 l 1
 1157 1496 l 1
 1157 1341 l 1
 709 1341 l 1
 709 654 l 1
 871 654 l 1
 871 531 l 1
 709 531 l 1
 709 0 l 1
 532 0 l 1
 532 531 l 1
 363 531 l 1
 363 654 l 1
 532 654 l 1
EndSplineSet
EndChar

StartChar: Tcaron
Encoding: 356 356 128
Width: 1261
VWidth: 0
Flags: W
LayerCount: 2
Fore
SplineSet
919 2049 m 1
 732 1661 l 1
 519 1661 l 1
 332 2049 l 1
 463 2049 l 1
 624 1737 l 1
 785 2049 l 1
 919 2049 l 1
1173 1479 m 1
 1173 1326 l 1
 725 1326 l 1
 725 0 l 1
 533 0 l 1
 533 1326 l 1
 85 1326 l 1
 85 1479 l 1
 1173 1479 l 1
EndSplineSet
EndChar

StartChar: Tcommaaccent
Encoding: 538 538 129
Width: 1261
VWidth: 0
Flags: W
LayerCount: 2
Fore
SplineSet
1173 1479 m 1
 1173 1326 l 1
 725 1326 l 1
 725 0 l 1
 572 0 l 1
 530 -411 l 1
 376 -411 l 1
 488 15 l 1
 533 15 l 1
 533 1326 l 1
 85 1326 l 1
 85 1479 l 1
 1173 1479 l 1
EndSplineSet
EndChar

StartChar: Theta
Encoding: 920 920 130
Width: 496
VWidth: 0
Flags: W
LayerCount: 2
Fore
SplineSet
245 532 m 0
 157 532 112 598 112 664 c 0
 112 730 157 796 245 796 c 0
 334 796 378 730 378 664 c 0
 378 598 334 532 245 532 c 0
EndSplineSet
EndChar

StartChar: Thorn
Encoding: 222 222 131
Width: 1334
VWidth: 0
Flags: W
LayerCount: 2
Fore
SplineSet
327 1496 m 1
 327 1217 l 1
 651 1217 l 2
 1011 1217 1212 1107 1212 791 c 0
 1212 525 1069 342 722 342 c 0
 714 342 327 349 327 349 c 1
 327 0 l 1
 150 0 l 1
 150 1496 l 1
 327 1496 l 1
327 1068 m 1
 327 493 l 1
 711 493 l 2
 959 493 1043 615 1043 782 c 0
 1043 979 944 1068 669 1068 c 2
 327 1068 l 1
EndSplineSet
EndChar

StartChar: U
Encoding: 85 85 132
Width: 1459
VWidth: 0
Flags: W
PickledData: "(dp1
S'com.typemytype.robofont.layerData'
p2
(dp3
s."
LayerCount: 2
Fore
SplineSet
728 -22 m 0
 335 -22 168 192 168 521 c 2
 168 1479 l 1
 360 1479 l 1
 360 518 l 2
 360 250 463 130 728 130 c 0
 986 130 1096 250 1096 518 c 2
 1096 1479 l 1
 1288 1479 l 1
 1288 519 l 2
 1288 192 1121 -22 728 -22 c 0
728 1479 m 0
1291 10 m 0
EndSplineSet
EndChar

StartChar: Uacute
Encoding: 218 218 133
Width: 1409
VWidth: 0
Flags: W
LayerCount: 2
Fore
SplineSet
1087 2052 m 1
 762 1664 l 1
 648 1664 l 1
 834 2052 l 1
 1087 2052 l 1
705 -22 m 0
 312 -22 145 192 145 521 c 2
 145 1479 l 1
 337 1479 l 1
 337 518 l 2
 337 250 440 130 705 130 c 0
 963 130 1073 250 1073 518 c 2
 1073 1479 l 1
 1265 1479 l 1
 1265 519 l 2
 1265 192 1098 -22 705 -22 c 0
EndSplineSet
EndChar

StartChar: Ubreve
Encoding: 364 364 134
Width: 1409
VWidth: 0
Flags: W
LayerCount: 2
Fore
SplineSet
447 1711 m 0
 324 1711 198 1797 198 1969 c 1
 314 1969 l 1
 314 1873 374 1828 447 1828 c 0
 520 1828 583 1873 583 1969 c 1
 700 1969 l 1
 700 1797 571 1711 447 1711 c 0
705 -22 m 0
 312 -22 145 192 145 521 c 2
 145 1479 l 1
 337 1479 l 1
 337 518 l 2
 337 250 440 130 705 130 c 0
 963 130 1073 250 1073 518 c 2
 1073 1479 l 1
 1265 1479 l 1
 1265 519 l 2
 1265 192 1098 -22 705 -22 c 0
EndSplineSet
EndChar

StartChar: Ucircumflex
Encoding: 219 219 135
Width: 1409
VWidth: 0
Flags: W
LayerCount: 2
Fore
SplineSet
704 1935 m 1
 543 1663 l 1
 412 1663 l 1
 599 2051 l 1
 812 2051 l 1
 999 1663 l 1
 865 1663 l 1
 704 1935 l 1
705 -22 m 0
 312 -22 145 192 145 521 c 2
 145 1479 l 1
 337 1479 l 1
 337 518 l 2
 337 250 440 130 705 130 c 0
 963 130 1073 250 1073 518 c 2
 1073 1479 l 1
 1265 1479 l 1
 1265 519 l 2
 1265 192 1098 -22 705 -22 c 0
EndSplineSet
EndChar

StartChar: Udieresis
Encoding: 220 220 136
Width: 1409
VWidth: 0
Flags: W
LayerCount: 2
Fore
SplineSet
586 1876 m 1
 586 1664 l 1
 432 1664 l 1
 432 1876 l 1
 586 1876 l 1
978 1876 m 1
 978 1664 l 1
 822 1664 l 1
 822 1876 l 1
 978 1876 l 1
705 -22 m 0
 312 -22 145 192 145 521 c 2
 145 1479 l 1
 337 1479 l 1
 337 518 l 2
 337 250 440 130 705 130 c 0
 963 130 1073 250 1073 518 c 2
 1073 1479 l 1
 1265 1479 l 1
 1265 519 l 2
 1265 192 1098 -22 705 -22 c 0
EndSplineSet
EndChar

StartChar: Ugrave
Encoding: 217 217 137
Width: 1409
VWidth: 0
Flags: W
LayerCount: 2
Fore
SplineSet
576 2051 m 1
 761 1664 l 1
 649 1664 l 1
 326 2051 l 1
 576 2051 l 1
705 -22 m 0
 312 -22 145 192 145 521 c 2
 145 1479 l 1
 337 1479 l 1
 337 518 l 2
 337 250 440 130 705 130 c 0
 963 130 1073 250 1073 518 c 2
 1073 1479 l 1
 1265 1479 l 1
 1265 519 l 2
 1265 192 1098 -22 705 -22 c 0
EndSplineSet
EndChar

StartChar: Uhorn
Encoding: 431 431 138
Width: 1685
VWidth: 0
Flags: W
LayerCount: 2
Fore
SplineSet
1438 1156 m 0
 1409 1156 1377 1159 1346 1162 c 1
 1346 1256 l 1
 1361 1256 1379 1254 1396 1254 c 0
 1454 1254 1472 1299 1472 1354 c 0
 1472 1403 1457 1460 1442 1501 c 1
 1558 1501 l 1
 1579 1452 1590 1400 1590 1351 c 0
 1590 1245 1539 1156 1438 1156 c 0
705 -22 m 0
 312 -22 145 192 145 521 c 2
 145 1479 l 1
 337 1479 l 1
 337 518 l 2
 337 250 440 130 705 130 c 0
 963 130 1073 250 1073 518 c 2
 1073 1479 l 1
 1265 1479 l 1
 1265 519 l 2
 1265 192 1098 -22 705 -22 c 0
EndSplineSet
EndChar

StartChar: Uhungarumlaut
Encoding: 368 368 139
Width: 1409
VWidth: 0
Flags: W
LayerCount: 2
Fore
SplineSet
888 1999 m 1
 636 1664 l 1
 538 1664 l 1
 736 1999 l 1
 888 1999 l 1
1122 1999 m 1
 872 1664 l 1
 770 1664 l 1
 972 1999 l 1
 1122 1999 l 1
705 -22 m 0
 312 -22 145 192 145 521 c 2
 145 1479 l 1
 337 1479 l 1
 337 518 l 2
 337 250 440 130 705 130 c 0
 963 130 1073 250 1073 518 c 2
 1073 1479 l 1
 1265 1479 l 1
 1265 519 l 2
 1265 192 1098 -22 705 -22 c 0
EndSplineSet
EndChar

StartChar: Umacron
Encoding: 362 362 140
Width: 1409
VWidth: 0
Flags: W
LayerCount: 2
Fore
SplineSet
1105 1803 m 1
 1105 1664 l 1
 305 1664 l 1
 305 1803 l 1
 1105 1803 l 1
705 -22 m 0
 312 -22 145 192 145 521 c 2
 145 1479 l 1
 337 1479 l 1
 337 518 l 2
 337 250 440 130 705 130 c 0
 963 130 1073 250 1073 518 c 2
 1073 1479 l 1
 1265 1479 l 1
 1265 519 l 2
 1265 192 1098 -22 705 -22 c 0
EndSplineSet
EndChar

StartChar: Uogonek
Encoding: 370 370 141
Width: 1409
VWidth: 0
Flags: W
LayerCount: 2
Fore
SplineSet
650 -432 m 0
 542 -432 457 -370 457 -256 c 0
 457 -154 540 -75 629 -19 c 1
 290 7 145 214 145 521 c 2
 145 1479 l 1
 337 1479 l 1
 337 518 l 2
 337 250 440 130 705 130 c 0
 963 130 1073 250 1073 518 c 2
 1073 1479 l 1
 1265 1479 l 1
 1265 519 l 2
 1265 203 1109 -7 744 -21 c 1
 649 -93 582 -163 582 -227 c 0
 582 -280 629 -316 670 -316 c 0
 724 -316 756 -304 807 -283 c 1
 807 -400 l 1
 769 -416 704 -432 650 -432 c 0
EndSplineSet
EndChar

StartChar: Upsilon
Encoding: 933 933 142
Width: 1372
VWidth: 0
Flags: W
LayerCount: 2
Fore
SplineSet
685 751 m 1
 1101 1479 l 1
 1293 1479 l 1
 781 590 l 1
 781 0 l 1
 589 0 l 1
 589 586 l 1
 77 1479 l 1
 269 1479 l 1
 685 751 l 1
EndSplineSet
EndChar

StartChar: Upsilondieresis
Encoding: 939 939 143
Width: 1372
VWidth: 0
Flags: W
LayerCount: 2
Fore
SplineSet
485 1859 m 1
 485 1647 l 1
 331 1647 l 1
 331 1859 l 1
 485 1859 l 1
877 1859 m 1
 877 1647 l 1
 721 1647 l 1
 721 1859 l 1
 877 1859 l 1
685 751 m 1
 1101 1479 l 1
 1293 1479 l 1
 781 590 l 1
 781 0 l 1
 589 0 l 1
 589 586 l 1
 77 1479 l 1
 269 1479 l 1
 685 751 l 1
EndSplineSet
EndChar

StartChar: Upsilontonos
Encoding: 910 910 144
Width: 496
VWidth: 0
Flags: W
LayerCount: 2
Fore
SplineSet
245 532 m 0
 157 532 112 598 112 664 c 0
 112 730 157 796 245 796 c 0
 334 796 378 730 378 664 c 0
 378 598 334 532 245 532 c 0
EndSplineSet
EndChar

StartChar: Uring
Encoding: 366 366 145
Width: 1409
VWidth: 0
Flags: W
LayerCount: 2
Fore
SplineSet
706 1737 m 0
 757 1737 802 1788 802 1849 c 0
 802 1910 761 1964 706 1964 c 0
 655 1964 606 1910 606 1849 c 0
 606 1782 645 1737 706 1737 c 0
708 1664 m 0
 604 1664 510 1734 510 1849 c 0
 510 1968 605 2045 706 2045 c 0
 810 2045 900 1961 900 1849 c 0
 900 1734 807 1664 708 1664 c 0
705 -22 m 0
 312 -22 145 192 145 521 c 2
 145 1479 l 1
 337 1479 l 1
 337 518 l 2
 337 250 440 130 705 130 c 0
 963 130 1073 250 1073 518 c 2
 1073 1479 l 1
 1265 1479 l 1
 1265 519 l 2
 1265 192 1098 -22 705 -22 c 0
EndSplineSet
EndChar

StartChar: Utilde
Encoding: 360 360 146
Width: 1409
VWidth: 0
Flags: W
LayerCount: 2
Fore
SplineSet
500 1664 m 1
 394 1664 l 1
 394 1814 459 1883 566 1883 c 0
 690 1883 860 1789 860 1789 c 1
 900 1792 905 1841 908 1883 c 1
 1016 1883 l 1
 1016 1746 974 1664 868 1664 c 0
 778 1664 556 1761 556 1761 c 1
 523 1760 503 1719 500 1664 c 1
705 -22 m 0
 312 -22 145 192 145 521 c 2
 145 1479 l 1
 337 1479 l 1
 337 518 l 2
 337 250 440 130 705 130 c 0
 963 130 1073 250 1073 518 c 2
 1073 1479 l 1
 1265 1479 l 1
 1265 519 l 2
 1265 192 1098 -22 705 -22 c 0
EndSplineSet
EndChar

StartChar: V
Encoding: 86 86 147
Width: 1288
VWidth: 0
Flags: W
PickledData: "(dp1
S'com.typemytype.robofont.layerData'
p2
(dp3
s."
LayerCount: 2
Fore
SplineSet
734 0 m 1
 1284 1479 l 1
 1086 1479 l 1
 985 1195 756 544 756 544 c 1
 740 503 644 216 644 216 c 1
 644 216 548 499 533 541 c 2
 204 1479 l 1
 4 1479 l 1
 554 0 l 1
 734 0 l 1
EndSplineSet
EndChar

StartChar: W
Encoding: 87 87 148
Width: 2095
VWidth: 0
Flags: W
PickledData: "(dp1
S'com.typemytype.robofont.layerData'
p2
(dp3
s."
LayerCount: 2
Fore
SplineSet
951 1452 m 1
 1146 1452 l 1
 1502 243 l 1
 1864 1479 l 1
 2055 1479 l 1
 1608 0 l 1
 1408 0 l 1
 1056 1226 l 1
 680 0 l 1
 484 0 l 1
 40 1479 l 1
 232 1479 l 1
 586 244 l 1
 951 1452 l 1
1048 1479 m 0
EndSplineSet
EndChar

StartChar: Wacute
Encoding: 7810 7810 149
Width: 2202
VWidth: 0
Flags: W
LayerCount: 2
Fore
SplineSet
1415 2035 m 1
 1089 1647 l 1
 975 1647 l 1
 1161 2035 l 1
 1415 2035 l 1
1004 1452 m 1
 1199 1452 l 1
 1555 243 l 1
 1917 1479 l 1
 2108 1479 l 1
 1661 0 l 1
 1461 0 l 1
 1109 1226 l 1
 733 0 l 1
 537 0 l 1
 93 1479 l 1
 285 1479 l 1
 639 244 l 1
 1004 1452 l 1
EndSplineSet
EndChar

StartChar: Wcircumflex
Encoding: 372 372 150
Width: 2202
VWidth: 0
Flags: W
LayerCount: 2
Fore
SplineSet
1093 1933 m 1
 932 1661 l 1
 801 1661 l 1
 988 2049 l 1
 1201 2049 l 1
 1388 1661 l 1
 1254 1661 l 1
 1093 1933 l 1
1004 1452 m 1
 1199 1452 l 1
 1555 243 l 1
 1917 1479 l 1
 2108 1479 l 1
 1661 0 l 1
 1461 0 l 1
 1109 1226 l 1
 733 0 l 1
 537 0 l 1
 93 1479 l 1
 285 1479 l 1
 639 244 l 1
 1004 1452 l 1
EndSplineSet
EndChar

StartChar: Wdieresis
Encoding: 7812 7812 151
Width: 2202
VWidth: 0
Flags: W
LayerCount: 2
Fore
SplineSet
914 1859 m 1
 914 1647 l 1
 760 1647 l 1
 760 1859 l 1
 914 1859 l 1
1305 1859 m 1
 1305 1647 l 1
 1150 1647 l 1
 1150 1859 l 1
 1305 1859 l 1
1004 1452 m 1
 1199 1452 l 1
 1555 243 l 1
 1917 1479 l 1
 2108 1479 l 1
 1661 0 l 1
 1461 0 l 1
 1109 1226 l 1
 733 0 l 1
 537 0 l 1
 93 1479 l 1
 285 1479 l 1
 639 244 l 1
 1004 1452 l 1
EndSplineSet
EndChar

StartChar: Wgrave
Encoding: 7808 7808 152
Width: 2202
VWidth: 0
Flags: W
LayerCount: 2
Fore
SplineSet
903 2034 m 1
 1089 1647 l 1
 977 1647 l 1
 653 2034 l 1
 903 2034 l 1
1004 1452 m 1
 1199 1452 l 1
 1555 243 l 1
 1917 1479 l 1
 2108 1479 l 1
 1661 0 l 1
 1461 0 l 1
 1109 1226 l 1
 733 0 l 1
 537 0 l 1
 93 1479 l 1
 285 1479 l 1
 639 244 l 1
 1004 1452 l 1
EndSplineSet
EndChar

StartChar: X
Encoding: 88 88 153
Width: 1236
VWidth: 0
Flags: W
PickledData: "(dp1
S'com.typemytype.robofont.layerData'
p2
(dp3
s."
LayerCount: 2
Fore
SplineSet
718 746 m 1
 1210 1479 l 1
 1010 1479 l 1
 618 897 l 1
 226 1479 l 1
 26 1479 l 1
 518 746 l 1
 26 0 l 1
 226 0 l 1
 618 596 l 1
 1010 0 l 1
 1210 0 l 1
 718 746 l 1
EndSplineSet
EndChar

StartChar: Xi
Encoding: 926 926 154
Width: 496
VWidth: 0
Flags: W
LayerCount: 2
Fore
SplineSet
245 532 m 0
 157 532 112 598 112 664 c 0
 112 730 157 796 245 796 c 0
 334 796 378 730 378 664 c 0
 378 598 334 532 245 532 c 0
EndSplineSet
EndChar

StartChar: Y
Encoding: 89 89 155
Width: 1216
VWidth: 0
Flags: W
PickledData: "(dp1
S'com.typemytype.robofont.layerData'
p2
(dp3
s."
LayerCount: 2
Fore
SplineSet
608 751 m 1
 1024 1479 l 1
 1216 1479 l 1
 704 590 l 1
 704 0 l 1
 512 0 l 1
 512 586 l 1
 0 1479 l 1
 192 1479 l 1
 608 751 l 1
609 1479 m 0
EndSplineSet
EndChar

StartChar: Yacute
Encoding: 221 221 156
Width: 1372
VWidth: 0
Flags: W
LayerCount: 2
Fore
SplineSet
1067 2052 m 1
 742 1664 l 1
 628 1664 l 1
 814 2052 l 1
 1067 2052 l 1
685 751 m 1
 1101 1479 l 1
 1293 1479 l 1
 781 590 l 1
 781 0 l 1
 589 0 l 1
 589 586 l 1
 77 1479 l 1
 269 1479 l 1
 685 751 l 1
EndSplineSet
EndChar

StartChar: Ycircumflex
Encoding: 374 374 157
Width: 1372
VWidth: 0
Flags: W
LayerCount: 2
Fore
SplineSet
683 1934 m 1
 522 1662 l 1
 391 1662 l 1
 578 2050 l 1
 791 2050 l 1
 978 1662 l 1
 844 1662 l 1
 683 1934 l 1
685 751 m 1
 1101 1479 l 1
 1293 1479 l 1
 781 590 l 1
 781 0 l 1
 589 0 l 1
 589 586 l 1
 77 1479 l 1
 269 1479 l 1
 685 751 l 1
EndSplineSet
EndChar

StartChar: Ydieresis
Encoding: 376 376 158
Width: 1372
VWidth: 0
Flags: W
LayerCount: 2
Fore
SplineSet
567 1876 m 1
 567 1664 l 1
 413 1664 l 1
 413 1876 l 1
 567 1876 l 1
957 1876 m 1
 957 1664 l 1
 803 1664 l 1
 803 1876 l 1
 957 1876 l 1
685 751 m 1
 1101 1479 l 1
 1293 1479 l 1
 781 590 l 1
 781 0 l 1
 589 0 l 1
 589 586 l 1
 77 1479 l 1
 269 1479 l 1
 685 751 l 1
EndSplineSet
EndChar

StartChar: Ygrave
Encoding: 7922 7922 159
Width: 1372
VWidth: 0
Flags: W
LayerCount: 2
Fore
SplineSet
475 2034 m 1
 660 1647 l 1
 548 1647 l 1
 225 2034 l 1
 475 2034 l 1
685 751 m 1
 1101 1479 l 1
 1293 1479 l 1
 781 590 l 1
 781 0 l 1
 589 0 l 1
 589 586 l 1
 77 1479 l 1
 269 1479 l 1
 685 751 l 1
EndSplineSet
EndChar

StartChar: Z
Encoding: 90 90 160
Width: 1196
VWidth: 0
Flags: W
PickledData: "(dp1
S'com.typemytype.robofont.layerData'
p2
(dp3
s."
LayerCount: 2
Fore
SplineSet
113 1479 m 1
 1109 1479 l 1
 1109 1350 l 1
 300 154 l 1
 1116 154 l 1
 1110 0 l 1
 84 0 l 1
 84 136 l 1
 888 1325 l 1
 113 1325 l 1
 113 1479 l 1
599 1479 m 0
EndSplineSet
EndChar

StartChar: Zacute
Encoding: 377 377 161
Width: 1275
VWidth: 0
Flags: W
LayerCount: 2
Fore
SplineSet
1020 2052 m 1
 695 1664 l 1
 581 1664 l 1
 767 2052 l 1
 1020 2052 l 1
151 1479 m 1
 1147 1479 l 1
 1147 1350 l 1
 338 154 l 1
 1154 154 l 1
 1148 0 l 1
 122 0 l 1
 122 136 l 1
 926 1325 l 1
 151 1325 l 1
 151 1479 l 1
EndSplineSet
EndChar

StartChar: Zcaron
Encoding: 381 381 162
Width: 1274
VWidth: 0
Flags: W
LayerCount: 2
Fore
SplineSet
981 2049 m 1
 794 1661 l 1
 581 1661 l 1
 394 2049 l 1
 525 2049 l 1
 686 1737 l 1
 847 2049 l 1
 981 2049 l 1
151 1479 m 1
 1147 1479 l 1
 1147 1350 l 1
 338 154 l 1
 1154 154 l 1
 1148 0 l 1
 122 0 l 1
 122 136 l 1
 926 1325 l 1
 151 1325 l 1
 151 1479 l 1
EndSplineSet
EndChar

StartChar: Zdotaccent
Encoding: 379 379 163
Width: 1274
VWidth: 0
Flags: W
LayerCount: 2
Fore
SplineSet
554 1664 m 1
 554 1862 l 1
 722 1862 l 1
 722 1664 l 1
 554 1664 l 1
151 1479 m 1
 1147 1479 l 1
 1147 1350 l 1
 338 154 l 1
 1154 154 l 1
 1148 0 l 1
 122 0 l 1
 122 136 l 1
 926 1325 l 1
 151 1325 l 1
 151 1479 l 1
EndSplineSet
EndChar

StartChar: Zeta
Encoding: 918 918 164
Width: 1274
VWidth: 0
Flags: W
LayerCount: 2
Fore
SplineSet
151 1479 m 1
 1147 1479 l 1
 1147 1350 l 1
 338 154 l 1
 1154 154 l 1
 1148 0 l 1
 122 0 l 1
 122 136 l 1
 926 1325 l 1
 151 1325 l 1
 151 1479 l 1
EndSplineSet
EndChar

StartChar: a
Encoding: 97 97 165
Width: 1158
VWidth: 0
Flags: W
PickledData: "(dp1
S'com.typemytype.robofont.layerData'
p2
(dp3
s."
LayerCount: 2
Fore
SplineSet
857 0 m 1
 1012 0 l 1
 1012 726 l 2
 1012 1018 869 1120 601 1120 c 0
 459 1120 294 1082 199 1029 c 1
 207 1008 242 914 251 893 c 1
 354 943 500 974 606 974 c 0
 763 974 820 905 820 753 c 2
 820 656 l 1
 820 656 678 645 628 641 c 0
 315 618 116 525 116 289 c 0
 116 82 270 -23 469 -23 c 0
 611 -23 755 23 828 153 c 1
 833 127 851 26 857 0 c 1
308 288 m 0
 308 442 405 491 692 525 c 0
 717 528 820 539 820 539 c 1
 820 354 l 1
 785 203 639 112 484 112 c 0
 393 112 308 167 308 288 c 0
EndSplineSet
EndChar

StartChar: aacute
Encoding: 225 225 166
Width: 1151
VWidth: 0
Flags: W
PickledData: "(dp1
S'com.typemytype.robofont.layerData'
p2
(dp3
s."
LayerCount: 2
Fore
SplineSet
946 1671 m 1
 621 1283 l 1
 507 1283 l 1
 693 1671 l 1
 946 1671 l 1
484 112 m 0
 639 112 785 203 820 354 c 1
 820 539 l 1
 820 539 717 528 692 525 c 0
 405 491 308 442 308 288 c 0
 308 167 393 112 484 112 c 0
828 153 m 1
 755 23 611 -23 469 -23 c 0
 270 -23 116 82 116 289 c 0
 116 525 315 618 628 641 c 0
 678 645 820 656 820 656 c 1
 820 753 l 2
 820 905 763 974 606 974 c 0
 500 974 354 943 251 893 c 1
 242 914 207 1008 199 1029 c 1
 294 1082 459 1120 601 1120 c 0
 869 1120 1012 1018 1012 726 c 2
 1012 0 l 1
 857 0 l 1
 851 26 833 127 828 153 c 1
EndSplineSet
EndChar

StartChar: abreve
Encoding: 259 259 167
Width: 1157
VWidth: 0
Flags: W
LayerCount: 2
Fore
SplineSet
569 1283 m 0
 446 1283 320 1369 320 1541 c 1
 436 1541 l 1
 436 1445 496 1400 569 1400 c 0
 642 1400 705 1445 705 1541 c 1
 822 1541 l 1
 822 1369 693 1283 569 1283 c 0
491 112 m 0
 646 112 792 203 827 354 c 1
 827 539 l 1
 827 539 724 528 699 525 c 0
 412 491 315 442 315 288 c 0
 315 167 400 112 491 112 c 0
835 153 m 1
 762 23 618 -23 476 -23 c 0
 277 -23 123 82 123 289 c 0
 123 525 322 618 635 641 c 0
 685 645 827 656 827 656 c 1
 827 753 l 2
 827 905 770 974 613 974 c 0
 507 974 361 943 258 893 c 1
 249 914 214 1008 206 1029 c 1
 301 1082 466 1120 608 1120 c 0
 876 1120 1019 1018 1019 726 c 2
 1019 0 l 1
 864 0 l 1
 858 26 840 127 835 153 c 1
EndSplineSet
EndChar

StartChar: acircumflex
Encoding: 226 226 168
Width: 1151
VWidth: 0
Flags: W
PickledData: "(dp1
S'com.typemytype.robofont.layerData'
p2
(dp3
s."
LayerCount: 2
Fore
SplineSet
562 1555 m 1
 402 1283 l 1
 270 1283 l 1
 458 1671 l 1
 670 1671 l 1
 858 1283 l 1
 724 1283 l 1
 562 1555 l 1
484 112 m 0
 639 112 785 203 820 354 c 1
 820 539 l 1
 820 539 717 528 692 525 c 0
 405 491 308 442 308 288 c 0
 308 167 393 112 484 112 c 0
828 153 m 1
 755 23 611 -23 469 -23 c 0
 270 -23 116 82 116 289 c 0
 116 525 315 618 628 641 c 0
 678 645 820 656 820 656 c 1
 820 753 l 2
 820 905 763 974 606 974 c 0
 500 974 354 943 251 893 c 1
 242 914 207 1008 199 1029 c 1
 294 1082 459 1120 601 1120 c 0
 869 1120 1012 1018 1012 726 c 2
 1012 0 l 1
 857 0 l 1
 851 26 833 127 828 153 c 1
EndSplineSet
EndChar

StartChar: acute
Encoding: 180 180 169
Width: 639
VWidth: 0
Flags: W
LayerCount: 2
Fore
SplineSet
128 1250 m 1
 314 1638 l 1
 567 1638 l 1
 242 1250 l 1
 128 1250 l 1
347.5 1097 m 0
EndSplineSet
EndChar

StartChar: adieresis
Encoding: 228 228 170
Width: 1159
VWidth: 0
Flags: W
LayerCount: 2
Fore
SplineSet
454 1495 m 1
 454 1283 l 1
 300 1283 l 1
 300 1495 l 1
 454 1495 l 1
844 1495 m 1
 844 1283 l 1
 690 1283 l 1
 690 1495 l 1
 844 1495 l 1
492 112 m 0
 647 112 793 203 828 354 c 1
 828 539 l 1
 828 539 725 528 700 525 c 0
 413 491 316 442 316 288 c 0
 316 167 401 112 492 112 c 0
836 153 m 1
 763 23 619 -23 477 -23 c 0
 278 -23 124 82 124 289 c 0
 124 525 323 618 636 641 c 0
 686 645 828 656 828 656 c 1
 828 753 l 2
 828 905 771 974 614 974 c 0
 508 974 362 943 259 893 c 1
 250 914 215 1008 207 1029 c 1
 302 1082 467 1120 609 1120 c 0
 877 1120 1020 1018 1020 726 c 2
 1020 0 l 1
 865 0 l 1
 859 26 841 127 836 153 c 1
EndSplineSet
EndChar

StartChar: ae
Encoding: 230 230 171
Width: 1745
VWidth: 0
Flags: W
LayerCount: 2
Fore
SplineSet
448 -26 m 0
 274 -26 124 59 124 300 c 0
 124 564 392 596 695 613 c 1
 758 616 l 1
 758 781 l 2
 758 914 709 976 568 976 c 0
 431 976 295 938 212 894 c 1
 176 1032 l 1
 256 1078 414 1124 564 1124 c 0
 723 1124 851 1062 881 932 c 1
 954 1063 1091 1124 1236 1124 c 0
 1509 1124 1610 909 1610 684 c 0
 1610 588 1584 542 1423 534 c 2
 926 509 l 1
 942 275 1025 119 1238 119 c 0
 1367 119 1491 180 1561 229 c 1
 1613 108 l 1
 1532 38 1403 -25 1227 -25 c 0
 1083 -25 980 24 900 112 c 1
 782 39 604 -26 448 -26 c 0
460 113 m 0
 571 113 717 170 831 208 c 1
 786 290 761 386 755 499 c 1
 733 498 711 497 691 495 c 0
 370 471 292 410 292 291 c 0
 292 158 364 113 460 113 c 0
932 615 m 1
 1448 644 l 1
 1448 654 l 1
 1446 882 1380 984 1233 984 c 0
 1032 984 943 821 932 615 c 1
873 1097 m 0
EndSplineSet
EndChar

StartChar: aeacute
Encoding: 509 509 172
Width: 1745
VWidth: 0
Flags: W
LayerCount: 2
Fore
SplineSet
1170 1634 m 1
 846 1246 l 1
 732 1246 l 1
 918 1634 l 1
 1170 1634 l 1
448 -26 m 0
 274 -26 124 59 124 300 c 0
 124 564 392 596 695 613 c 1
 758 616 l 1
 758 781 l 2
 758 914 709 976 568 976 c 0
 431 976 295 938 212 894 c 1
 176 1032 l 1
 256 1078 414 1124 564 1124 c 0
 723 1124 851 1062 881 932 c 1
 954 1063 1091 1124 1236 1124 c 0
 1509 1124 1610 909 1610 684 c 0
 1610 588 1584 542 1423 534 c 2
 926 509 l 1
 942 275 1025 119 1238 119 c 0
 1367 119 1491 180 1561 229 c 1
 1613 108 l 1
 1532 38 1403 -25 1227 -25 c 0
 1083 -25 980 24 900 112 c 1
 782 39 604 -26 448 -26 c 0
460 113 m 0
 571 113 717 170 831 208 c 1
 786 290 761 386 755 499 c 1
 733 498 711 497 691 495 c 0
 370 471 292 410 292 291 c 0
 292 158 364 113 460 113 c 0
932 615 m 1
 1448 644 l 1
 1448 654 l 1
 1446 882 1380 984 1233 984 c 0
 1032 984 943 821 932 615 c 1
EndSplineSet
EndChar

StartChar: afii10017
Encoding: 1040 1040 173
Width: 1477
VWidth: 0
Flags: W
LayerCount: 2
Fore
SplineSet
521 617 m 1
 972 617 l 1
 972 617 761 1227 739 1303 c 1
 719 1237 521 617 521 617 c 1
1198 0 m 1
 1028 472 l 1
 463 472 l 1
 290 0 l 1
 99 0 l 1
 631 1479 l 1
 848 1479 l 1
 1379 0 l 1
 1198 0 l 1
EndSplineSet
EndChar

StartChar: afii10018
Encoding: 1041 1041 174
Width: 1190
VWidth: 0
Flags: W
PickledData: "(dp1
S'com.typemytype.robofont.layerData'
p2
(dp3
s."
LayerCount: 2
Fore
SplineSet
147 1496 m 1
 1032 1496 l 1
 1032 1341 l 1
 324 1341 l 1
 324 871 l 1
 638 871 l 2
 914 871 1106 742 1106 427 c 0
 1106 138 922 0 638 0 c 2
 147 0 l 1
 147 1496 l 1
924 429 m 0
 924 605 827 716 638 716 c 2
 324 716 l 1
 324 155 l 1
 638 155 l 2
 823 155 924 253 924 429 c 0
EndSplineSet
EndChar

StartChar: afii10019
Encoding: 1042 1042 175
Width: 1318
VWidth: 0
Flags: W
LayerCount: 2
Fore
SplineSet
150 0 m 1
 150 1496 l 1
 557 1496 l 2
 918 1496 1125 1395 1125 1131 c 0
 1125 988 1064 851 913 801 c 1
 1101 761 1187 585 1187 426 c 0
 1187 163 1033 0 644 0 c 2
 150 0 l 1
327 708 m 1
 327 142 l 1
 611 142 l 2
 871 142 1007 227 1007 428 c 0
 1007 616 886 708 662 708 c 2
 327 708 l 1
327 1349 m 1
 327 846 l 1
 642 846 l 2
 781 846 940 885 940 1096 c 0
 940 1321 774 1349 531 1349 c 2
 327 1349 l 1
EndSplineSet
EndChar

StartChar: afii10020
Encoding: 1043 1043 176
Width: 1105
VWidth: 0
Flags: W
PickledData: "(dp1
S'com.typemytype.robofont.layerData'
p2
(dp3
s."
LayerCount: 2
Fore
SplineSet
321 1341 m 1
 321 0 l 1
 128 0 l 1
 128 1496 l 1
 1087 1496 l 1
 1072 1341 l 1
 321 1341 l 1
553 1479 m 0
EndSplineSet
EndChar

StartChar: afii10021
Encoding: 1044 1044 177
Width: 1522
VWidth: 0
Flags: W
LayerCount: 2
Fore
SplineSet
1282 1496 m 1
 1282 152 l 1
 1398 152 l 1
 1398 -265 l 1
 1221 -265 l 1
 1221 0 l 1
 280 0 l 1
 280 -265 l 1
 103 -265 l 1
 103 152 l 1
 260 152 l 1
 612 1496 l 1
 1282 1496 l 1
456 152 m 1
 1105 152 l 1
 1105 1354 l 1
 756 1354 l 1
 456 152 l 1
EndSplineSet
EndChar

StartChar: afii10022
Encoding: 1045 1045 178
Width: 1181
VWidth: 0
Flags: W
LayerCount: 2
Fore
SplineSet
342 1326 m 1
 342 842 l 1
 982 842 l 1
 982 691 l 1
 342 691 l 1
 342 153 l 1
 1046 153 l 1
 1038 0 l 1
 150 0 l 1
 150 1479 l 1
 1046 1479 l 1
 1039 1326 l 1
 342 1326 l 1
591 1479 m 0
EndSplineSet
EndChar

StartChar: afii10023
Encoding: 1025 1025 179
Width: 1181
VWidth: 0
Flags: W
LayerCount: 2
Fore
SplineSet
430 1839 m 1
 430 1627 l 1
 276 1627 l 1
 276 1839 l 1
 430 1839 l 1
821 1839 m 1
 821 1627 l 1
 666 1627 l 1
 666 1839 l 1
 821 1839 l 1
342 1326 m 1
 342 842 l 1
 982 842 l 1
 982 691 l 1
 342 691 l 1
 342 153 l 1
 1046 153 l 1
 1038 0 l 1
 150 0 l 1
 150 1479 l 1
 1046 1479 l 1
 1039 1326 l 1
 342 1326 l 1
EndSplineSet
EndChar

StartChar: afii10024
Encoding: 1046 1046 180
Width: 2035
VWidth: 0
Flags: W
LayerCount: 2
Fore
SplineSet
933 789 m 1
 933 1497 l 1
 1109 1497 l 1
 1109 789 l 1
 1646 1497 l 1
 1859 1497 l 1
 1357 833 l 1
 1936 0 l 1
 1715 0 l 1
 1223 725 l 1
 1109 578 l 1
 1109 0 l 1
 933 0 l 1
 933 578 l 1
 828 716 l 1
 326 0 l 1
 104 0 l 1
 694 824 l 1
 182 1497 l 1
 393 1497 l 1
 933 789 l 1
EndSplineSet
EndChar

StartChar: afii10025
Encoding: 1047 1047 181
Width: 1221
VWidth: 0
Flags: W
LayerCount: 2
Fore
SplineSet
566 -23 m 0
 369 -23 216 34 116 103 c 1
 179 246 l 1
 265 183 411 129 563 129 c 0
 750 129 913 208 913 403 c 0
 913 543 817 677 570 677 c 2
 452 677 l 1
 452 837 l 1
 579 837 l 2
 792 837 879 1113 879 1113 c 1
 870 1280 741 1372 588 1372 c 0
 458 1372 310 1323 219 1270 c 1
 153 1403 l 1
 265 1488 419 1524 599 1524 c 0
 910 1524 1053 1295 1053 1134 c 0
 1053 955 945 807 816 769 c 1
 955 737 1089 587 1089 402 c 0
 1089 148 914 -23 566 -23 c 0
611 1479 m 0
611 0 m 0
EndSplineSet
EndChar

StartChar: afii10026
Encoding: 1048 1048 182
Width: 1494
VWidth: 0
Flags: W
LayerCount: 2
Fore
SplineSet
150 1497 m 1
 313 1497 l 1
 313 261 l 1
 574 659 846 1045 1112 1438 c 0
 1125 1458 1139 1477 1152 1497 c 1
 1345 1497 l 1
 1345 0 l 1
 1184 0 l 1
 1184 1230 l 1
 349 0 l 1
 150 0 l 1
 150 1497 l 1
747 1479 m 0
EndSplineSet
EndChar

StartChar: afii10027
Encoding: 1049 1049 183
Width: 1494
VWidth: 0
Flags: W
LayerCount: 2
Fore
SplineSet
150 1497 m 1
 313 1497 l 1
 313 261 l 1
 574 659 846 1045 1112 1438 c 0
 1125 1458 1139 1477 1152 1497 c 1
 1345 1497 l 1
 1345 0 l 1
 1184 0 l 1
 1184 1230 l 1
 349 0 l 1
 150 0 l 1
 150 1497 l 1
699 1681 m 0
 576 1681 450 1767 450 1939 c 1
 566 1939 l 1
 566 1843 626 1798 699 1798 c 0
 772 1798 835 1843 835 1939 c 1
 952 1939 l 1
 952 1767 823 1681 699 1681 c 0
EndSplineSet
EndChar

StartChar: afii10028
Encoding: 1050 1050 184
Width: 1341
VWidth: 0
Flags: W
LayerCount: 2
Fore
SplineSet
965 1479 m 1
 1207 1479 l 1
 608 816 l 1
 1238 0 l 1
 998 0 l 1
 456 710 l 1
 342 597 l 1
 342 0 l 1
 150 0 l 1
 150 1479 l 1
 342 1479 l 1
 342 804 l 1
 965 1479 l 1
671 1479 m 0
EndSplineSet
EndChar

StartChar: afii10029
Encoding: 1051 1051 185
Width: 1305
VWidth: 0
Flags: W
LayerCount: 2
Fore
SplineSet
979 0 m 1
 979 1341 l 1
 633 1341 l 1
 294 0 l 1
 107 0 l 1
 482 1496 l 1
 1156 1496 l 1
 1156 0 l 1
 979 0 l 1
EndSplineSet
EndChar

StartChar: afii10030
Encoding: 1052 1052 186
Width: 1771
VWidth: 0
Flags: W
LayerCount: 2
Fore
SplineSet
1404 1479 m 1
 1622 1479 l 1
 1622 0 l 1
 1454 0 l 1
 1454 890 l 1
 1461 1244 l 1
 1424 1143 l 1
 972 91 l 1
 803 91 l 1
 343 1147 l 1
 305 1248 l 1
 318 886 l 1
 318 0 l 1
 150 0 l 1
 150 1479 l 1
 374 1479 l 1
 887 301 l 1
 1404 1479 l 1
EndSplineSet
EndChar

StartChar: afii10031
Encoding: 1053 1053 187
Width: 1451
VWidth: 0
Flags: W
LayerCount: 2
Fore
SplineSet
1110 844 m 1
 1110 1479 l 1
 1302 1479 l 1
 1302 0 l 1
 1110 0 l 1
 1110 692 l 1
 342 692 l 1
 342 0 l 1
 150 0 l 1
 150 1479 l 1
 342 1479 l 1
 342 844 l 1
 1110 844 l 1
EndSplineSet
EndChar

StartChar: afii10032
Encoding: 1054 1054 188
Width: 1661
VWidth: 0
Flags: W
LayerCount: 2
Fore
SplineSet
829 -22 m 0
 373 -22 125 276 125 734 c 0
 125 1203 382 1501 830 1501 c 0
 1271 1501 1533 1200 1533 733 c 0
 1533 282 1279 -22 829 -22 c 0
829 130 m 0
 1179 130 1341 383 1341 733 c 0
 1341 1096 1172 1349 830 1349 c 0
 488 1349 317 1097 317 733 c 0
 317 383 480 130 829 130 c 0
EndSplineSet
EndChar

StartChar: afii10033
Encoding: 1055 1055 189
Width: 1468
VWidth: 0
Flags: W
LayerCount: 2
Fore
SplineSet
1142 0 m 1
 1142 1342 l 1
 327 1342 l 1
 327 0 l 1
 150 0 l 1
 150 1496 l 1
 1319 1496 l 1
 1319 0 l 1
 1142 0 l 1
EndSplineSet
EndChar

StartChar: afii10034
Encoding: 1056 1056 190
Width: 1234
VWidth: 0
Flags: W
LayerCount: 2
Fore
SplineSet
150 0 m 1
 150 1496 l 1
 644 1496 l 2
 928 1496 1112 1358 1112 1069 c 0
 1112 754 920 626 644 626 c 2
 327 626 l 1
 327 0 l 1
 150 0 l 1
327 1341 m 1
 327 779 l 1
 648 779 l 2
 839 779 932 889 932 1066 c 0
 932 1243 833 1341 648 1341 c 2
 327 1341 l 1
EndSplineSet
EndChar

StartChar: afii10035
Encoding: 1057 1057 191
Width: 1368
VWidth: 0
Flags: W
LayerCount: 2
Fore
SplineSet
802 -22 m 1
 378 -15 125 289 125 745 c 0
 125 1190 390 1504 834 1504 c 0
 1009 1504 1145 1464 1254 1394 c 1
 1196 1258 l 1
 1098 1317 968 1352 836 1352 c 0
 494 1352 310 1089 310 738 c 0
 310 389 476 130 840 130 c 0
 966 130 1097 168 1204 220 c 1
 1233 73 l 1
 1137 12 986 -22 822 -22 c 2
 802 -22 l 1
EndSplineSet
EndChar

StartChar: afii10036
Encoding: 1058 1058 192
Width: 1261
VWidth: 0
Flags: W
LayerCount: 2
Fore
SplineSet
1173 1479 m 1
 1173 1326 l 1
 725 1326 l 1
 725 0 l 1
 533 0 l 1
 533 1326 l 1
 85 1326 l 1
 85 1479 l 1
 1173 1479 l 1
EndSplineSet
EndChar

StartChar: afii10037
Encoding: 1059 1059 193
Width: 1372
VWidth: 0
Flags: W
LayerCount: 2
Fore
SplineSet
714 637 m 1
 1093 1496 l 1
 1290 1496 l 1
 616 0 l 1
 420 0 l 1
 607 466 l 1
 77 1496 l 1
 278 1496 l 1
 714 637 l 1
686 1479 m 0
EndSplineSet
EndChar

StartChar: afii10038
Encoding: 1060 1060 194
Width: 1768
VWidth: 0
Flags: W
LayerCount: 2
Fore
SplineSet
955 0 m 1
 792 0 l 1
 792 128 l 1
 360 165 119 391 119 745 c 0
 119 1099 360 1325 792 1362 c 1
 792 1496 l 1
 955 1496 l 1
 955 1364 l 1
 1381 1335 1644 1120 1644 745 c 0
 1644 370 1381 155 955 126 c 1
 955 0 l 1
792 285 m 1
 792 1205 l 1
 461 1170 308 1000 308 745 c 0
 308 489 461 320 792 285 c 1
955 1207 m 1
 955 284 l 1
 1301 316 1455 489 1455 745 c 0
 1455 1001 1301 1175 955 1207 c 1
EndSplineSet
EndChar

StartChar: afii10039
Encoding: 1061 1061 195
Width: 1406
VWidth: 0
Flags: W
LayerCount: 2
Fore
SplineSet
806 746 m 1
 1298 1479 l 1
 1098 1479 l 1
 706 897 l 1
 314 1479 l 1
 114 1479 l 1
 606 746 l 1
 114 0 l 1
 314 0 l 1
 706 596 l 1
 1098 0 l 1
 1298 0 l 1
 806 746 l 1
EndSplineSet
EndChar

StartChar: afii10040
Encoding: 1062 1062 196
Width: 1559
VWidth: 0
Flags: W
LayerCount: 2
Fore
SplineSet
327 1496 m 1
 327 155 l 1
 1142 155 l 1
 1142 1496 l 1
 1319 1496 l 1
 1319 155 l 1
 1435 155 l 1
 1435 -265 l 1
 1260 -265 l 1
 1260 0 l 1
 150 0 l 1
 150 1496 l 1
 327 1496 l 1
EndSplineSet
EndChar

StartChar: afii10041
Encoding: 1063 1063 197
Width: 1252
VWidth: 0
Flags: W
LayerCount: 2
Fore
SplineSet
1103 0 m 1
 926 0 l 1
 926 682 l 1
 846 564 688 507 549 507 c 0
 296 507 134 653 134 916 c 2
 134 1496 l 1
 311 1496 l 1
 311 1014 l 2
 311 775 401 672 586 672 c 0
 730 672 926 806 926 873 c 2
 926 1496 l 1
 1103 1496 l 1
 1103 0 l 1
EndSplineSet
EndChar

StartChar: afii10042
Encoding: 1064 1064 198
Width: 1676
VWidth: 0
Flags: W
LayerCount: 2
Fore
SplineSet
749 155 m 1
 749 1496 l 1
 926 1496 l 1
 926 155 l 1
 1350 155 l 1
 1350 1496 l 1
 1527 1496 l 1
 1527 0 l 1
 150 0 l 1
 150 1496 l 1
 327 1496 l 1
 327 155 l 1
 749 155 l 1
EndSplineSet
EndChar

StartChar: afii10043
Encoding: 1065 1065 199
Width: 1766
VWidth: 0
Flags: W
LayerCount: 2
Fore
SplineSet
327 1496 m 1
 327 155 l 1
 750 155 l 1
 750 1496 l 1
 927 1496 l 1
 927 155 l 1
 1351 155 l 1
 1351 1496 l 1
 1528 1496 l 1
 1528 155 l 1
 1642 155 l 1
 1642 -265 l 1
 1465 -265 l 1
 1465 0 l 1
 150 0 l 1
 150 1496 l 1
 327 1496 l 1
EndSplineSet
EndChar

StartChar: afii10044
Encoding: 1066 1066 200
Width: 1516
VWidth: 0
Flags: W
LayerCount: 2
Fore
SplineSet
645 1496 m 1
 645 849 l 1
 855 849 l 2
 1200 849 1395 717 1395 428 c 0
 1395 139 1200 0 855 0 c 2
 468 0 l 1
 468 1341 l 1
 83 1341 l 1
 83 1496 l 1
 645 1496 l 1
645 696 m 1
 645 156 l 1
 876 156 l 2
 1124 156 1229 255 1229 431 c 0
 1229 593 1128 696 876 696 c 2
 645 696 l 1
EndSplineSet
EndChar

StartChar: afii10045
Encoding: 1067 1067 201
Width: 1148
VWidth: 0
Flags: W
LayerCount: 2
Fore
SplineSet
327 1496 m 1
 327 849 l 1
 463 849 l 2
 804 849 1028 706 1028 435 c 0
 1028 173 844 0 470 0 c 2
 150 0 l 1
 150 1496 l 1
 327 1496 l 1
327 696 m 1
 327 155 l 1
 490 155 l 2
 743 155 861 255 861 431 c 0
 861 600 746 696 483 696 c 2
 327 696 l 1
EndSplineSet
EndChar

StartChar: afii10046
Encoding: 1068 1068 202
Width: 1148
VWidth: 0
Flags: W
LayerCount: 2
Fore
SplineSet
327 1496 m 1
 327 849 l 1
 463 849 l 2
 804 849 1028 706 1028 435 c 0
 1028 173 844 0 470 0 c 2
 150 0 l 1
 150 1496 l 1
 327 1496 l 1
327 696 m 1
 327 155 l 1
 490 155 l 2
 743 155 861 255 861 431 c 0
 861 600 746 696 483 696 c 2
 327 696 l 1
EndSplineSet
EndChar

StartChar: afii10047
Encoding: 1069 1069 203
Width: 1402
VWidth: 0
Flags: W
LayerCount: 2
Fore
SplineSet
570 -23 m 0
 373 -23 225 29 122 113 c 1
 186 248 l 1
 269 184 408 129 561 129 c 0
 881 129 1052 370 1081 664 c 1
 392 664 l 1
 392 818 l 1
 1083 818 l 1
 1065 1111 918 1373 550 1373 c 0
 400 1373 267 1316 185 1250 c 1
 127 1395 l 1
 228 1483 375 1525 573 1525 c 0
 1037 1525 1274 1180 1274 757 c 0
 1274 315 1031 -23 570 -23 c 0
EndSplineSet
EndChar

StartChar: afii10048
Encoding: 1070 1070 204
Width: 2072
VWidth: 0
Flags: W
LayerCount: 2
Fore
SplineSet
1292 -23 m 0
 896 -23 669 295 640 686 c 1
 327 686 l 1
 327 0 l 1
 150 0 l 1
 150 1495 l 1
 327 1495 l 1
 327 837 l 1
 643 837 l 1
 675 1240 896 1525 1283 1525 c 0
 1702 1525 1944 1189 1944 742 c 0
 1944 322 1712 -23 1292 -23 c 0
1294 129 m 0
 1603 129 1755 415 1755 748 c 0
 1755 1065 1603 1373 1285 1373 c 0
 977 1373 828 1073 828 746 c 0
 828 420 984 129 1294 129 c 0
EndSplineSet
EndChar

StartChar: afii10049
Encoding: 1071 1071 205
Width: 1387
VWidth: 0
Flags: W
LayerCount: 2
Fore
SplineSet
321 0 m 1
 118 0 l 1
 173 116 392 554 456 681 c 1
 287 745 182 882 182 1074 c 0
 182 1363 383 1496 752 1496 c 2
 1238 1496 l 1
 1238 0 l 1
 1061 0 l 1
 1061 639 l 1
 876 639 l 2
 724 639 673 645 634 648 c 1
 530 432 425 216 321 0 c 1
1061 792 m 1
 1061 1341 l 1
 711 1341 l 2
 458 1341 352 1248 352 1072 c 0
 352 903 430 792 711 792 c 2
 1061 792 l 1
EndSplineSet
EndChar

StartChar: afii10051
Encoding: 1026 1026 206
Width: 1240
VWidth: 0
Flags: W
LayerCount: 2
Fore
SplineSet
1155 1496 m 1
 1155 1341 l 1
 707 1341 l 1
 707 0 l 1
 530 0 l 1
 530 1341 l 1
 83 1341 l 1
 83 1496 l 1
 1155 1496 l 1
EndSplineSet
EndChar

StartChar: afii10052
Encoding: 1027 1027 207
Width: 1091
VWidth: 0
Flags: W
LayerCount: 2
Fore
SplineSet
327 1343 m 1
 327 0 l 1
 150 0 l 1
 150 1496 l 1
 1006 1496 l 1
 1006 1343 l 1
 327 1343 l 1
EndSplineSet
EndChar

StartChar: afii10053
Encoding: 1028 1028 208
Width: 1394
VWidth: 0
Flags: W
LayerCount: 2
Fore
SplineSet
829 -23 m 0
 368 -23 125 315 125 757 c 0
 125 1180 365 1525 835 1525 c 0
 1029 1525 1173 1483 1272 1395 c 1
 1214 1250 l 1
 1132 1316 999 1373 849 1373 c 0
 481 1373 334 1111 316 818 c 1
 1007 818 l 1
 1007 664 l 1
 318 664 l 1
 347 370 518 129 838 129 c 0
 991 129 1130 184 1213 248 c 1
 1277 113 l 1
 1174 29 1026 -23 829 -23 c 0
EndSplineSet
EndChar

StartChar: afii10054
Encoding: 1029 1029 209
Width: 1319
VWidth: 0
Flags: W
LayerCount: 2
Fore
SplineSet
667 -22 m 0
 407 -22 222 44 131 100 c 1
 183 244 l 1
 317 178 487 130 678 130 c 0
 890 130 1005 224 1005 426 c 0
 1005 546 954 627 764 675 c 2
 470 749 l 2
 264 801 133 911 133 1109 c 0
 133 1400 351 1501 679 1501 c 0
 862 1501 1024 1468 1126 1404 c 1
 1076 1269 l 1
 972 1319 847 1349 685 1349 c 0
 447 1349 317 1289 317 1121 c 0
 317 1004 391 941 535 906 c 2
 816 838 l 2
 1040 784 1189 676 1189 432 c 0
 1189 121 973 -22 667 -22 c 0
EndSplineSet
EndChar

StartChar: afii10055
Encoding: 1030 1030 210
Width: 475
VWidth: 0
Flags: W
LayerCount: 2
Fore
SplineSet
150 0 m 1
 150 1497 l 1
 326 1497 l 1
 326 0 l 1
 150 0 l 1
238 1479 m 0
EndSplineSet
EndChar

StartChar: afii10056
Encoding: 1031 1031 211
Width: 722
VWidth: 0
Flags: W
LayerCount: 2
Fore
SplineSet
232 1818 m 1
 232 1606 l 1
 78 1606 l 1
 78 1818 l 1
 232 1818 l 1
623 1818 m 1
 623 1606 l 1
 468 1606 l 1
 468 1818 l 1
 623 1818 l 1
299 0 m 1
 299 1497 l 1
 475 1497 l 1
 475 0 l 1
 299 0 l 1
EndSplineSet
EndChar

StartChar: afii10057
Encoding: 1032 1032 212
Width: 695
VWidth: 0
Flags: W
LayerCount: 2
Fore
SplineSet
110 -214 m 1
 89 -49 l 1
 163 -49 l 2
 345 -49 355 56 355 204 c 2
 355 1479 l 1
 547 1479 l 1
 547 241 l 2
 547 -67 497 -214 145 -214 c 2
 110 -214 l 1
EndSplineSet
EndChar

StartChar: afii10058
Encoding: 1033 1033 213
Width: 1929
VWidth: 0
Flags: W
LayerCount: 2
Fore
SplineSet
107 -26 m 1
 107 131 l 1
 153 131 l 2
 334 131 344 236 344 384 c 2
 344 1496 l 1
 1081 1496 l 1
 1081 871 l 1
 1340 871 l 2
 1616 871 1808 743 1808 428 c 0
 1808 139 1624 0 1340 0 c 2
 904 0 l 1
 904 1341 l 1
 521 1341 l 1
 521 433 l 2
 521 125 487 -26 135 -26 c 2
 107 -26 l 1
1081 717 m 1
 1081 155 l 1
 1340 155 l 2
 1505 155 1626 255 1626 431 c 0
 1626 607 1509 717 1340 717 c 2
 1081 717 l 1
EndSplineSet
EndChar

StartChar: afii10059
Encoding: 1034 1034 214
Width: 1736
VWidth: 0
Flags: W
LayerCount: 2
Fore
SplineSet
752 871 m 1
 752 1496 l 1
 929 1496 l 1
 929 871 l 1
 1147 871 l 2
 1423 871 1615 743 1615 428 c 0
 1615 139 1431 0 1147 0 c 2
 752 0 l 1
 752 716 l 1
 327 716 l 1
 327 0 l 1
 150 0 l 1
 150 1496 l 1
 327 1496 l 1
 327 871 l 1
 752 871 l 1
929 716 m 1
 929 160 l 1
 1147 160 l 2
 1312 160 1433 255 1433 431 c 0
 1433 607 1316 716 1147 716 c 2
 929 716 l 1
EndSplineSet
EndChar

StartChar: afii10060
Encoding: 1035 1035 215
Width: 1240
VWidth: 0
Flags: W
LayerCount: 2
Fore
SplineSet
1155 1496 m 1
 1155 1341 l 1
 707 1341 l 1
 707 0 l 1
 530 0 l 1
 530 1341 l 1
 83 1341 l 1
 83 1496 l 1
 1155 1496 l 1
EndSplineSet
EndChar

StartChar: afii10061
Encoding: 1036 1036 216
Width: 1342
VWidth: 0
Flags: W
LayerCount: 2
Fore
SplineSet
1042 2035 m 1
 718 1647 l 1
 604 1647 l 1
 790 2035 l 1
 1042 2035 l 1
965 1479 m 1
 1207 1479 l 1
 608 816 l 1
 1238 0 l 1
 998 0 l 1
 456 710 l 1
 342 597 l 1
 342 0 l 1
 150 0 l 1
 150 1479 l 1
 342 1479 l 1
 342 804 l 1
 965 1479 l 1
EndSplineSet
EndChar

StartChar: afii10062
Encoding: 1038 1038 217
Width: 1372
VWidth: 0
Flags: W
LayerCount: 2
Fore
SplineSet
714 637 m 1
 1093 1496 l 1
 1290 1496 l 1
 616 0 l 1
 420 0 l 1
 607 466 l 1
 77 1496 l 1
 278 1496 l 1
 714 637 l 1
588 1681 m 0
 465 1681 339 1767 339 1939 c 1
 455 1939 l 1
 455 1843 515 1798 588 1798 c 0
 661 1798 724 1843 724 1939 c 1
 841 1939 l 1
 841 1767 712 1681 588 1681 c 0
EndSplineSet
EndChar

StartChar: afii10066
Encoding: 1073 1073 219
Width: 1106
VWidth: 0
Flags: W
PickledData: "(dp1
S'com.typemytype.robofont.layerData'
p2
(dp3
s."
LayerCount: 2
Fore
SplineSet
320 655 m 1
 419 713 502 760 625 760 c 0
 880 760 1005 553 1005 388 c 0
 1005 151 858 -20 589 -20 c 0
 181 -20 128 389 128 532 c 0
 128 974 305 1302 857 1302 c 1
 880 1160 l 1
 552 1150 320 974 320 655 c 1
320 488 m 1
 320 211 457 123 588 123 c 0
 785 123 843 249 843 391 c 0
 843 482 778 623 631 623 c 0
 567 623 423 595 320 488 c 1
EndSplineSet
EndChar

StartChar: afii10067
Encoding: 1074 1074 220
Width: 1120
VWidth: 0
Flags: W
LayerCount: 2
Fore
SplineSet
143 0 m 1
 143 1098 l 1
 595 1098 l 2
 854 1098 962 956 962 808 c 0
 962 719 919 625 816 575 c 1
 936 524 991 412 996 316 c 1
 996 150 871 0 595 0 c 2
 143 0 l 1
311 500 m 1
 311 134 l 1
 604 134 l 2
 752 134 835 212 835 326 c 1
 830 410 752 500 604 500 c 2
 311 500 l 1
311 956 m 1
 311 637 l 1
 604 637 l 2
 737 637 802 719 802 796 c 0
 802 887 737 956 604 956 c 2
 311 956 l 1
EndSplineSet
EndChar

StartChar: afii10068
Encoding: 1075 1075 221
Width: 894
VWidth: 0
Flags: W
PickledData: "(dp1
S'com.typemytype.robofont.layerData'
p2
(dp3
s."
LayerCount: 2
Fore
SplineSet
320 956 m 1
 320 0 l 1
 128 0 l 1
 128 1098 l 1
 832 1098 l 1
 820 956 l 1
 320 956 l 1
397 1097 m 0
EndSplineSet
EndChar

StartChar: afii10069
Encoding: 1076 1076 222
Width: 1255
VWidth: 0
Flags: W
PickledData: "(dp1
S'com.typemytype.robofont.layerData'
p2
(dp3
s."
LayerCount: 2
Fore
SplineSet
106 -268 m 1
 106 136 l 1
 202 136 l 1
 278 196 280 335 288 495 c 2
 318 1098 l 1
 1088 1098 l 1
 1088 134 l 1
 1175 134 l 1
 1175 -268 l 1
 1012 -268 l 1
 1012 0 l 1
 264 0 l 1
 264 -268 l 1
 106 -268 l 1
896 956 m 1
 502 956 l 1
 480 524 l 1
 466 319 449 170 410 134 c 1
 896 134 l 1
 896 956 l 1
EndSplineSet
EndChar

StartChar: afii10071
Encoding: 1105 1105 224
Width: 1215
VWidth: 0
Flags: W
LayerCount: 2
Fore
SplineSet
395 1458 m 1
 395 1246 l 1
 241 1246 l 1
 241 1458 l 1
 395 1458 l 1
786 1458 m 1
 786 1246 l 1
 631 1246 l 1
 631 1458 l 1
 786 1458 l 1
650 -23 m 0
 332 -23 127 193 127 545 c 0
 127 885 320 1116 610 1120 c 1
 883 1120 1087 917 1087 608 c 0
 1087 583 1080 515 1080 515 c 1
 316 515 l 1
 320 263 462 123 671 123 c 0
 808 123 926 166 1023 217 c 1
 1049 71 l 1
 944 7 814 -23 650 -23 c 0
321 640 m 1
 906 640 l 1
 900 858 786 976 618 976 c 0
 447 976 340 849 321 640 c 1
EndSplineSet
EndChar

StartChar: afii10072
Encoding: 1078 1078 225
Width: 1706
VWidth: 0
Flags: W
LayerCount: 2
Fore
SplineSet
772 593 m 1
 772 1098 l 1
 937 1098 l 1
 937 593 l 1
 1382 1098 l 1
 1581 1098 l 1
 1089 562 l 1
 1591 0 l 1
 1388 0 l 1
 937 509 l 1
 937 0 l 1
 772 0 l 1
 772 509 l 1
 321 0 l 1
 118 0 l 1
 620 562 l 1
 128 1098 l 1
 327 1098 l 1
 772 593 l 1
EndSplineSet
EndChar

StartChar: afii10073
Encoding: 1079 1079 226
Width: 1050
VWidth: 0
Flags: W
LayerCount: 2
Fore
SplineSet
479 -25 m 0
 352 -25 202 6 125 86 c 1
 146 133 164 154 183 201 c 1
 251 144 371 114 491 114 c 0
 671 114 761 204 761 317 c 0
 761 408 688 502 533 502 c 2
 339 502 l 1
 339 633 l 1
 533 633 l 2
 671 633 727 727 727 806 c 0
 727 908 654 986 478 986 c 0
 362 986 231 937 183 890 c 1
 183 890 140 978 125 1013 c 1
 206 1096 355 1124 482 1124 c 0
 781 1124 890 972 890 819 c 0
 890 726 861 629 723 574 c 1
 874 532 920 419 925 311 c 1
 925 130 798 -25 479 -25 c 0
525 1097 m 0
525 0 m 0
EndSplineSet
EndChar

StartChar: afii10074
Encoding: 1080 1080 227
Width: 1172
VWidth: 0
Flags: W
LayerCount: 2
Fore
SplineSet
862 995 m 1
 862 1098 l 1
 1030 1098 l 1
 1030 0 l 1
 862 0 l 1
 862 746 l 1
 301 0 l 1
 143 0 l 1
 143 1098 l 1
 311 1098 l 1
 311 261 l 1
 862 995 l 1
586 1097 m 0
EndSplineSet
EndChar

StartChar: afii10075
Encoding: 1081 1081 228
Width: 1173
VWidth: 0
Flags: W
LayerCount: 2
Fore
SplineSet
863 995 m 1
 863 1098 l 1
 1031 1098 l 1
 1031 0 l 1
 863 0 l 1
 863 746 l 1
 302 0 l 1
 144 0 l 1
 144 1098 l 1
 312 1098 l 1
 312 261 l 1
 863 995 l 1
517 1299 m 0
 394 1299 268 1385 268 1557 c 1
 384 1557 l 1
 384 1461 444 1416 517 1416 c 0
 590 1416 653 1461 653 1557 c 1
 770 1557 l 1
 770 1385 641 1299 517 1299 c 0
EndSplineSet
EndChar

StartChar: afii10076
Encoding: 1082 1082 229
Width: 1134
VWidth: 0
Flags: W
PickledData: "(dp1
S'com.typemytype.robofont.layerData'
p2
(dp3
s."
LayerCount: 2
Fore
SplineSet
320 1098 m 1
 320 598 l 1
 746 1097 l 1
 997 1097 l 1
 484 541 l 1
 1052 0 l 1
 814 0 l 1
 320 482 l 1
 320 0 l 1
 128 0 l 1
 128 1098 l 1
 320 1098 l 1
576 1097 m 0
EndSplineSet
EndChar

StartChar: afii10077
Encoding: 1083 1083 230
Width: 1293
VWidth: 0
Flags: W
PickledData: "(dp1
S'com.typemytype.robofont.layerData'
p2
(dp3
s."
LayerCount: 2
Fore
SplineSet
896 0 m 1
 896 956 l 1
 502 956 l 1
 480 524 l 1
 448 148 403 0 226 0 c 2
 106 0 l 1
 106 136 l 1
 167 136 l 2
 264 136 280 335 288 495 c 2
 318 1098 l 1
 1088 1098 l 1
 1088 0 l 1
 896 0 l 1
EndSplineSet
EndChar

StartChar: afii10078
Encoding: 1084 1084 231
Width: 1234
VWidth: 0
Flags: W
PickledData: "(dp1
S'com.typemytype.robofont.layerData'
p2
(dp3
s."
LayerCount: 2
Fore
SplineSet
930 1098 m 1
 1097 1098 l 1
 1097 0 l 1
 929 0 l 1
 929 781 l 1
 677 225 l 1
 570 225 l 1
 305 781 l 1
 305 0 l 1
 137 0 l 1
 137 1098 l 1
 305 1098 l 1
 617 423 l 1
 930 1098 l 1
EndSplineSet
EndChar

StartChar: afii10079
Encoding: 1085 1085 232
Width: 1214
VWidth: 0
Flags: W
PickledData: "(dp1
S'com.typemytype.robofont.layerData'
p2
(dp3
s."
LayerCount: 2
Fore
SplineSet
879 653 m 1
 879 1098 l 1
 1071 1098 l 1
 1071 0 l 1
 879 0 l 1
 879 518 l 1
 335 518 l 1
 335 0 l 1
 143 0 l 1
 143 1098 l 1
 335 1098 l 1
 335 653 l 1
 879 653 l 1
EndSplineSet
EndChar

StartChar: afii10081
Encoding: 1087 1087 234
Width: 1172
VWidth: 0
Flags: W
LayerCount: 2
Fore
SplineSet
862 0 m 1
 862 956 l 1
 311 956 l 1
 311 0 l 1
 143 0 l 1
 143 1098 l 1
 1030 1098 l 1
 1030 0 l 1
 862 0 l 1
EndSplineSet
EndChar

StartChar: afii10082
Encoding: 1088 1088 235
Width: 1291
VWidth: 0
Flags: W
LayerCount: 2
Fore
SplineSet
143 1097 m 1
 316 1097 l 1
 335 918 l 1
 395 1048 534 1120 685 1120 c 0
 992 1120 1167 879 1167 543 c 0
 1167 216 972 -23 686 -23 c 0
 541 -23 403 48 330 150 c 1
 334 78 335 8 335 -60 c 2
 335 -465 l 1
 143 -476 l 1
 143 1097 l 1
655 118 m 0
 865 118 975 286 975 549 c 0
 975 806 869 978 656 978 c 0
 430 978 335 820 335 567 c 0
 335 282 419 118 655 118 c 0
EndSplineSet
EndChar

StartChar: afii10084
Encoding: 1090 1090 237
Width: 989
VWidth: 0
Flags: W
LayerCount: 2
Fore
SplineSet
872 1098 m 1
 872 956 l 1
 579 956 l 1
 579 0 l 1
 411 0 l 1
 411 956 l 1
 110 956 l 1
 110 1098 l 1
 872 1098 l 1
EndSplineSet
EndChar

StartChar: afii10085
Encoding: 1091 1091 238
Width: 1215
VWidth: 0
Flags: W
LayerCount: 2
Fore
SplineSet
183 -410 m 1
 157 -245 l 1
 230 -245 l 2
 438 -245 440 -210 517 30 c 1
 108 1098 l 1
 293 1098 l 1
 615 202 l 1
 920 1098 l 1
 1103 1098 l 1
 714 22 l 2
 598 -298 602 -410 240 -410 c 2
 183 -410 l 1
608 1097 m 0
EndSplineSet
EndChar

StartChar: afii10086
Encoding: 1092 1092 239
Width: 1479
VWidth: 0
Flags: W
LayerCount: 2
Fore
SplineSet
821 -195 m 1
 653 -195 l 1
 653 57 l 1
 606 38 556 32 511 32 c 0
 278 32 119 273 119 558 c 0
 119 844 275 1070 513 1070 c 0
 556 1070 606 1058 653 1039 c 1
 653 1312 l 1
 821 1312 l 1
 821 1039 l 1
 868 1058 915 1070 960 1070 c 0
 1197 1070 1356 844 1356 558 c 0
 1356 274 1195 32 961 32 c 0
 916 32 868 38 821 57 c 1
 821 -195 l 1
516 168 m 0
 559 168 605 174 653 196 c 1
 653 906 l 1
 602 931 556 934 513 934 c 0
 371 934 293 755 293 556 c 0
 293 359 374 168 516 168 c 0
957 168 m 0
 1098 168 1182 359 1182 556 c 0
 1182 755 1101 934 960 934 c 0
 915 934 872 927 821 902 c 1
 821 198 l 1
 869 173 914 168 957 168 c 0
EndSplineSet
EndChar

StartChar: afii10088
Encoding: 1094 1094 241
Width: 1192
VWidth: 0
Flags: W
LayerCount: 2
Fore
SplineSet
311 1098 m 1
 311 134 l 1
 804 134 l 1
 804 1098 l 1
 972 1098 l 1
 972 136 l 1
 1071 136 l 1
 1071 -269 l 1
 938 -269 l 1
 928 0 l 1
 143 0 l 1
 143 1098 l 1
 311 1098 l 1
EndSplineSet
EndChar

StartChar: afii10089
Encoding: 1095 1095 242
Width: 1135
VWidth: 0
Flags: W
PickledData: "(dp1
S'com.typemytype.robofont.layerData'
p2
(dp3
s."
LayerCount: 2
Fore
SplineSet
992 0 m 1
 800 0 l 1
 800 409 l 1
 800 409 648 395 520 395 c 0
 265 395 128 548 128 824 c 2
 128 1098 l 1
 320 1098 l 1
 320 842 l 2
 320 602 385 538 551 538 c 0
 664 538 800 552 800 552 c 1
 800 1098 l 1
 992 1098 l 1
 992 0 l 1
EndSplineSet
EndChar

StartChar: afii10090
Encoding: 1096 1096 243
Width: 1377
VWidth: 0
Flags: W
LayerCount: 2
Fore
SplineSet
605 144 m 1
 605 1098 l 1
 773 1098 l 1
 773 144 l 1
 1067 144 l 1
 1067 1098 l 1
 1235 1098 l 1
 1235 0 l 1
 143 0 l 1
 143 1098 l 1
 311 1098 l 1
 311 144 l 1
 605 144 l 1
EndSplineSet
EndChar

StartChar: afii10091
Encoding: 1097 1097 244
Width: 1455
VWidth: 0
Flags: W
LayerCount: 2
Fore
SplineSet
311 1098 m 1
 311 134 l 1
 605 134 l 1
 605 1098 l 1
 773 1098 l 1
 773 134 l 1
 1067 134 l 1
 1067 1098 l 1
 1235 1098 l 1
 1235 134 l 1
 1335 134 l 1
 1335 -238 l 1
 1198 -238 l 1
 1198 0 l 1
 143 0 l 1
 143 1098 l 1
 311 1098 l 1
EndSplineSet
EndChar

StartChar: afii10092
Encoding: 1098 1098 245
Width: 1302
VWidth: 0
Flags: W
LayerCount: 2
Fore
SplineSet
514 1098 m 1
 514 656 l 1
 804 656 l 2
 1071 656 1185 501 1185 337 c 0
 1185 166 1077 0 810 0 c 2
 346 0 l 1
 346 956 l 1
 112 956 l 1
 112 1098 l 1
 514 1098 l 1
514 520 m 1
 514 134 l 1
 831 134 l 2
 964 134 1023 245 1023 337 c 0
 1023 421 958 520 825 520 c 2
 514 520 l 1
EndSplineSet
EndChar

StartChar: afii10093
Encoding: 1099 1099 246
Width: 1033
VWidth: 0
Flags: W
LayerCount: 2
Fore
SplineSet
311 1098 m 1
 311 698 l 1
 536 698 l 2
 804 698 915 538 915 358 c 0
 915 178 811 0 543 0 c 2
 143 0 l 1
 143 1098 l 1
 311 1098 l 1
311 562 m 1
 311 134 l 1
 567 134 l 2
 699 134 753 262 753 361 c 0
 753 460 692 562 560 562 c 2
 311 562 l 1
EndSplineSet
EndChar

StartChar: afii10094
Encoding: 1100 1100 247
Width: 1033
VWidth: 0
Flags: W
LayerCount: 2
Fore
SplineSet
311 1098 m 1
 311 698 l 1
 536 698 l 2
 804 698 915 538 915 358 c 0
 915 178 811 0 543 0 c 2
 143 0 l 1
 143 1098 l 1
 311 1098 l 1
311 562 m 1
 311 134 l 1
 567 134 l 2
 699 134 753 262 753 361 c 0
 753 460 692 562 560 562 c 2
 311 562 l 1
EndSplineSet
EndChar

StartChar: afii10095
Encoding: 1101 1101 248
Width: 1110
VWidth: 0
Flags: W
LayerCount: 2
Fore
SplineSet
452 -25 m 0
 313 -25 195 11 127 70 c 1
 173 195 l 1
 265 139 354 113 442 113 c 0
 650 113 787 257 810 477 c 1
 347 477 l 1
 347 619 l 1
 810 619 l 1
 788 840 668 986 441 986 c 0
 333 986 239 945 172 902 c 1
 126 1024 l 1
 204 1091 331 1124 449 1124 c 0
 814 1124 987 853 987 545 c 0
 987 249 808 -25 452 -25 c 0
EndSplineSet
EndChar

StartChar: afii10096
Encoding: 1102 1102 249
Width: 1534
VWidth: 0
Flags: W
LayerCount: 2
Fore
SplineSet
951 -25 m 0
 644 -25 505 195 486 478 c 1
 311 478 l 1
 311 0 l 1
 143 0 l 1
 143 1098 l 1
 311 1098 l 1
 311 618 l 1
 486 618 l 1
 506 900 647 1124 954 1124 c 0
 1290 1124 1409 865 1409 549 c 0
 1409 245 1280 -25 951 -25 c 0
954 113 m 0
 1171 113 1235 323 1235 547 c 0
 1235 780 1178 986 951 986 c 0
 735 986 657 768 657 544 c 0
 657 323 734 113 954 113 c 0
EndSplineSet
EndChar

StartChar: afii10097
Encoding: 1103 1103 250
Width: 1130
VWidth: 0
Flags: W
LayerCount: 2
Fore
SplineSet
332 0 m 1
 132 0 l 1
 360 459 l 1
 205 507 132 634 132 762 c 0
 132 933 244 1098 513 1098 c 2
 988 1098 l 1
 988 0 l 1
 820 0 l 1
 820 439 l 1
 533 439 l 1
 332 0 l 1
820 579 m 1
 820 956 l 1
 502 956 l 2
 369 956 296 853 296 762 c 0
 296 678 369 579 502 579 c 2
 820 579 l 1
EndSplineSet
EndChar

StartChar: afii10099
Encoding: 1106 1106 251
Width: 1242
VWidth: 0
Flags: W
LayerCount: 2
Fore
SplineSet
720 -283 m 1
 708 -141 l 1
 751 -141 l 2
 923 -141 943 -110 943 104 c 2
 943 368 l 2
 943 616 910 739 723 739 c 0
 552 739 413 599 386 495 c 1
 386 0 l 1
 218 0 l 1
 218 1098 l 1
 124 1098 l 1
 124 1214 l 1
 218 1214 l 1
 218 1510 l 1
 386 1510 l 1
 386 1214 l 1
 801 1214 l 1
 801 1098 l 1
 386 1098 l 1
 386 713 l 1
 474 824 589 892 739 892 c 0
 996 892 1111 733 1111 445 c 2
 1111 158 l 2
 1111 -148 1088 -283 791 -283 c 2
 720 -283 l 1
EndSplineSet
EndChar

StartChar: afii10100
Encoding: 1107 1107 252
Width: 829
VWidth: 0
Flags: W
LayerCount: 2
Fore
SplineSet
723 1634 m 1
 398 1246 l 1
 284 1246 l 1
 470 1634 l 1
 723 1634 l 1
311 956 m 1
 311 0 l 1
 143 0 l 1
 143 1098 l 1
 677 1098 l 1
 677 956 l 1
 311 956 l 1
EndSplineSet
EndChar

StartChar: afii10101
Encoding: 1108 1108 253
Width: 1104
VWidth: 0
Flags: W
LayerCount: 2
Fore
SplineSet
654 -25 m 0
 298 -25 119 249 119 545 c 0
 119 853 292 1124 657 1124 c 0
 775 1124 902 1091 980 1024 c 1
 934 902 l 1
 867 945 773 986 665 986 c 0
 438 986 318 840 296 619 c 1
 759 619 l 1
 759 477 l 1
 296 477 l 1
 319 257 456 113 664 113 c 0
 752 113 841 139 933 195 c 1
 979 70 l 1
 911 11 793 -25 654 -25 c 0
EndSplineSet
EndChar

StartChar: afii10102
Encoding: 1109 1109 254
Width: 1024
VWidth: 0
Flags: W
LayerCount: 2
Fore
SplineSet
498 -23 m 0
 341 -23 211 16 138 63 c 1
 159 212 l 1
 232 173 356 123 487 123 c 0
 640 123 729 179 729 289 c 0
 729 386 686 418 485 491 c 2
 400 522 l 2
 206 593 132 684 131 821 c 1
 131 987 270 1120 518 1120 c 0
 648 1120 759 1094 857 1048 c 1
 808 910 l 1
 723 945 623 974 518 974 c 0
 379 974 312 919 312 826 c 0
 312 739 350 706 509 652 c 0
 534 644 561 634 592 624 c 0
 814 552 899 462 899 296 c 1
 896 91 738 -23 498 -23 c 0
EndSplineSet
EndChar

StartChar: afii10103
Encoding: 1110 1110 255
Width: 491
VWidth: 0
Flags: W
LayerCount: 2
Fore
SplineSet
150 0 m 1
 150 1097 l 1
 342 1097 l 1
 342 0 l 1
 150 0 l 1
150 1298 m 1
 150 1496 l 1
 342 1496 l 1
 342 1298 l 1
 150 1298 l 1
246 1097 m 0
EndSplineSet
EndChar

StartChar: afii10104
Encoding: 1111 1111 256
Width: 763
VWidth: 0
Flags: W
LayerCount: 2
Fore
SplineSet
255 1458 m 1
 255 1246 l 1
 101 1246 l 1
 101 1458 l 1
 255 1458 l 1
646 1458 m 1
 646 1246 l 1
 491 1246 l 1
 491 1458 l 1
 646 1458 l 1
338 0 m 1
 338 1098 l 1
 507 1098 l 1
 507 0 l 1
 338 0 l 1
EndSplineSet
EndChar

StartChar: afii10105
Encoding: 1112 1112 257
Width: 607
VWidth: 0
Flags: W
LayerCount: 2
Fore
SplineSet
72 -437 m 1
 50 -282 l 1
 102 -282 l 2
 253 -282 266 -241 266 -133 c 0
 266 -111 265 -86 265 -57 c 2
 265 1097 l 1
 457 1097 l 1
 457 -75 l 2
 457 -343 397 -437 124 -437 c 2
 72 -437 l 1
265 1298 m 1
 265 1496 l 1
 457 1496 l 1
 457 1298 l 1
 265 1298 l 1
EndSplineSet
EndChar

StartChar: afii10106
Encoding: 1113 1113 258
Width: 1811
VWidth: 0
Flags: W
LayerCount: 2
Fore
SplineSet
118 -25 m 1
 108 128 l 1
 155 128 l 2
 294 128 296 185 296 409 c 2
 296 1098 l 1
 1103 1098 l 1
 1103 698 l 1
 1314 698 l 2
 1582 698 1693 538 1693 358 c 0
 1693 178 1589 0 1321 0 c 2
 935 0 l 1
 935 956 l 1
 464 956 l 1
 464 419 l 2
 464 91 460 -25 155 -25 c 2
 118 -25 l 1
1103 562 m 1
 1103 134 l 1
 1345 134 l 2
 1477 134 1531 262 1531 361 c 0
 1531 460 1470 562 1338 562 c 2
 1103 562 l 1
EndSplineSet
EndChar

StartChar: afii10107
Encoding: 1114 1114 259
Width: 1665
VWidth: 0
Flags: W
LayerCount: 2
Fore
SplineSet
793 653 m 1
 793 1098 l 1
 961 1098 l 1
 961 698 l 1
 1168 698 l 2
 1436 698 1547 538 1547 358 c 0
 1547 178 1443 0 1175 0 c 2
 793 0 l 1
 793 518 l 1
 311 518 l 1
 311 0 l 1
 143 0 l 1
 143 1098 l 1
 311 1098 l 1
 311 653 l 1
 793 653 l 1
961 562 m 1
 961 134 l 1
 1199 134 l 2
 1331 134 1385 262 1385 361 c 0
 1385 460 1324 562 1192 562 c 2
 961 562 l 1
EndSplineSet
EndChar

StartChar: afii10108
Encoding: 1115 1115 260
Width: 1240
VWidth: 0
Flags: W
LayerCount: 2
Fore
SplineSet
218 1215 m 1
 218 1510 l 1
 386 1510 l 1
 386 1215 l 1
 801 1215 l 1
 801 1099 l 1
 386 1099 l 1
 386 713 l 1
 474 824 589 892 739 892 c 0
 996 892 1111 733 1111 445 c 2
 1111 0 l 1
 943 0 l 1
 943 368 l 2
 943 616 910 739 723 739 c 0
 552 739 413 599 386 495 c 1
 386 0 l 1
 218 0 l 1
 218 1099 l 1
 124 1099 l 1
 124 1215 l 1
 218 1215 l 1
EndSplineSet
EndChar

StartChar: afii10109
Encoding: 1116 1116 261
Width: 1135
VWidth: 0
Flags: W
LayerCount: 2
Fore
SplineSet
893 1634 m 1
 569 1246 l 1
 455 1246 l 1
 641 1634 l 1
 893 1634 l 1
311 1098 m 1
 311 605 l 1
 513 834 l 2
 686 1030 733 1110 888 1110 c 0
 915 1110 929 1105 965 1098 c 1
 965 947 l 1
 938 951 914 956 893 956 c 0
 798 956 716 805 552 642 c 2
 451 542 l 1
 1018 0 l 1
 791 0 l 1
 311 474 l 1
 311 0 l 1
 143 0 l 1
 143 1098 l 1
 311 1098 l 1
EndSplineSet
EndChar

StartChar: afii10110
Encoding: 1118 1118 262
Width: 1216
VWidth: 0
Flags: W
LayerCount: 2
Fore
SplineSet
505 1246 m 0
 382 1246 255 1332 255 1504 c 1
 371 1504 l 1
 371 1408 432 1363 505 1363 c 0
 578 1363 641 1408 641 1504 c 1
 757 1504 l 1
 757 1332 629 1246 505 1246 c 0
184 -410 m 1
 158 -245 l 1
 231 -245 l 2
 439 -245 441 -210 518 30 c 1
 109 1098 l 1
 294 1098 l 1
 616 202 l 1
 921 1098 l 1
 1104 1098 l 1
 715 22 l 2
 599 -298 603 -410 241 -410 c 2
 184 -410 l 1
EndSplineSet
EndChar

StartChar: afii10145
Encoding: 1039 1039 263
Width: 1468
VWidth: 0
Flags: W
LayerCount: 2
Fore
SplineSet
1142 154 m 1
 1142 1496 l 1
 1319 1496 l 1
 1319 0 l 1
 150 0 l 1
 150 1496 l 1
 327 1496 l 1
 327 154 l 1
 1142 154 l 1
EndSplineSet
EndChar

StartChar: afii10193
Encoding: 1119 1119 264
Width: 1127
VWidth: 0
Flags: W
LayerCount: 2
Fore
SplineSet
311 1098 m 1
 311 134 l 1
 817 134 l 1
 817 1098 l 1
 985 1098 l 1
 985 0 l 1
 664 0 l 1
 657 -278 l 1
 521 -278 l 1
 516 0 l 1
 143 0 l 1
 143 1098 l 1
 311 1098 l 1
EndSplineSet
EndChar

StartChar: afii57929
Encoding: 700 700 265
Width: 504
VWidth: 0
Flags: W
LayerCount: 2
Fore
SplineSet
133 1102 m 1
 226 1574 l 1
 383 1574 l 1
 249 1102 l 1
 133 1102 l 1
EndSplineSet
EndChar

StartChar: afii61352
Encoding: 8470 8470 266
Width: 2733
VWidth: 0
Flags: W
LayerCount: 2
Fore
SplineSet
633 -23 m 0
 946 -23 1145 219 1145 548 c 0
 1145 883 957 1120 633 1120 c 0
 309 1120 121 883 121 548 c 0
 121 219 320 -23 633 -23 c 0
633 974 m 0
 859 974 953 790 953 546 c 0
 953 306 860 123 633 123 c 0
 406 123 313 306 313 546 c 0
 313 790 407 974 633 974 c 0
2422 241 m 1
 2422 241 2416 560 2416 610 c 2
 2416 1479 l 1
 2584 1479 l 1
 2584 0 l 1
 2388 0 l 1
 2103 414 1811 821 1530 1239 c 1
 1530 1239 1536 983 1536 864 c 2
 1536 0 l 1
 1368 0 l 1
 1368 1479 l 1
 1561 1479 l 1
 1847 1066 2139 658 2422 241 c 1
EndSplineSet
EndChar

StartChar: agrave
Encoding: 224 224 267
Width: 1159
VWidth: 0
Flags: W
LayerCount: 2
Fore
SplineSet
446 1670 m 1
 631 1283 l 1
 519 1283 l 1
 196 1670 l 1
 446 1670 l 1
495 112 m 0
 650 112 796 203 831 354 c 1
 831 539 l 1
 831 539 728 528 703 525 c 0
 416 491 319 442 319 288 c 0
 319 167 404 112 495 112 c 0
839 153 m 1
 766 23 622 -23 480 -23 c 0
 281 -23 127 82 127 289 c 0
 127 525 326 618 639 641 c 0
 689 645 831 656 831 656 c 1
 831 753 l 2
 831 905 774 974 617 974 c 0
 511 974 365 943 262 893 c 1
 253 914 218 1008 210 1029 c 1
 305 1082 470 1120 612 1120 c 0
 880 1120 1023 1018 1023 726 c 2
 1023 0 l 1
 868 0 l 1
 862 26 844 127 839 153 c 1
EndSplineSet
EndChar

StartChar: alpha
Encoding: 945 945 268
Width: 496
VWidth: 0
Flags: W
LayerCount: 2
Fore
SplineSet
245 532 m 0
 157 532 112 598 112 664 c 0
 112 730 157 796 245 796 c 0
 334 796 378 730 378 664 c 0
 378 598 334 532 245 532 c 0
248 1097 m 0
EndSplineSet
EndChar

StartChar: alphatonos
Encoding: 940 940 269
Width: 496
VWidth: 0
Flags: W
LayerCount: 2
Fore
SplineSet
245 532 m 0
 157 532 112 598 112 664 c 0
 112 730 157 796 245 796 c 0
 334 796 378 730 378 664 c 0
 378 598 334 532 245 532 c 0
EndSplineSet
EndChar

StartChar: amacron
Encoding: 257 257 270
Width: 1171
VWidth: 0
Flags: W
LayerCount: 2
Fore
SplineSet
979 1422 m 1
 979 1283 l 1
 179 1283 l 1
 179 1422 l 1
 979 1422 l 1
499 112 m 0
 654 112 800 203 835 354 c 1
 835 539 l 1
 835 539 732 528 707 525 c 0
 420 491 323 442 323 288 c 0
 323 167 408 112 499 112 c 0
843 153 m 1
 770 23 626 -23 484 -23 c 0
 285 -23 131 82 131 289 c 0
 131 525 330 618 643 641 c 0
 693 645 835 656 835 656 c 1
 835 753 l 2
 835 905 778 974 621 974 c 0
 515 974 369 943 266 893 c 1
 257 914 222 1008 214 1029 c 1
 309 1082 474 1120 616 1120 c 0
 884 1120 1027 1018 1027 726 c 2
 1027 0 l 1
 872 0 l 1
 866 26 848 127 843 153 c 1
EndSplineSet
EndChar

StartChar: ampersand
Encoding: 38 38 271
Width: 1383
VWidth: 0
Flags: W
PickledData: "(dp1
S'com.typemytype.robofont.layerData'
p2
(dp3
s."
LayerCount: 2
Fore
SplineSet
580 -23 m 0
 237 -23 64 138 64 395 c 0
 64 612 201 738 401 839 c 1
 298 952 228 1034 228 1165 c 0
 228 1365 381 1489 617 1489 c 0
 821 1489 1006 1389 1006 1182 c 0
 1006 1006 856 892 667 804 c 1
 1068 375 l 1
 1125 435 1174 518 1210 599 c 1
 1331 507 l 1
 1291 419 1236 332 1172 257 c 1
 1353 41 l 1
 1302 22 1247 4 1196 -11 c 1
 1060 143 l 1
 936 43 780 -23 580 -23 c 0
589 132 m 0
 732 132 848 182 945 259 c 1
 796 418 653 567 504 726 c 1
 352 649 241 554 241 406 c 0
 241 235 370 132 589 132 c 0
565 910 m 1
 701 977 818 1043 818 1171 c 0
 818 1287 725 1345 620 1345 c 0
 498 1345 415 1280 415 1165 c 0
 415 1066 477 995 565 910 c 1
EndSplineSet
EndChar

StartChar: aogonek
Encoding: 261 261 272
Width: 1153
VWidth: 0
Flags: W
LayerCount: 2
Fore
SplineSet
571 -433 m 0
 463 -433 378 -371 378 -257 c 0
 378 -154 463 -74 554 -18 c 1
 528 -22 501 -23 474 -23 c 0
 275 -23 121 82 121 289 c 0
 121 525 320 618 633 641 c 0
 683 645 825 656 825 656 c 1
 825 753 l 2
 825 905 768 974 611 974 c 0
 505 974 359 943 256 893 c 1
 247 914 212 1008 204 1029 c 1
 299 1082 464 1120 606 1120 c 0
 874 1120 1017 1018 1017 726 c 2
 1017 0 l 1
 862 0 l 1
 856 26 838 127 833 153 c 1
 782 63 697 13 603 -9 c 1
 683 -9 l 1
 579 -86 503 -160 503 -228 c 0
 503 -281 550 -317 591 -317 c 0
 645 -317 677 -305 728 -284 c 1
 728 -401 l 1
 690 -417 625 -433 571 -433 c 0
489 112 m 0
 644 112 790 203 825 354 c 1
 825 539 l 1
 825 539 722 528 697 525 c 0
 410 491 313 442 313 288 c 0
 313 167 398 112 489 112 c 0
EndSplineSet
EndChar

StartChar: approxequal
Encoding: 8776 8776 273
Width: 1294
VWidth: 0
Flags: W
LayerCount: 2
Fore
SplineSet
228 280 m 1
 127 312 l 1
 160 484 258 589 417 589 c 0
 510 589 597 545 676 500 c 0
 755 456 826 411 887 411 c 0
 975 411 1029 476 1069 589 c 1
 1167 558 l 1
 1135 393 1056 282 884 282 c 0
 800 282 717 317 604 385 c 1
 536 428 476 459 416 459 c 0
 315 459 260 388 228 280 c 1
228 684 m 1
 125 712 l 1
 157 882 258 988 416 988 c 0
 504 988 583 950 678 893 c 0
 770 837 828 810 885 810 c 0
 973 810 1027 873 1066 988 c 1
 1165 959 l 1
 1133 793 1050 684 881 684 c 0
 794 684 713 718 602 787 c 0
 534 830 473 860 413 860 c 0
 312 860 257 792 228 684 c 1
EndSplineSet
EndChar

StartChar: aring
Encoding: 229 229 274
Width: 1155
VWidth: 0
Flags: W
LayerCount: 2
Fore
SplineSet
570 1356 m 0
 621 1356 666 1407 666 1468 c 0
 666 1529 625 1583 570 1583 c 0
 519 1583 472 1529 472 1468 c 0
 472 1401 509 1356 570 1356 c 0
572 1283 m 0
 468 1283 376 1353 376 1468 c 0
 376 1587 469 1664 570 1664 c 0
 674 1664 764 1580 764 1468 c 0
 764 1353 671 1283 572 1283 c 0
490 112 m 0
 645 112 791 203 826 354 c 1
 826 539 l 1
 826 539 723 528 698 525 c 0
 411 491 314 442 314 288 c 0
 314 167 399 112 490 112 c 0
834 153 m 1
 761 23 617 -23 475 -23 c 0
 276 -23 122 82 122 289 c 0
 122 525 321 618 634 641 c 0
 684 645 826 656 826 656 c 1
 826 753 l 2
 826 905 769 974 612 974 c 0
 506 974 360 943 257 893 c 1
 248 914 213 1008 205 1029 c 1
 300 1082 465 1120 607 1120 c 0
 875 1120 1018 1018 1018 726 c 2
 1018 0 l 1
 863 0 l 1
 857 26 839 127 834 153 c 1
EndSplineSet
EndChar

StartChar: aringacute
Encoding: 507 507 275
Width: 1155
VWidth: 0
Flags: W
LayerCount: 2
Fore
SplineSet
952 2215 m 1
 627 1827 l 1
 513 1827 l 1
 699 2215 l 1
 952 2215 l 1
570 1356 m 0
 621 1356 666 1407 666 1468 c 0
 666 1529 625 1583 570 1583 c 0
 519 1583 472 1529 472 1468 c 0
 472 1401 509 1356 570 1356 c 0
572 1283 m 0
 468 1283 376 1353 376 1468 c 0
 376 1587 469 1664 570 1664 c 0
 674 1664 764 1580 764 1468 c 0
 764 1353 671 1283 572 1283 c 0
490 112 m 0
 645 112 791 203 826 354 c 1
 826 539 l 1
 826 539 723 528 698 525 c 0
 411 491 314 442 314 288 c 0
 314 167 399 112 490 112 c 0
834 153 m 1
 761 23 617 -23 475 -23 c 0
 276 -23 122 82 122 289 c 0
 122 525 321 618 634 641 c 0
 684 645 826 656 826 656 c 1
 826 753 l 2
 826 905 769 974 612 974 c 0
 506 974 360 943 257 893 c 1
 248 914 213 1008 205 1029 c 1
 300 1082 465 1120 607 1120 c 0
 875 1120 1018 1018 1018 726 c 2
 1018 0 l 1
 863 0 l 1
 857 26 839 127 834 153 c 1
EndSplineSet
EndChar

StartChar: asciicircum
Encoding: 94 94 276
Width: 1257
VWidth: 0
Flags: W
PickledData: "(dp1
S'com.typemytype.robofont.layerData'
p2
(dp3
s."
LayerCount: 2
Fore
SplineSet
120 589 m 1
 565 1516 l 1
 667 1516 l 1
 1137 589 l 1
 994 589 l 1
 616 1335 l 1
 265 589 l 1
 120 589 l 1
EndSplineSet
EndChar

StartChar: asciitilde
Encoding: 126 126 277
Width: 1245
VWidth: 0
Flags: W
LayerCount: 2
Fore
SplineSet
162 503 m 1
 110 608 l 1
 157 719 246 806 381 806 c 0
 463 806 529 783 628 739 c 0
 724 697 803 659 863 659 c 0
 945 659 1024 728 1071 815 c 1
 1127 719 l 1
 1077 597 988 517 858 517 c 0
 782 517 709 544 623 583 c 0
 522 629 448 663 377 663 c 0
 287 663 208 590 162 503 c 1
EndSplineSet
EndChar

StartChar: asterisk
Encoding: 42 42 278
Width: 1160
VWidth: 0
Flags: W
LayerCount: 2
Fore
SplineSet
163 1262 m 1
 520 1111 l 1
 483 1522 l 1
 669 1522 l 1
 633 1111 l 1
 992 1262 l 1
 1042 1091 l 1
 675 1008 l 1
 716 953 845 786 927 675 c 1
 876 642 824 614 773 581 c 1
 573 943 l 1
 384 581 l 1
 228 675 l 1
 476 1008 l 1
 113 1091 l 1
 163 1262 l 1
EndSplineSet
EndChar

StartChar: at
Encoding: 64 64 279
Width: 1796
VWidth: 0
Flags: W
PickledData: "(dp1
S'com.typemytype.robofont.layerData'
p2
(dp3
s."
LayerCount: 2
Fore
SplineSet
876 -131 m 0
 413 -131 102 163 102 645 c 0
 102 1126 449 1492 942 1492 c 0
 1370 1492 1694 1216 1694 784 c 0
 1694 460 1486 259 1281 259 c 0
 1174 259 1096 321 1081 430 c 1
 1036 366 943 268 813 268 c 0
 640 268 529 401 529 616 c 0
 529 881 677 1099 947 1099 c 0
 1042 1099 1166 1073 1251 1044 c 1
 1223 846 1186 644 1186 523 c 0
 1186 426 1225 381 1297 381 c 0
 1426 381 1563 558 1563 791 c 0
 1563 1151 1298 1368 933 1368 c 0
 524 1368 236 1064 236 649 c 0
 236 236 493 -5 877 -5 c 0
 1039 -5 1192 33 1323 108 c 1
 1358 -3 l 1
 1232 -88 1064 -131 876 -131 c 0
832 396 m 0
 981 396 1044 535 1068 730 c 0
 1078 805 1086 882 1094 958 c 1
 1057 971 996 978 948 978 c 0
 758 978 671 810 671 609 c 0
 671 482 721 396 832 396 c 0
EndSplineSet
EndChar

StartChar: atilde
Encoding: 227 227 280
Width: 1151
VWidth: 0
Flags: W
PickledData: "(dp1
S'com.typemytype.robofont.layerData'
p2
(dp3
s."
LayerCount: 2
Fore
SplineSet
360 1283 m 1
 252 1283 l 1
 252 1433 317 1502 424 1502 c 0
 548 1502 720 1408 720 1408 c 1
 760 1411 763 1460 766 1502 c 1
 876 1502 l 1
 876 1365 832 1283 726 1283 c 0
 636 1283 414 1380 414 1380 c 1
 381 1379 363 1338 360 1283 c 1
484 112 m 0
 639 112 785 203 820 354 c 1
 820 539 l 1
 820 539 717 528 692 525 c 0
 405 491 308 442 308 288 c 0
 308 167 393 112 484 112 c 0
828 153 m 1
 755 23 611 -23 469 -23 c 0
 270 -23 116 82 116 289 c 0
 116 525 315 618 628 641 c 0
 678 645 820 656 820 656 c 1
 820 753 l 2
 820 905 763 974 606 974 c 0
 500 974 354 943 251 893 c 1
 242 914 207 1008 199 1029 c 1
 294 1082 459 1120 601 1120 c 0
 869 1120 1012 1018 1012 726 c 2
 1012 0 l 1
 857 0 l 1
 851 26 833 127 828 153 c 1
EndSplineSet
EndChar

StartChar: b
Encoding: 98 98 281
Width: 1284
VWidth: 0
Flags: W
PickledData: "(dp1
S'com.typemytype.robofont.layerData'
p2
(dp3
s."
LayerCount: 2
Fore
SplineSet
164 0 m 1
 337 0 l 1
 356 179 l 1
 416 49 555 -23 706 -23 c 0
 1013 -23 1188 218 1188 554 c 0
 1188 881 993 1120 707 1120 c 0
 562 1120 424 1049 351 947 c 1
 355 1019 356 1089 356 1157 c 2
 356 1573 l 1
 164 1557 l 1
 164 0 l 1
676 979 m 0
 886 979 996 811 996 548 c 0
 996 291 890 119 677 119 c 0
 451 119 356 277 356 530 c 0
 356 815 440 979 676 979 c 0
EndSplineSet
EndChar

StartChar: backslash
Encoding: 92 92 282
Width: 935
VWidth: 0
Flags: W
LayerCount: 2
Fore
SplineSet
687 -60 m 1
 88 1464 l 1
 244 1464 l 1
 843 -60 l 1
 687 -60 l 1
EndSplineSet
EndChar

StartChar: bar
Encoding: 124 124 283
Width: 447
VWidth: 0
Flags: W
LayerCount: 2
Fore
SplineSet
151 -400 m 1
 151 1579 l 1
 296 1579 l 1
 296 -400 l 1
 151 -400 l 1
EndSplineSet
EndChar

StartChar: beta
Encoding: 946 946 284
Width: 496
VWidth: 0
Flags: W
LayerCount: 2
Fore
SplineSet
245 532 m 0
 157 532 112 598 112 664 c 0
 112 730 157 796 245 796 c 0
 334 796 378 730 378 664 c 0
 378 598 334 532 245 532 c 0
EndSplineSet
EndChar

StartChar: braceleft
Encoding: 123 123 285
Width: 788
VWidth: 0
Flags: W
LayerCount: 2
Fore
SplineSet
680 -143 m 1
 680 -281 l 1
 428 -280 328 -170 328 62 c 2
 328 269 l 2
 328 440 300 556 114 556 c 1
 114 701 l 1
 325 704 328 801 328 987 c 2
 328 1230 l 2
 328 1438 452 1539 680 1539 c 1
 680 1401 l 1
 532 1399 493 1338 493 1173 c 2
 493 908 l 2
 493 786 435 702 308 626 c 1
 442 583 493 469 493 349 c 2
 493 84 l 2
 493 -85 533 -141 680 -143 c 1
EndSplineSet
EndChar

StartChar: braceright
Encoding: 125 125 286
Width: 798
VWidth: 0
Flags: W
LayerCount: 2
Fore
SplineSet
111 -281 m 1
 111 -143 l 1
 256 -141 298 -85 298 84 c 2
 298 349 l 2
 298 477 343 539 482 632 c 1
 348 674 298 789 298 908 c 2
 298 1173 l 2
 298 1338 258 1399 111 1401 c 1
 111 1539 l 1
 360 1539 463 1426 463 1195 c 2
 463 987 l 2
 463 815 485 703 678 701 c 1
 678 556 l 1
 491 556 463 440 463 269 c 2
 463 27 l 2
 463 -179 345 -280 111 -281 c 1
EndSplineSet
EndChar

StartChar: bracketleft
Encoding: 91 91 287
Width: 707
VWidth: 0
Flags: W
LayerCount: 2
Fore
SplineSet
323 1351 m 1
 323 -161 l 1
 603 -161 l 1
 603 -293 l 1
 150 -293 l 1
 150 1483 l 1
 603 1483 l 1
 603 1351 l 1
 323 1351 l 1
EndSplineSet
EndChar

StartChar: bracketright
Encoding: 93 93 288
Width: 709
VWidth: 0
Flags: W
LayerCount: 2
Fore
SplineSet
106 1351 m 1
 106 1483 l 1
 559 1483 l 1
 559 -293 l 1
 106 -293 l 1
 106 -161 l 1
 386 -161 l 1
 386 1351 l 1
 106 1351 l 1
EndSplineSet
EndChar

StartChar: breve
Encoding: 728 728 289
Width: 754
VWidth: 0
Flags: W
LayerCount: 2
Fore
SplineSet
377 1299 m 0
 254 1299 128 1385 128 1557 c 1
 244 1557 l 1
 244 1461 304 1416 377 1416 c 0
 450 1416 513 1461 513 1557 c 1
 630 1557 l 1
 630 1385 501 1299 377 1299 c 0
379 1097 m 0
EndSplineSet
EndChar

StartChar: brokenbar
Encoding: 166 166 290
Width: 439
VWidth: 0
Flags: W
LayerCount: 2
Fore
SplineSet
147 -399 m 1
 147 310 l 1
 293 310 l 1
 293 -399 l 1
 147 -399 l 1
147 872 m 1
 147 1579 l 1
 293 1579 l 1
 293 872 l 1
 147 872 l 1
EndSplineSet
EndChar

StartChar: bullet
Encoding: 8226 8226 291
Width: 831
VWidth: 0
Flags: W
LayerCount: 2
Fore
SplineSet
411 415 m 0
 245 415 116 567 116 747 c 0
 116 931 257 1086 415 1086 c 0
 576 1086 710 934 710 753 c 0
 710 569 572 415 411 415 c 0
EndSplineSet
EndChar

StartChar: c
Encoding: 99 99 292
Width: 983
VWidth: 0
Flags: W
PickledData: "(dp1
S'com.typemytype.robofont.layerData'
p2
(dp3
s."
LayerCount: 2
Fore
SplineSet
604 -23 m 0
 295 -23 92 214 92 545 c 0
 92 890 303 1120 611 1120 c 0
 726 1120 841 1088 901 1044 c 1
 855 914 l 1
 777 956 709 974 636 974 c 0
 405 974 284 805 284 544 c 0
 284 291 401 123 636 123 c 0
 731 123 790 151 869 192 c 1
 894 56 l 1
 821 3 714 -23 604 -23 c 0
488 1097 m 0
488 0 m 0
EndSplineSet
EndChar

StartChar: cacute
Encoding: 263 263 293
Width: 1058
VWidth: 0
Flags: W
LayerCount: 2
Fore
SplineSet
905 1671 m 1
 581 1283 l 1
 467 1283 l 1
 653 1671 l 1
 905 1671 l 1
631 -23 m 0
 322 -23 119 214 119 545 c 0
 119 890 330 1120 638 1120 c 0
 753 1120 868 1088 928 1044 c 1
 882 914 l 1
 804 956 736 974 663 974 c 0
 432 974 311 805 311 544 c 0
 311 291 428 123 663 123 c 0
 758 123 817 151 896 192 c 1
 921 56 l 1
 848 3 741 -23 631 -23 c 0
EndSplineSet
EndChar

StartChar: caron
Encoding: 711 711 294
Width: 800
VWidth: 0
Flags: W
LayerCount: 2
Fore
SplineSet
295 1251 m 1
 108 1639 l 1
 239 1639 l 1
 400 1327 l 1
 561 1639 l 1
 695 1639 l 1
 508 1251 l 1
 295 1251 l 1
401.5 1097 m 0
EndSplineSet
EndChar

StartChar: ccaron
Encoding: 269 269 295
Width: 1061
VWidth: 0
Flags: W
LayerCount: 2
Fore
SplineSet
823 1671 m 1
 636 1283 l 1
 423 1283 l 1
 236 1671 l 1
 367 1671 l 1
 528 1359 l 1
 689 1671 l 1
 823 1671 l 1
637 -23 m 0
 328 -23 125 214 125 545 c 0
 125 890 336 1120 644 1120 c 0
 759 1120 874 1088 934 1044 c 1
 888 914 l 1
 810 956 742 974 669 974 c 0
 438 974 317 805 317 544 c 0
 317 291 434 123 669 123 c 0
 764 123 823 151 902 192 c 1
 927 56 l 1
 854 3 747 -23 637 -23 c 0
EndSplineSet
EndChar

StartChar: ccedilla
Encoding: 231 231 296
Width: 1008
VWidth: 0
Flags: W
PickledData: "(dp1
S'com.typemytype.robofont.layerData'
p2
(dp3
s."
LayerCount: 2
Fore
SplineSet
553 -19 m 1
 511 -435 l 1
 357 -435 l 1
 469 -9 l 1
 493 -9 l 1
 256 47 107 261 107 545 c 0
 107 890 318 1120 626 1120 c 0
 741 1120 856 1088 916 1044 c 1
 870 914 l 1
 792 956 724 974 651 974 c 0
 420 974 299 805 299 544 c 0
 299 291 416 123 651 123 c 0
 746 123 805 151 884 192 c 1
 909 56 l 1
 836 3 729 -23 619 -23 c 0
 597 -23 574 -21 553 -19 c 1
EndSplineSet
EndChar

StartChar: ccircumflex
Encoding: 265 265 297
Width: 1060
VWidth: 0
Flags: W
LayerCount: 2
Fore
SplineSet
528 1555 m 1
 367 1283 l 1
 236 1283 l 1
 423 1671 l 1
 636 1671 l 1
 823 1283 l 1
 689 1283 l 1
 528 1555 l 1
637 -23 m 0
 328 -23 125 214 125 545 c 0
 125 890 336 1120 644 1120 c 0
 759 1120 874 1088 934 1044 c 1
 888 914 l 1
 810 956 742 974 669 974 c 0
 438 974 317 805 317 544 c 0
 317 291 434 123 669 123 c 0
 764 123 823 151 902 192 c 1
 927 56 l 1
 854 3 747 -23 637 -23 c 0
EndSplineSet
EndChar

StartChar: cdotaccent
Encoding: 267 267 298
Width: 1052
VWidth: 0
Flags: W
LayerCount: 2
Fore
SplineSet
439 1283 m 1
 439 1481 l 1
 607 1481 l 1
 607 1283 l 1
 439 1283 l 1
631 -23 m 0
 322 -23 119 214 119 545 c 0
 119 890 330 1120 638 1120 c 0
 753 1120 868 1088 928 1044 c 1
 882 914 l 1
 804 956 736 974 663 974 c 0
 432 974 311 805 311 544 c 0
 311 291 428 123 663 123 c 0
 758 123 817 151 896 192 c 1
 921 56 l 1
 848 3 741 -23 631 -23 c 0
EndSplineSet
EndChar

StartChar: cedilla
Encoding: 184 184 299
Width: 596
VWidth: 0
Flags: W
LayerCount: 2
Fore
SplineSet
114 -410 m 1
 226 16 l 1
 312 16 l 1
 268 -410 l 1
 114 -410 l 1
213 0 m 0
EndSplineSet
EndChar

StartChar: cent
Encoding: 162 162 300
Width: 1074
VWidth: 0
Flags: W
LayerCount: 2
Fore
SplineSet
692 1 m 1
 597 1 l 1
 597 170 l 1
 289 196 120 452 120 742 c 1
 122 1029 300 1288 597 1314 c 1
 597 1496 l 1
 692 1496 l 1
 692 1314 l 1
 800 1307 891 1273 946 1221 c 1
 904 1102 l 1
 836 1148 762 1170 692 1176 c 1
 692 307 l 1
 777 315 851 350 905 388 c 1
 947 268 l 1
 884 210 788 177 692 170 c 1
 692 1 l 1
597 310 m 1
 597 1174 l 1
 420 1147 291 970 291 737 c 0
 291 510 411 340 597 310 c 1
EndSplineSet
EndChar

StartChar: chi
Encoding: 967 967 301
Width: 1261
VWidth: 0
Flags: W
LayerCount: 2
Fore
SplineSet
629 685 m 1
 923 1097 l 1
 1134 1097 l 1
 737 556 l 1
 1144 0 l 1
 939 0 l 1
 630 435 l 1
 321 0 l 1
 119 0 l 1
 521 558 l 1
 134 1097 l 1
 336 1097 l 1
 629 685 l 1
EndSplineSet
EndChar

StartChar: circumflex
Encoding: 710 710 302
Width: 800
VWidth: 0
Flags: W
LayerCount: 2
Fore
SplineSet
108 1251 m 1
 295 1639 l 1
 508 1639 l 1
 695 1251 l 1
 561 1251 l 1
 400 1523 l 1
 239 1251 l 1
 108 1251 l 1
401.5 1097 m 0
EndSplineSet
EndChar

StartChar: colon
Encoding: 58 58 303
Width: 479
VWidth: 0
Flags: W
LayerCount: 2
Fore
SplineSet
137 -25 m 1
 137 208 l 1
 343 208 l 1
 343 -25 l 1
 137 -25 l 1
137 893 m 1
 137 1124 l 1
 343 1124 l 1
 343 893 l 1
 137 893 l 1
EndSplineSet
EndChar

StartChar: comma
Encoding: 44 44 304
Width: 480
VWidth: 0
Flags: W
LayerCount: 2
Fore
SplineSet
215 -278 m 1
 110 -278 l 1
 126 -129 154 92 162 234 c 1
 359 234 l 1
 359 190 l 1
 324 49 267 -130 215 -278 c 1
EndSplineSet
EndChar

StartChar: commaaccentcomb
Encoding: 806 806 305
Width: 415
VWidth: 0
Flags: W
LayerCount: 2
Fore
SplineSet
67 -648 m 1
 162 -150 l 1
 327 -150 l 1
 183 -648 l 1
 67 -648 l 1
240 0 m 1
 240 0 l 1
197 0 m 0
EndSplineSet
EndChar

StartChar: copyright
Encoding: 169 169 306
Width: 1837
VWidth: 0
Flags: W
LayerCount: 2
Fore
SplineSet
917 270 m 0
 641 270 442 489 442 785 c 0
 442 1081 634 1301 927 1301 c 0
 1047 1301 1153 1268 1235 1211 c 1
 1175 1114 l 1
 1113 1158 1011 1182 918 1182 c 0
 684 1182 578 997 578 789 c 0
 578 564 690 387 937 387 c 0
 1029 387 1143 420 1199 459 c 1
 1238 352 l 1
 1168 307 1041 270 917 270 c 0
910 67 m 0
 1361 67 1596 387 1596 778 c 0
 1596 1168 1358 1493 905 1493 c 0
 476 1493 238 1169 238 783 c 0
 238 389 477 67 910 67 c 0
910 -26 m 0
 518 -26 125 242 125 781 c 0
 125 1318 513 1586 905 1586 c 0
 1320 1586 1709 1316 1709 781 c 0
 1709 242 1325 -26 910 -26 c 0
EndSplineSet
EndChar

StartChar: currency
Encoding: 164 164 307
Width: 1297
VWidth: 0
Flags: W
LayerCount: 2
Fore
SplineSet
1167 306 m 1
 1098 232 l 1
 911 408 l 1
 838 349 749 315 649 315 c 0
 548 315 458 348 386 408 c 1
 202 233 l 1
 129 305 l 1
 314 482 l 1
 261 554 231 640 231 732 c 0
 231 823 261 908 314 981 c 1
 128 1160 l 1
 202 1232 l 1
 386 1057 l 1
 459 1117 550 1150 649 1150 c 0
 749 1150 838 1116 911 1056 c 1
 1098 1232 l 1
 1168 1158 l 1
 984 981 l 1
 1037 906 1067 821 1067 732 c 0
 1067 638 1038 553 985 482 c 1
 1167 306 l 1
649 423 m 0
 821 423 959 562 959 732 c 0
 959 902 820 1042 649 1042 c 0
 478 1042 340 902 340 732 c 0
 340 561 478 423 649 423 c 0
EndSplineSet
EndChar

StartChar: d
Encoding: 100 100 308
Width: 1280
VWidth: 0
Flags: W
PickledData: "(dp1
S'com.typemytype.robofont.layerData'
p2
(dp3
s."
LayerCount: 2
Fore
SplineSet
604 979 m 0
 394 979 284 811 284 548 c 0
 284 291 390 119 603 119 c 0
 829 119 924 277 924 530 c 0
 924 815 840 979 604 979 c 0
1116 0 m 1
 943 0 l 1
 924 179 l 1
 864 49 725 -23 574 -23 c 0
 267 -23 92 218 92 554 c 0
 92 887 287 1120 573 1120 c 0
 718 1120 856 1049 929 947 c 1
 925 1019 924 1089 924 1157 c 2
 924 1557 l 1
 1116 1573 l 1
 1116 0 l 1
621 549 m 0
EndSplineSet
EndChar

StartChar: dagger
Encoding: 8224 8224 309
Width: 952
VWidth: 0
Flags: W
LayerCount: 2
Fore
SplineSet
404 1149 m 1
 404 1561 l 1
 534 1561 l 1
 534 1149 l 1
 841 1149 l 1
 841 1047 l 1
 534 1047 l 1
 534 121 l 1
 404 121 l 1
 404 1047 l 1
 106 1047 l 1
 106 1149 l 1
 404 1149 l 1
EndSplineSet
EndChar

StartChar: daggerdbl
Encoding: 8225 8225 310
Width: 1013
VWidth: 0
Flags: W
LayerCount: 2
Fore
SplineSet
441 604 m 1
 441 1059 l 1
 140 1059 l 1
 140 1199 l 1
 441 1199 l 1
 441 1561 l 1
 571 1561 l 1
 571 1199 l 1
 878 1199 l 1
 878 1059 l 1
 571 1059 l 1
 571 604 l 1
 871 604 l 1
 871 467 l 1
 571 467 l 1
 571 121 l 1
 441 121 l 1
 441 467 l 1
 135 467 l 1
 135 604 l 1
 441 604 l 1
EndSplineSet
EndChar

StartChar: dcaron
Encoding: 271 271 311
Width: 1723
VWidth: 0
Flags: W
LayerCount: 2
Fore
SplineSet
1638 1573 m 1
 1504 1101 l 1
 1388 1101 l 1
 1482 1573 l 1
 1638 1573 l 1
632 979 m 0
 422 979 312 811 312 548 c 0
 312 291 418 119 631 119 c 0
 857 119 952 277 952 530 c 0
 952 815 868 979 632 979 c 0
1144 0 m 1
 971 0 l 1
 952 179 l 1
 892 49 753 -23 602 -23 c 0
 295 -23 120 218 120 554 c 0
 120 887 315 1120 601 1120 c 0
 746 1120 884 1049 957 947 c 1
 953 1019 952 1089 952 1157 c 2
 952 1557 l 1
 1144 1573 l 1
 1144 0 l 1
EndSplineSet
EndChar

StartChar: dcroat
Encoding: 273 273 312
Width: 1312
VWidth: 0
Flags: W
LayerCount: 2
Fore
SplineSet
141 1229 m 1
 141 1341 l 1
 649 1341 l 1
 649 1229 l 1
 141 1229 l 1
651 979 m 0
 441 979 331 811 331 548 c 0
 331 291 437 119 650 119 c 0
 876 119 971 277 971 530 c 0
 971 815 887 979 651 979 c 0
1163 0 m 1
 990 0 l 1
 971 179 l 1
 911 49 772 -23 621 -23 c 0
 314 -23 139 218 139 554 c 0
 139 887 334 1120 620 1120 c 0
 765 1120 903 1049 976 947 c 1
 972 1019 971 1089 971 1157 c 2
 971 1557 l 1
 1163 1573 l 1
 1163 0 l 1
EndSplineSet
EndChar

StartChar: degree
Encoding: 176 176 313
Width: 842
VWidth: 0
Flags: W
LayerCount: 2
Fore
SplineSet
420 1010 m 0
 523 1010 609 1097 609 1205 c 0
 609 1314 523 1399 420 1399 c 0
 318 1399 231 1314 231 1205 c 0
 231 1096 317 1010 420 1010 c 0
419 889 m 0
 249 889 108 1031 108 1205 c 0
 108 1378 249 1519 419 1519 c 0
 590 1519 731 1378 731 1205 c 0
 731 1037 595 889 419 889 c 0
EndSplineSet
EndChar

StartChar: delta
Encoding: 948 948 314
Width: 496
VWidth: 0
Flags: W
LayerCount: 2
Fore
SplineSet
245 532 m 0
 157 532 112 598 112 664 c 0
 112 730 157 796 245 796 c 0
 334 796 378 730 378 664 c 0
 378 598 334 532 245 532 c 0
EndSplineSet
EndChar

StartChar: dieresis
Encoding: 168 168 315
Width: 770
VWidth: 0
Flags: W
LayerCount: 2
Fore
SplineSet
118 1254 m 1
 118 1466 l 1
 272 1466 l 1
 272 1254 l 1
 118 1254 l 1
508 1254 m 1
 508 1466 l 1
 663 1466 l 1
 663 1254 l 1
 508 1254 l 1
390.5 1097 m 0
EndSplineSet
EndChar

StartChar: dieresistonos
Encoding: 901 901 316
Width: 468
VWidth: 0
Flags: W
LayerCount: 2
Fore
SplineSet
237 532 m 0
 149 532 104 598 104 664 c 0
 104 730 149 796 237 796 c 0
 326 796 370 730 370 664 c 0
 370 598 326 532 237 532 c 0
237 1097 m 0
EndSplineSet
EndChar

StartChar: divide
Encoding: 247 247 317
Width: 1230
VWidth: 0
Flags: W
LayerCount: 2
Fore
SplineSet
505 22 m 1
 505 249 l 1
 696 249 l 1
 696 22 l 1
 505 22 l 1
111 523 m 1
 111 672 l 1
 1112 672 l 1
 1112 523 l 1
 111 523 l 1
505 939 m 1
 505 1166 l 1
 730 1166 l 1
 730 939 l 1
 505 939 l 1
EndSplineSet
EndChar

StartChar: dollar
Encoding: 36 36 318
Width: 1282
VWidth: 0
Flags: W
PickledData: "(dp1
S'com.typemytype.robofont.layerData'
p2
(dp3
s."
LayerCount: 2
Fore
SplineSet
694 -195 m 1
 694 -20 l 1
 971 -4 1122 140 1122 432 c 0
 1122 676 936 774 718 848 c 1
 562 900 l 2
 422 947 330 1004 330 1121 c 0
 330 1275 448 1348 633 1348 c 1
 818 1344 913 1315 1009 1269 c 1
 1059 1404 l 1
 965 1463 809 1495 694 1500 c 1
 694 1693 l 1
 600 1693 l 1
 600 1500 l 1
 346 1485 146 1384 146 1109 c 0
 146 911 296 812 497 743 c 2
 666 685 l 2
 851 621 938 546 938 426 c 0
 938 238 878 131 647 131 c 0
 430 131 318 184 196 244 c 1
 144 100 l 1
 230 47 411 -13 600 -21 c 1
 600 -195 l 1
 694 -195 l 1
EndSplineSet
EndChar

StartChar: dotaccent
Encoding: 729 729 319
Width: 411
VWidth: 0
Flags: W
LayerCount: 2
Fore
SplineSet
122 1298 m 1
 122 1496 l 1
 290 1496 l 1
 290 1298 l 1
 122 1298 l 1
206 1097 m 0
EndSplineSet
EndChar

StartChar: dotlessi
Encoding: 305 305 320
Width: 454
VWidth: 0
Flags: W
LayerCount: 2
Fore
SplineSet
143 0 m 1
 143 1098 l 1
 312 1098 l 1
 312 0 l 1
 143 0 l 1
227 1097 m 0
409 10 m 0
EndSplineSet
EndChar

StartChar: e
Encoding: 101 101 321
Width: 1121
VWidth: 0
Flags: W
PickledData: "(dp1
S'com.typemytype.robofont.layerData'
p2
(dp3
s."
LayerCount: 2
Fore
SplineSet
615 -23 m 0
 297 -23 92 193 92 545 c 0
 92 885 298 1117 588 1120 c 0
 590 1120 592 1120 594 1120 c 0
 876 1120 1039 915 1039 608 c 0
 1039 583 1032 515 1032 515 c 1
 281 515 l 1
 285 263 434 123 643 123 c 0
 780 123 891 166 988 217 c 1
 1014 71 l 1
 909 7 779 -23 615 -23 c 0
286 640 m 1
 858 640 l 1
 852 856 777 976 600 976 c 0
 599 976 597 976 596 976 c 0
 425 974 305 849 286 640 c 1
EndSplineSet
EndChar

StartChar: eacute
Encoding: 233 233 322
Width: 1176
VWidth: 0
Flags: W
PickledData: "(dp1
S'com.typemytype.robofont.layerData'
p2
(dp3
s."
LayerCount: 2
Fore
SplineSet
969 1671 m 1
 644 1283 l 1
 530 1283 l 1
 716 1671 l 1
 969 1671 l 1
630 -23 m 0
 312 -23 107 193 107 545 c 0
 107 885 300 1116 590 1120 c 1
 863 1120 1067 917 1067 608 c 0
 1067 583 1060 515 1060 515 c 1
 296 515 l 1
 300 263 442 123 651 123 c 0
 788 123 906 166 1003 217 c 1
 1029 71 l 1
 924 7 794 -23 630 -23 c 0
301 640 m 1
 886 640 l 1
 880 858 766 976 598 976 c 0
 427 976 320 849 301 640 c 1
EndSplineSet
EndChar

StartChar: ebreve
Encoding: 277 277 323
Width: 1212
VWidth: 0
Flags: W
LayerCount: 2
Fore
SplineSet
600 1283 m 0
 477 1283 351 1369 351 1541 c 1
 467 1541 l 1
 467 1445 527 1400 600 1400 c 0
 673 1400 736 1445 736 1541 c 1
 853 1541 l 1
 853 1369 724 1283 600 1283 c 0
645 -23 m 0
 327 -23 122 193 122 545 c 0
 122 885 315 1116 605 1120 c 1
 878 1120 1082 917 1082 608 c 0
 1082 583 1075 515 1075 515 c 1
 311 515 l 1
 315 263 457 123 666 123 c 0
 803 123 921 166 1018 217 c 1
 1044 71 l 1
 939 7 809 -23 645 -23 c 0
316 640 m 1
 901 640 l 1
 895 858 781 976 613 976 c 0
 442 976 335 849 316 640 c 1
EndSplineSet
EndChar

StartChar: ecaron
Encoding: 283 283 324
Width: 1212
VWidth: 0
Flags: W
LayerCount: 2
Fore
SplineSet
896 1671 m 1
 708 1283 l 1
 496 1283 l 1
 308 1671 l 1
 440 1671 l 1
 600 1359 l 1
 762 1671 l 1
 896 1671 l 1
645 -23 m 0
 327 -23 122 193 122 545 c 0
 122 885 315 1116 605 1120 c 1
 878 1120 1082 917 1082 608 c 0
 1082 583 1075 515 1075 515 c 1
 311 515 l 1
 315 263 457 123 666 123 c 0
 803 123 921 166 1018 217 c 1
 1044 71 l 1
 939 7 809 -23 645 -23 c 0
316 640 m 1
 901 640 l 1
 895 858 781 976 613 976 c 0
 442 976 335 849 316 640 c 1
EndSplineSet
EndChar

StartChar: ecircumflex
Encoding: 234 234 325
Width: 1212
VWidth: 0
Flags: W
LayerCount: 2
Fore
SplineSet
600 1555 m 1
 440 1283 l 1
 308 1283 l 1
 496 1671 l 1
 708 1671 l 1
 896 1283 l 1
 762 1283 l 1
 600 1555 l 1
645 -23 m 0
 327 -23 122 193 122 545 c 0
 122 885 315 1116 605 1120 c 1
 878 1120 1082 917 1082 608 c 0
 1082 583 1075 515 1075 515 c 1
 311 515 l 1
 315 263 457 123 666 123 c 0
 803 123 921 166 1018 217 c 1
 1044 71 l 1
 939 7 809 -23 645 -23 c 0
316 640 m 1
 901 640 l 1
 895 858 781 976 613 976 c 0
 442 976 335 849 316 640 c 1
EndSplineSet
EndChar

StartChar: edieresis
Encoding: 235 235 326
Width: 1176
VWidth: 0
Flags: W
PickledData: "(dp1
S'com.typemytype.robofont.layerData'
p2
(dp3
s."
LayerCount: 2
Fore
SplineSet
469 1495 m 1
 469 1283 l 1
 315 1283 l 1
 315 1495 l 1
 469 1495 l 1
859 1495 m 1
 859 1283 l 1
 705 1283 l 1
 705 1495 l 1
 859 1495 l 1
630 -23 m 0
 312 -23 107 193 107 545 c 0
 107 885 300 1116 590 1120 c 1
 863 1120 1067 917 1067 608 c 0
 1067 583 1060 515 1060 515 c 1
 296 515 l 1
 300 263 442 123 651 123 c 0
 788 123 906 166 1003 217 c 1
 1029 71 l 1
 924 7 794 -23 630 -23 c 0
301 640 m 1
 886 640 l 1
 880 858 766 976 598 976 c 0
 427 976 320 849 301 640 c 1
EndSplineSet
EndChar

StartChar: edotaccent
Encoding: 279 279 327
Width: 1208
VWidth: 0
Flags: W
LayerCount: 2
Fore
SplineSet
516 1283 m 1
 516 1481 l 1
 684 1481 l 1
 684 1283 l 1
 516 1283 l 1
643 -23 m 0
 325 -23 120 193 120 545 c 0
 120 885 313 1116 603 1120 c 1
 876 1120 1080 917 1080 608 c 0
 1080 583 1073 515 1073 515 c 1
 309 515 l 1
 313 263 455 123 664 123 c 0
 801 123 919 166 1016 217 c 1
 1042 71 l 1
 937 7 807 -23 643 -23 c 0
314 640 m 1
 899 640 l 1
 893 858 779 976 611 976 c 0
 440 976 333 849 314 640 c 1
EndSplineSet
EndChar

StartChar: egrave
Encoding: 232 232 328
Width: 1213
VWidth: 0
Flags: W
LayerCount: 2
Fore
SplineSet
476 1670 m 1
 661 1283 l 1
 549 1283 l 1
 226 1670 l 1
 476 1670 l 1
648 -23 m 0
 330 -23 125 193 125 545 c 0
 125 885 318 1116 608 1120 c 1
 881 1120 1085 917 1085 608 c 0
 1085 583 1078 515 1078 515 c 1
 314 515 l 1
 318 263 460 123 669 123 c 0
 806 123 924 166 1021 217 c 1
 1047 71 l 1
 942 7 812 -23 648 -23 c 0
319 640 m 1
 904 640 l 1
 898 858 784 976 616 976 c 0
 445 976 338 849 319 640 c 1
EndSplineSet
EndChar

StartChar: eight
Encoding: 56 56 329
Width: 1141
VWidth: 0
Flags: W
PickledData: "(dp1
S'com.typemytype.robofont.layerData'
p2
(dp3
s."
LayerCount: 2
Fore
SplineSet
573 -23 m 0
 306 -23 82 119 82 385 c 0
 82 577 198 724 393 788 c 1
 220 849 113 966 113 1148 c 0
 113 1389 308 1525 573 1525 c 0
 837 1525 1028 1389 1028 1148 c 0
 1028 966 927 849 770 788 c 1
 949 724 1059 577 1059 385 c 0
 1059 119 840 -23 573 -23 c 0
573 129 m 0
 752 129 883 230 883 397 c 0
 883 562 752 662 573 703 c 1
 394 662 258 562 258 397 c 0
 258 230 394 129 573 129 c 0
573 853 m 1
 756 894 852 993 852 1152 c 0
 852 1296 721 1373 573 1373 c 0
 425 1373 290 1296 290 1152 c 0
 290 993 390 894 573 853 c 1
EndSplineSet
EndChar

StartChar: ellipsis
Encoding: 8230 8230 330
Width: 1489
VWidth: 0
Flags: W
LayerCount: 2
Fore
SplineSet
1239 -12 m 0
 1151 -12 1106 54 1106 120 c 0
 1106 186 1150 252 1239 252 c 0
 1328 252 1372 186 1372 120 c 0
 1372 54 1328 -12 1239 -12 c 0
745 -12 m 0
 657 -12 612 54 612 120 c 0
 612 186 656 252 745 252 c 0
 834 252 878 186 878 120 c 0
 878 54 834 -12 745 -12 c 0
251 -12 m 0
 163 -12 118 54 118 120 c 0
 118 186 162 252 251 252 c 0
 340 252 384 186 384 120 c 0
 384 54 340 -12 251 -12 c 0
EndSplineSet
EndChar

StartChar: emacron
Encoding: 275 275 331
Width: 1225
VWidth: 0
Flags: W
LayerCount: 2
Fore
SplineSet
1009 1422 m 1
 1009 1283 l 1
 209 1283 l 1
 209 1422 l 1
 1009 1422 l 1
652 -23 m 0
 334 -23 129 193 129 545 c 0
 129 885 322 1116 612 1120 c 1
 885 1120 1089 917 1089 608 c 0
 1089 583 1082 515 1082 515 c 1
 318 515 l 1
 322 263 464 123 673 123 c 0
 810 123 928 166 1025 217 c 1
 1051 71 l 1
 946 7 816 -23 652 -23 c 0
323 640 m 1
 908 640 l 1
 902 858 788 976 620 976 c 0
 449 976 342 849 323 640 c 1
EndSplineSet
EndChar

StartChar: emdash
Encoding: 8212 8212 332
Width: 2392
VWidth: 0
Flags: W
LayerCount: 2
Fore
SplineSet
114 527 m 1
 114 675 l 1
 2271 675 l 1
 2271 527 l 1
 114 527 l 1
EndSplineSet
EndChar

StartChar: endash
Encoding: 8211 8211 333
Width: 1282
VWidth: 0
Flags: W
LayerCount: 2
Fore
SplineSet
114 527 m 1
 114 675 l 1
 1161 675 l 1
 1161 527 l 1
 114 527 l 1
EndSplineSet
EndChar

StartChar: eng
Encoding: 331 331 334
Width: 1174
VWidth: 0
Flags: W
LayerCount: 2
Fore
SplineSet
647 -283 m 1
 635 -141 l 1
 678 -141 l 2
 850 -141 870 -110 870 104 c 2
 870 551 l 2
 870 836 859 980 656 980 c 0
 472 980 340 849 313 750 c 1
 313 0 l 1
 145 0 l 1
 142 1098 l 1
 286 1098 l 1
 302 935 l 1
 387 1052 540 1124 692 1124 c 0
 933 1124 1038 965 1038 657 c 2
 1038 158 l 2
 1038 -148 1015 -283 718 -283 c 2
 647 -283 l 1
EndSplineSet
EndChar

StartChar: eogonek
Encoding: 281 281 335
Width: 1208
VWidth: 0
Flags: W
LayerCount: 2
Fore
SplineSet
545 -433 m 0
 437 -433 352 -371 352 -257 c 0
 352 -151 441 -70 534 -14 c 1
 279 30 120 235 120 545 c 0
 120 885 313 1116 603 1120 c 1
 876 1120 1080 917 1080 608 c 0
 1080 583 1073 515 1073 515 c 1
 309 515 l 1
 313 263 455 123 664 123 c 0
 801 123 919 166 1016 217 c 1
 1042 71 l 1
 937 7 807 -23 643 -23 c 2
 638 -23 l 1
 544 -95 477 -164 477 -228 c 0
 477 -281 524 -317 565 -317 c 0
 619 -317 651 -305 702 -284 c 1
 702 -401 l 1
 664 -417 599 -433 545 -433 c 0
314 640 m 1
 899 640 l 1
 893 858 779 976 611 976 c 0
 440 976 333 849 314 640 c 1
EndSplineSet
EndChar

StartChar: epsilon
Encoding: 949 949 336
Width: 496
VWidth: 0
Flags: W
LayerCount: 2
Fore
SplineSet
245 532 m 0
 157 532 112 598 112 664 c 0
 112 730 157 796 245 796 c 0
 334 796 378 730 378 664 c 0
 378 598 334 532 245 532 c 0
248 1097 m 0
EndSplineSet
EndChar

StartChar: epsilontonos
Encoding: 941 941 337
Width: 496
VWidth: 0
Flags: W
LayerCount: 2
Fore
SplineSet
245 532 m 0
 157 532 112 598 112 664 c 0
 112 730 157 796 245 796 c 0
 334 796 378 730 378 664 c 0
 378 598 334 532 245 532 c 0
EndSplineSet
EndChar

StartChar: equal
Encoding: 61 61 338
Width: 1225
VWidth: 0
Flags: W
LayerCount: 2
Fore
SplineSet
129 377 m 1
 129 519 l 1
 1094 519 l 1
 1094 377 l 1
 129 377 l 1
128 799 m 1
 128 943 l 1
 1094 943 l 1
 1094 799 l 1
 128 799 l 1
EndSplineSet
EndChar

StartChar: eta
Encoding: 951 951 339
Width: 496
VWidth: 0
Flags: W
LayerCount: 2
Fore
SplineSet
245 532 m 0
 157 532 112 598 112 664 c 0
 112 730 157 796 245 796 c 0
 334 796 378 730 378 664 c 0
 378 598 334 532 245 532 c 0
248 1097 m 0
EndSplineSet
EndChar

StartChar: etatonos
Encoding: 942 942 340
Width: 496
VWidth: 0
Flags: W
LayerCount: 2
Fore
SplineSet
245 532 m 0
 157 532 112 598 112 664 c 0
 112 730 157 796 245 796 c 0
 334 796 378 730 378 664 c 0
 378 598 334 532 245 532 c 0
EndSplineSet
EndChar

StartChar: eth
Encoding: 240 240 341
Width: 1280
VWidth: 0
Flags: W
LayerCount: 2
Fore
SplineSet
641 -25 m 0
 309 -25 125 212 125 486 c 0
 125 777 317 972 607 972 c 0
 738 972 825 919 882 877 c 1
 836 964 738 1096 579 1257 c 1
 307 1145 l 1
 264 1277 l 1
 484 1364 l 1
 248 1588 l 1
 471 1588 l 1
 617 1429 l 1
 906 1542 l 1
 952 1413 l 1
 710 1320 l 1
 866 1150 979 1013 1053 884 c 1
 1122 754 1155 632 1155 492 c 0
 1155 199 981 -25 641 -25 c 0
647 114 m 0
 863 114 983 271 983 472 c 0
 983 653 863 833 641 833 c 0
 429 833 307 675 307 485 c 0
 307 294 420 114 647 114 c 0
EndSplineSet
EndChar

StartChar: exclam
Encoding: 33 33 342
Width: 532
VWidth: 0
Flags: W
LayerCount: 2
Fore
SplineSet
365 1354 m 1
 309 435 l 1
 230 435 l 1
 168 1354 l 1
 168 1496 l 1
 365 1496 l 1
 365 1354 l 1
267 -12 m 0
 179 -12 134 54 134 120 c 0
 134 186 179 252 267 252 c 0
 356 252 400 186 400 120 c 0
 400 54 356 -12 267 -12 c 0
EndSplineSet
EndChar

StartChar: exclamdown
Encoding: 161 161 343
Width: 529
VWidth: 0
Flags: W
LayerCount: 2
Fore
SplineSet
364 144 m 1
 364 2 l 1
 167 2 l 1
 167 144 l 1
 223 1063 l 1
 302 1063 l 1
 364 144 l 1
265 1246 m 0
 176 1246 132 1312 132 1378 c 0
 132 1444 176 1510 265 1510 c 0
 353 1510 398 1444 398 1378 c 0
 398 1312 353 1246 265 1246 c 0
EndSplineSet
EndChar

StartChar: f
Encoding: 102 102 344
Width: 694
VWidth: 0
Flags: W
PickledData: "(dp1
S'com.typemytype.robofont.layerData'
p2
(dp3
s."
LayerCount: 2
Fore
SplineSet
66 1078 m 1
 252 1097 l 1
 252 1166 l 2
 252 1448 376 1550 572 1550 c 0
 621 1550 726 1536 746 1532 c 1
 733 1388 l 1
 705 1392 656 1399 616 1399 c 0
 504 1399 444 1351 444 1159 c 2
 444 1097 l 1
 700 1097 l 1
 700 974 l 1
 444 974 l 1
 444 0 l 1
 252 0 l 1
 252 974 l 1
 60 974 l 1
 66 1078 l 1
EndSplineSet
EndChar

StartChar: five
Encoding: 53 53 345
Width: 1089
VWidth: 0
Flags: W
PickledData: "(dp1
S'com.typemytype.robofont.layerData'
p2
(dp3
s."
LayerCount: 2
Fore
SplineSet
452 -23 m 0
 277 -23 139 33 50 114 c 1
 115 255 l 1
 179 205 292 139 458 139 c 0
 680 139 812 279 812 475 c 0
 812 648 707 776 504 776 c 0
 409 776 329 746 266 677 c 1
 127 696 l 1
 166 1496 l 1
 933 1496 l 1
 919 1332 l 1
 308 1332 l 1
 303 1187 297 1006 293 861 c 1
 373 912 454 933 538 933 c 0
 841 933 993 731 993 477 c 0
 993 178 789 -23 452 -23 c 0
EndSplineSet
EndChar

StartChar: florin
Encoding: 402 402 346
Width: 1043
VWidth: 0
Flags: W
LayerCount: 2
Fore
SplineSet
149 -358 m 0
 124 -358 94 -350 58 -339 c 1
 69 -192 l 1
 96 -203 119 -210 138 -210 c 0
 223 -210 261 -110 285 6 c 1
 349 281 389 583 442 865 c 1
 284 865 l 1
 295 1015 l 1
 468 1015 l 1
 490 1178 l 1
 517 1370 594 1547 813 1547 c 0
 852 1547 898 1537 941 1525 c 1
 933 1369 l 1
 897 1385 865 1393 837 1393 c 0
 733 1393 700 1334 684 1227 c 1
 645 1015 l 1
 831 1015 l 1
 820 865 l 1
 623 865 l 1
 490 130 l 1
 442 -127 377 -358 149 -358 c 0
EndSplineSet
EndChar

StartChar: four
Encoding: 52 52 347
Width: 1118
VWidth: 0
Flags: W
PickledData: "(dp1
S'com.typemytype.robofont.layerData'
p2
(dp3
s."
LayerCount: 2
Fore
SplineSet
691 1496 m 1
 878 1496 l 1
 878 516 l 1
 1062 516 l 1
 1048 371 l 1
 878 371 l 1
 878 0 l 1
 710 0 l 1
 710 371 l 1
 34 371 l 1
 34 524 l 1
 691 1496 l 1
710 516 m 1
 710 1269 l 1
 210 516 l 1
 710 516 l 1
EndSplineSet
EndChar

StartChar: fraction
Encoding: 8260 8260 348
Width: 1182
VWidth: 0
Flags: W
LayerCount: 2
Fore
SplineSet
97 0 m 1
 973 1547 l 1
 1103 1547 l 1
 228 0 l 1
 97 0 l 1
EndSplineSet
EndChar

StartChar: g
Encoding: 103 103 349
Width: 1268
VWidth: 0
Flags: W
PickledData: "(dp1
S'com.typemytype.robofont.layerData'
p2
(dp3
s."
LayerCount: 2
Fore
SplineSet
301 -429 m 1
 313 -288 l 1
 361 -298 459 -320 570 -320 c 0
 838 -320 924 -91 924 80 c 0
 924 210 l 1
 872 80 757 0 583 0 c 0
 258 0 92 274 92 545 c 0
 92 857 252 1120 587 1120 c 0
 733 1120 845 1064 929 951 c 1
 942 1097 l 1
 1116 1097 l 1
 1116 215 l 2
 1116 -57 1033 -467 584 -467 c 0
 453 -467 345 -440 301 -429 c 1
284 554 m 0
 284 366 370 143 598 143 c 0
 834 143 924 319 924 516 c 2
 924 597 l 2
 924 805 830 979 602 979 c 0
 364 979 284 744 284 554 c 0
621 1097 m 0
EndSplineSet
EndChar

StartChar: gamma
Encoding: 947 947 350
Width: 496
VWidth: 0
Flags: W
LayerCount: 2
Fore
SplineSet
245 532 m 0
 157 532 112 598 112 664 c 0
 112 730 157 796 245 796 c 0
 334 796 378 730 378 664 c 0
 378 598 334 532 245 532 c 0
EndSplineSet
EndChar

StartChar: gbreve
Encoding: 287 287 351
Width: 1287
VWidth: 0
Flags: W
LayerCount: 2
Fore
SplineSet
630 1283 m 0
 507 1283 381 1369 381 1541 c 1
 497 1541 l 1
 497 1445 557 1400 630 1400 c 0
 703 1400 766 1445 766 1541 c 1
 883 1541 l 1
 883 1369 754 1283 630 1283 c 0
404 -451 m 1
 378 -296 l 1
 449 -305 513 -316 624 -316 c 0
 892 -316 957 -198 957 24 c 0
 957 43 957 63 956 83 c 2
 952 180 l 1
 880 76 785 0 611 0 c 0
 286 0 120 274 120 545 c 0
 120 857 280 1120 615 1120 c 0
 761 1120 873 1064 957 951 c 1
 970 1097 l 1
 1144 1097 l 1
 1144 79 l 2
 1144 -193 1088 -471 639 -471 c 0
 508 -471 467 -460 404 -451 c 1
312 554 m 0
 312 366 398 143 626 143 c 0
 862 143 952 319 952 516 c 2
 952 597 l 2
 952 805 858 979 630 979 c 0
 392 979 312 744 312 554 c 0
EndSplineSet
EndChar

StartChar: gcaron
Encoding: 487 487 352
Width: 1287
VWidth: 0
Flags: W
LayerCount: 2
Fore
SplineSet
926 1671 m 1
 738 1283 l 1
 526 1283 l 1
 338 1671 l 1
 470 1671 l 1
 630 1359 l 1
 792 1671 l 1
 926 1671 l 1
404 -451 m 1
 378 -296 l 1
 449 -305 513 -316 624 -316 c 0
 892 -316 957 -198 957 24 c 0
 957 43 957 63 956 83 c 2
 952 180 l 1
 880 76 785 0 611 0 c 0
 286 0 120 274 120 545 c 0
 120 857 280 1120 615 1120 c 0
 761 1120 873 1064 957 951 c 1
 970 1097 l 1
 1144 1097 l 1
 1144 79 l 2
 1144 -193 1088 -471 639 -471 c 0
 508 -471 467 -460 404 -451 c 1
312 554 m 0
 312 366 398 143 626 143 c 0
 862 143 952 319 952 516 c 2
 952 597 l 2
 952 805 858 979 630 979 c 0
 392 979 312 744 312 554 c 0
EndSplineSet
EndChar

StartChar: gcircumflex
Encoding: 285 285 353
Width: 1287
VWidth: 0
Flags: W
LayerCount: 2
Fore
SplineSet
630 1555 m 1
 470 1283 l 1
 338 1283 l 1
 526 1671 l 1
 738 1671 l 1
 926 1283 l 1
 792 1283 l 1
 630 1555 l 1
404 -451 m 1
 378 -296 l 1
 449 -305 513 -316 624 -316 c 0
 892 -316 957 -198 957 24 c 0
 957 43 957 63 956 83 c 2
 952 180 l 1
 880 76 785 0 611 0 c 0
 286 0 120 274 120 545 c 0
 120 857 280 1120 615 1120 c 0
 761 1120 873 1064 957 951 c 1
 970 1097 l 1
 1144 1097 l 1
 1144 79 l 2
 1144 -193 1088 -471 639 -471 c 0
 508 -471 467 -460 404 -451 c 1
312 554 m 0
 312 366 398 143 626 143 c 0
 862 143 952 319 952 516 c 2
 952 597 l 2
 952 805 858 979 630 979 c 0
 392 979 312 744 312 554 c 0
EndSplineSet
EndChar

StartChar: gcommaaccent
Encoding: 291 291 354
Width: 1305
VWidth: 0
Flags: W
LayerCount: 2
Fore
SplineSet
136 1250 m 1
 301 1749 l 1
 441 1749 l 1
 331 1250 l 1
 136 1250 l 1
422 -451 m 1
 396 -296 l 1
 467 -305 531 -316 642 -316 c 0
 910 -316 975 -198 975 24 c 0
 975 43 975 63 974 83 c 2
 970 180 l 1
 898 76 803 0 629 0 c 0
 304 0 138 274 138 545 c 0
 138 857 298 1120 633 1120 c 0
 779 1120 891 1064 975 951 c 1
 988 1097 l 1
 1162 1097 l 1
 1162 79 l 2
 1162 -193 1106 -471 657 -471 c 0
 526 -471 485 -460 422 -451 c 1
330 554 m 0
 330 366 416 143 644 143 c 0
 880 143 970 319 970 516 c 2
 970 597 l 2
 970 805 876 979 648 979 c 0
 410 979 330 744 330 554 c 0
EndSplineSet
EndChar

StartChar: gdotaccent
Encoding: 289 289 355
Width: 1286
VWidth: 0
Flags: W
LayerCount: 2
Fore
SplineSet
547 1283 m 1
 547 1481 l 1
 715 1481 l 1
 715 1283 l 1
 547 1283 l 1
403 -451 m 1
 377 -296 l 1
 448 -305 512 -316 623 -316 c 0
 891 -316 956 -198 956 24 c 0
 956 43 956 63 955 83 c 2
 951 180 l 1
 879 76 784 0 610 0 c 0
 285 0 119 274 119 545 c 0
 119 857 279 1120 614 1120 c 0
 760 1120 872 1064 956 951 c 1
 969 1097 l 1
 1143 1097 l 1
 1143 79 l 2
 1143 -193 1087 -471 638 -471 c 0
 507 -471 466 -460 403 -451 c 1
311 554 m 0
 311 366 397 143 625 143 c 0
 861 143 951 319 951 516 c 2
 951 597 l 2
 951 805 857 979 629 979 c 0
 391 979 311 744 311 554 c 0
EndSplineSet
EndChar

StartChar: germandbls
Encoding: 223 223 356
Width: 1213
VWidth: 0
Flags: W
PickledData: "(dp1
S'com.typemytype.robofont.layerData'
p2
(dp3
s."
LayerCount: 2
Fore
SplineSet
332 0 m 1
 164 0 l 1
 164 1046 l 2
 164 1343 306 1525 614 1525 c 0
 864 1525 984 1398 984 1182 c 0
 984 992 789 870 789 768 c 0
 789 646 1116 602 1152 348 c 0
 1182 139 1038 -20 822 -20 c 0
 678 -20 542 25 479 62 c 1
 538 206 l 1
 602 172 722 128 807 128 c 0
 938 128 994 234 963 343 c 0
 915 511 615 573 615 752 c 0
 615 919 806 1047 806 1184 c 0
 806 1305 737 1373 614 1373 c 0
 410 1373 332 1246 332 1056 c 2
 332 0 l 1
EndSplineSet
EndChar

StartChar: grave
Encoding: 96 96 357
Width: 643
VWidth: 0
Flags: W
LayerCount: 2
Fore
SplineSet
408 1251 m 1
 85 1638 l 1
 335 1638 l 1
 520 1251 l 1
 408 1251 l 1
302.5 1097 m 0
EndSplineSet
EndChar

StartChar: greater
Encoding: 62 62 358
Width: 1211
VWidth: 0
Flags: W
LayerCount: 2
Fore
SplineSet
135 1200 m 1
 1093 701 l 1
 1093 604 l 1
 133 152 l 1
 133 311 l 1
 907 658 l 1
 135 1044 l 1
 135 1200 l 1
EndSplineSet
EndChar

StartChar: greaterequal
Encoding: 8805 8805 359
Width: 1223
VWidth: 0
Flags: W
LayerCount: 2
Fore
SplineSet
163 1314 m 1
 1076 806 l 1
 1076 719 l 1
 159 234 l 1
 159 385 l 1
 921 762 l 1
 163 1164 l 1
 163 1314 l 1
133 8 m 1
 133 141 l 1
 1093 141 l 1
 1093 8 l 1
 133 8 l 1
EndSplineSet
EndChar

StartChar: guillemotleft
Encoding: 171 171 360
Width: 1035
VWidth: 0
Flags: W
LayerCount: 2
Fore
SplineSet
544 935 m 1
 270 561 l 1
 539 185 l 1
 398 149 l 1
 128 520 l 1
 108 567 l 1
 401 970 l 1
 544 935 l 1
650 561 m 1
 906 185 l 1
 779 149 l 1
 477 567 l 1
 781 970 l 1
 909 935 l 1
 650 561 l 1
EndSplineSet
EndChar

StartChar: guillemotright
Encoding: 187 187 361
Width: 1055
VWidth: 0
Flags: W
LayerCount: 2
Fore
SplineSet
256 970 m 1
 559 554 l 1
 255 149 l 1
 127 185 l 1
 386 562 l 1
 129 935 l 1
 256 970 l 1
650 970 m 1
 940 554 l 1
 647 149 l 1
 508 185 l 1
 778 562 l 1
 513 935 l 1
 650 970 l 1
EndSplineSet
EndChar

StartChar: guilsinglleft
Encoding: 8249 8249 362
Width: 616
VWidth: 0
Flags: W
LayerCount: 2
Fore
SplineSet
259 583 m 1
 485 182 l 1
 346 182 l 1
 110 583 l 1
 351 982 l 1
 491 982 l 1
 259 583 l 1
EndSplineSet
EndChar

StartChar: guilsinglright
Encoding: 8250 8250 363
Width: 623
VWidth: 0
Flags: W
LayerCount: 2
Fore
SplineSet
507 585 m 1
 266 182 l 1
 126 182 l 1
 357 585 l 1
 132 982 l 1
 271 982 l 1
 507 585 l 1
EndSplineSet
EndChar

StartChar: h
Encoding: 104 104 364
Width: 1212
VWidth: 0
Flags: W
PickledData: "(dp1
S'com.typemytype.robofont.layerData'
p2
(dp3
s."
LayerCount: 2
Fore
SplineSet
164 1557 m 1
 356 1573 l 1
 356 950 l 1
 437 1048 541 1120 693 1120 c 0
 946 1120 1060 966 1060 672 c 2
 1060 0 l 1
 868 0 l 1
 868 685 l 2
 868 866 828 977 660 977 c 0
 482 977 399 880 366 754 c 1
 359 707 356 656 356 600 c 2
 356 0 l 1
 164 0 l 1
 164 1557 l 1
607 1097 m 0
607 549 m 0
EndSplineSet
EndChar

StartChar: hbar
Encoding: 295 295 365
Width: 1242
VWidth: 0
Flags: W
LayerCount: 2
Fore
SplineSet
214 1386 m 1
 214 1490 l 1
 382 1510 l 1
 382 1386 l 1
 658 1386 l 1
 658 1270 l 1
 382 1270 l 1
 382 949 l 1
 475 1061 607 1124 774 1124 c 0
 1003 1124 1107 952 1107 664 c 2
 1107 0 l 1
 939 0 l 1
 939 617 l 2
 939 865 906 980 719 980 c 0
 548 980 409 852 382 748 c 1
 382 0 l 1
 214 0 l 1
 214 1270 l 1
 121 1270 l 1
 121 1386 l 1
 214 1386 l 1
EndSplineSet
EndChar

StartChar: hcircumflex
Encoding: 293 293 366
Width: 1183
VWidth: 0
Flags: W
LayerCount: 2
Fore
SplineSet
597 2008 m 1
 437 1736 l 1
 305 1736 l 1
 493 2124 l 1
 705 2124 l 1
 893 1736 l 1
 759 1736 l 1
 597 2008 l 1
151 1557 m 1
 343 1573 l 1
 343 950 l 1
 424 1048 528 1120 680 1120 c 0
 933 1120 1047 966 1047 672 c 2
 1047 0 l 1
 855 0 l 1
 855 685 l 2
 855 866 815 977 647 977 c 0
 469 977 386 880 353 754 c 1
 346 707 343 656 343 600 c 2
 343 0 l 1
 151 0 l 1
 151 1557 l 1
EndSplineSet
EndChar

StartChar: horncmb
Encoding: 795 795 367
Width: 481
VWidth: 0
Flags: W
LayerCount: 2
Fore
SplineSet
209 156 m 0
 180 156 148 159 117 162 c 1
 117 256 l 1
 132 256 149 254 166 254 c 0
 224 254 242 299 242 354 c 0
 242 403 227 460 212 501 c 1
 329 501 l 1
 350 452 360 400 360 351 c 0
 360 245 310 156 209 156 c 0
EndSplineSet
EndChar

StartChar: hungarumlaut
Encoding: 733 733 368
Width: 817
VWidth: 0
Flags: W
LayerCount: 2
Fore
SplineSet
128 1259 m 1
 326 1594 l 1
 479 1594 l 1
 227 1259 l 1
 128 1259 l 1
361 1259 m 1
 563 1594 l 1
 713 1594 l 1
 463 1259 l 1
 361 1259 l 1
420.5 1097 m 0
EndSplineSet
EndChar

StartChar: hyphen
Encoding: 45 45 369
Width: 733
VWidth: 0
Flags: W
LayerCount: 2
Fore
SplineSet
113 497 m 1
 113 644 l 1
 613 644 l 1
 613 497 l 1
 113 497 l 1
EndSplineSet
EndChar

StartChar: i
Encoding: 105 105 370
Width: 481
VWidth: 0
Flags: W
PickledData: "(dp1
S'com.typemytype.robofont.layerData'
p2
(dp3
s."
LayerCount: 2
Fore
SplineSet
147 0 m 1
 147 1097 l 1
 339 1097 l 1
 339 0 l 1
 147 0 l 1
147 1298 m 1
 147 1496 l 1
 339 1496 l 1
 339 1298 l 1
 147 1298 l 1
EndSplineSet
EndChar

StartChar: iacute
Encoding: 237 237 371
Width: 666
VWidth: 0
Flags: W
LayerCount: 2
Fore
SplineSet
612 1671 m 1
 288 1283 l 1
 174 1283 l 1
 360 1671 l 1
 612 1671 l 1
146 0 m 1
 146 1098 l 1
 315 1098 l 1
 315 0 l 1
 146 0 l 1
EndSplineSet
EndChar

StartChar: ibreve
Encoding: 301 301 372
Width: 700
VWidth: 0
Flags: W
LayerCount: 2
Fore
SplineSet
347 1283 m 0
 224 1283 99 1369 99 1541 c 1
 215 1541 l 1
 215 1445 274 1400 347 1400 c 0
 420 1400 483 1445 483 1541 c 1
 601 1541 l 1
 601 1369 471 1283 347 1283 c 0
265 0 m 1
 265 1098 l 1
 434 1098 l 1
 434 0 l 1
 265 0 l 1
EndSplineSet
EndChar

StartChar: icircumflex
Encoding: 238 238 373
Width: 784
VWidth: 0
Flags: W
LayerCount: 2
Fore
SplineSet
389 1555 m 1
 228 1283 l 1
 97 1283 l 1
 284 1671 l 1
 497 1671 l 1
 684 1283 l 1
 550 1283 l 1
 389 1555 l 1
306 0 m 1
 306 1098 l 1
 475 1098 l 1
 475 0 l 1
 306 0 l 1
EndSplineSet
EndChar

StartChar: idieresis
Encoding: 239 239 374
Width: 637
VWidth: 0
Flags: W
PickledData: "(dp1
S'com.typemytype.robofont.layerData'
p2
(dp3
s."
LayerCount: 2
Fore
SplineSet
200 1495 m 1
 200 1283 l 1
 46 1283 l 1
 46 1495 l 1
 200 1495 l 1
591 1495 m 1
 591 1283 l 1
 436 1283 l 1
 436 1495 l 1
 591 1495 l 1
234 0 m 1
 234 1098 l 1
 403 1098 l 1
 403 0 l 1
 234 0 l 1
EndSplineSet
EndChar

StartChar: igrave
Encoding: 236 236 375
Width: 661
VWidth: 0
Flags: W
LayerCount: 2
Fore
SplineSet
303 1670 m 1
 487 1283 l 1
 375 1283 l 1
 53 1670 l 1
 303 1670 l 1
347 0 m 1
 347 1098 l 1
 516 1098 l 1
 516 0 l 1
 347 0 l 1
EndSplineSet
EndChar

StartChar: ij
Encoding: 307 307 376
Width: 1036
VWidth: 0
Flags: W
LayerCount: 2
Fore
SplineSet
150 0 m 1
 150 1097 l 1
 342 1097 l 1
 342 0 l 1
 150 0 l 1
150 1298 m 1
 150 1496 l 1
 342 1496 l 1
 342 1298 l 1
 150 1298 l 1
501 -437 m 1
 479 -282 l 1
 531 -282 l 2
 682 -282 695 -241 695 -133 c 0
 695 -111 694 -86 694 -57 c 2
 694 1097 l 1
 886 1097 l 1
 886 -75 l 2
 886 -343 826 -437 553 -437 c 2
 501 -437 l 1
694 1298 m 1
 694 1496 l 1
 886 1496 l 1
 886 1298 l 1
 694 1298 l 1
EndSplineSet
EndChar

StartChar: imacron
Encoding: 299 299 377
Width: 982
VWidth: 0
Flags: W
LayerCount: 2
Fore
SplineSet
890 1422 m 1
 890 1283 l 1
 90 1283 l 1
 90 1422 l 1
 890 1422 l 1
406 0 m 1
 406 1098 l 1
 575 1098 l 1
 575 0 l 1
 406 0 l 1
EndSplineSet
EndChar

StartChar: infinity
Encoding: 8734 8734 378
Width: 1783
VWidth: 0
Flags: W
LayerCount: 2
Fore
SplineSet
475 254 m 0
 248 254 117 440 117 659 c 0
 117 858 273 1017 470 1017 c 0
 641 1017 768 909 891 745 c 1
 1006 903 1133 1017 1308 1017 c 0
 1536 1017 1660 860 1660 642 c 0
 1660 413 1504 254 1305 254 c 0
 1153 254 1027 344 891 525 c 1
 771 367 642 254 475 254 c 0
477 381 m 0
 610 381 726 497 820 636 c 1
 727 783 613 893 469 893 c 0
 321 893 230 775 230 638 c 0
 230 508 329 381 477 381 c 0
1308 381 m 0
 1464 381 1537 507 1537 665 c 0
 1537 789 1439 893 1303 893 c 0
 1164 893 1053 770 964 638 c 1
 1087 470 1181 381 1308 381 c 0
EndSplineSet
EndChar

StartChar: integral
Encoding: 8747 8747 379
Width: 739
VWidth: 0
Flags: W
LayerCount: 2
Fore
SplineSet
163 -429 m 0
 112 -429 83 -421 42 -409 c 1
 41 -270 l 1
 64 -281 99 -284 134 -284 c 0
 254 -284 278 -202 278 -50 c 2
 278 1351 l 2
 278 1583 342 1756 541 1756 c 0
 592 1756 621 1745 662 1733 c 1
 663 1594 l 1
 640 1605 602 1610 567 1610 c 0
 447 1610 422 1531 422 1379 c 2
 422 -25 l 2
 422 -257 362 -429 163 -429 c 0
EndSplineSet
EndChar

StartChar: iogonek
Encoding: 303 303 380
Width: 591
VWidth: 0
Flags: W
LayerCount: 2
Fore
SplineSet
246 0 m 1
 246 1097 l 1
 438 1097 l 1
 438 0 l 1
 380 0 l 1
 286 -72 219 -141 219 -205 c 0
 219 -258 266 -294 307 -294 c 0
 361 -294 393 -282 444 -261 c 1
 444 -378 l 1
 406 -394 341 -410 287 -410 c 0
 179 -410 94 -348 94 -234 c 0
 94 -134 174 -55 262 0 c 1
 246 0 l 1
246 1298 m 1
 246 1496 l 1
 438 1496 l 1
 438 1298 l 1
 246 1298 l 1
EndSplineSet
EndChar

StartChar: iota
Encoding: 953 953 381
Width: 496
VWidth: 0
Flags: W
LayerCount: 2
Fore
SplineSet
245 532 m 0
 157 532 112 598 112 664 c 0
 112 730 157 796 245 796 c 0
 334 796 378 730 378 664 c 0
 378 598 334 532 245 532 c 0
248 1097 m 0
EndSplineSet
EndChar

StartChar: iotadieresis
Encoding: 970 970 382
Width: 767
VWidth: 0
Flags: W
LayerCount: 2
Fore
SplineSet
433 532 m 0
 345 532 300 598 300 664 c 0
 300 730 345 796 433 796 c 0
 522 796 566 730 566 664 c 0
 566 598 522 532 433 532 c 0
258 1466 m 1
 258 1254 l 1
 104 1254 l 1
 104 1466 l 1
 258 1466 l 1
648 1466 m 1
 648 1254 l 1
 494 1254 l 1
 494 1466 l 1
 648 1466 l 1
EndSplineSet
EndChar

StartChar: iotadieresistonos
Encoding: 912 912 383
Width: 569
VWidth: 0
Flags: W
LayerCount: 2
Fore
SplineSet
253 1246 m 0
 165 1246 120 1312 120 1378 c 0
 120 1444 165 1510 253 1510 c 0
 342 1510 386 1444 386 1378 c 0
 386 1312 342 1246 253 1246 c 0
307 532 m 0
 219 532 174 598 174 664 c 0
 174 730 219 796 307 796 c 0
 396 796 440 730 440 664 c 0
 440 598 396 532 307 532 c 0
EndSplineSet
EndChar

StartChar: iotatonos
Encoding: 943 943 384
Width: 496
VWidth: 0
Flags: W
LayerCount: 2
Fore
SplineSet
245 532 m 0
 157 532 112 598 112 664 c 0
 112 730 157 796 245 796 c 0
 334 796 378 730 378 664 c 0
 378 598 334 532 245 532 c 0
EndSplineSet
EndChar

StartChar: itilde
Encoding: 297 297 385
Width: 810
VWidth: 0
Flags: W
LayerCount: 2
Fore
SplineSet
203 1283 m 1
 96 1283 l 1
 96 1433 161 1502 268 1502 c 0
 392 1502 563 1408 563 1408 c 1
 603 1411 607 1460 610 1502 c 1
 719 1502 l 1
 719 1365 676 1283 570 1283 c 0
 480 1283 258 1380 258 1380 c 1
 225 1379 206 1338 203 1283 c 1
323 0 m 1
 323 1098 l 1
 492 1098 l 1
 492 0 l 1
 323 0 l 1
EndSplineSet
EndChar

StartChar: j
Encoding: 106 106 386
Width: 459
VWidth: 0
Flags: W
PickledData: "(dp1
S'com.typemytype.robofont.layerData'
p2
(dp3
s."
LayerCount: 2
Fore
SplineSet
-58 -437 m 1
 -80 -282 l 1
 -28 -282 l 2
 123 -282 136 -241 136 -133 c 0
 136 -111 135 -86 135 -57 c 2
 135 1097 l 1
 327 1097 l 1
 327 -75 l 2
 327 -343 267 -437 -6 -437 c 2
 -58 -437 l 1
135 1298 m 1
 135 1496 l 1
 327 1496 l 1
 327 1298 l 1
 135 1298 l 1
EndSplineSet
EndChar

StartChar: jcircumflex
Encoding: 309 309 387
Width: 795
VWidth: 0
Flags: W
LayerCount: 2
Fore
SplineSet
379 1555 m 1
 218 1283 l 1
 87 1283 l 1
 274 1671 l 1
 487 1671 l 1
 674 1283 l 1
 540 1283 l 1
 379 1555 l 1
199 -502 m 1
 177 -351 l 1
 229 -351 l 2
 411 -351 416 -286 416 -121 c 2
 416 1098 l 1
 584 1098 l 1
 584 -139 l 2
 584 -407 524 -502 251 -502 c 2
 199 -502 l 1
EndSplineSet
EndChar

StartChar: k
Encoding: 107 107 388
Width: 1131
VWidth: 0
Flags: W
PickledData: "(dp1
S'com.typemytype.robofont.layerData'
p2
(dp3
s."
LayerCount: 2
Fore
SplineSet
164 1557 m 1
 356 1573 l 1
 356 563 l 1
 869 1097 l 1
 1105 1097 l 1
 615 585 l 1
 1113 0 l 1
 898 0 l 1
 478 490 l 1
 356 385 l 1
 356 0 l 1
 164 0 l 1
 164 1557 l 1
594 0 m 0
EndSplineSet
EndChar

StartChar: kappa
Encoding: 954 954 389
Width: 1151
VWidth: 0
Flags: W
LayerCount: 2
Fore
SplineSet
143 0 m 1
 143 1098 l 1
 309 1098 l 1
 309 571 l 1
 321 584 333 598 346 612 c 0
 473 758 648 940 796 1097 c 1
 1008 1097 l 1
 552 610 l 1
 1040 0 l 1
 832 0 l 1
 431 515 l 1
 309 410 l 1
 309 0 l 1
 143 0 l 1
EndSplineSet
EndChar

StartChar: kcommaaccent
Encoding: 311 311 390
Width: 1215
VWidth: 0
Flags: W
LayerCount: 2
Fore
SplineSet
495 -661 m 1
 591 -163 l 1
 755 -163 l 1
 611 -661 l 1
 495 -661 l 1
151 1557 m 1
 343 1573 l 1
 343 613 l 1
 489 771 680 920 856 1097 c 1
 1092 1097 l 1
 602 635 l 1
 1100 0 l 1
 885 0 l 1
 465 540 l 1
 343 435 l 1
 343 0 l 1
 151 0 l 1
 151 1557 l 1
EndSplineSet
EndChar

StartChar: kgreenlandic
Encoding: 312 312 391
Width: 1151
VWidth: 0
Flags: W
LayerCount: 2
Fore
SplineSet
143 0 m 1
 143 1098 l 1
 309 1098 l 1
 309 571 l 1
 321 584 333 598 346 612 c 0
 473 758 648 940 796 1097 c 1
 1008 1097 l 1
 552 610 l 1
 1040 0 l 1
 832 0 l 1
 431 515 l 1
 309 410 l 1
 309 0 l 1
 143 0 l 1
EndSplineSet
EndChar

StartChar: l
Encoding: 108 108 392
Width: 576
VWidth: 0
Flags: W
PickledData: "(dp1
S'com.typemytype.robofont.layerData'
p2
(dp3
s."
LayerCount: 2
Fore
SplineSet
417 -20 m 0
 245 -20 164 49 164 335 c 2
 164 1557 l 1
 356 1573 l 1
 356 379 l 2
 356 163 373 127 462 127 c 0
 491 127 488 128 520 132 c 1
 537 -10 l 1
 484 -18 446 -20 417 -20 c 0
EndSplineSet
EndChar

StartChar: lacute
Encoding: 314 314 393
Width: 801
VWidth: 0
Flags: W
LayerCount: 2
Fore
SplineSet
758 2124 m 1
 434 1736 l 1
 320 1736 l 1
 506 2124 l 1
 758 2124 l 1
441 -20 m 0
 269 -20 148 49 148 335 c 2
 148 1557 l 1
 340 1573 l 1
 340 396 l 2
 340 180 344 127 489 127 c 0
 518 127 564 130 596 134 c 1
 605 -3 l 1
 532 -15 470 -20 441 -20 c 0
EndSplineSet
EndChar

StartChar: lambda
Encoding: 955 955 394
Width: 496
VWidth: 0
Flags: W
LayerCount: 2
Fore
SplineSet
245 532 m 0
 157 532 112 598 112 664 c 0
 112 730 157 796 245 796 c 0
 334 796 378 730 378 664 c 0
 378 598 334 532 245 532 c 0
EndSplineSet
EndChar

StartChar: lcaron
Encoding: 318 318 395
Width: 1185
VWidth: 0
Flags: W
LayerCount: 2
Fore
SplineSet
1100 1573 m 1
 966 1101 l 1
 850 1101 l 1
 942 1573 l 1
 1100 1573 l 1
441 -20 m 0
 269 -20 148 49 148 335 c 2
 148 1557 l 1
 340 1573 l 1
 340 396 l 2
 340 180 344 127 489 127 c 0
 518 127 564 130 596 134 c 1
 605 -3 l 1
 532 -15 470 -20 441 -20 c 0
EndSplineSet
EndChar

StartChar: lcommaaccent
Encoding: 316 316 396
Width: 707
VWidth: 0
Flags: W
LayerCount: 2
Fore
SplineSet
246 -681 m 1
 342 -183 l 1
 506 -183 l 1
 362 -681 l 1
 246 -681 l 1
441 -20 m 0
 269 -20 148 49 148 335 c 2
 148 1557 l 1
 340 1573 l 1
 340 396 l 2
 340 180 344 127 489 127 c 0
 518 127 564 130 596 134 c 1
 605 -3 l 1
 532 -15 470 -20 441 -20 c 0
EndSplineSet
EndChar

StartChar: ldot
Encoding: 320 320 397
Width: 1168
VWidth: 0
Flags: W
LayerCount: 2
Fore
SplineSet
881 561 m 1
 881 759 l 1
 1049 759 l 1
 1049 561 l 1
 881 561 l 1
441 -20 m 0
 269 -20 148 49 148 335 c 2
 148 1557 l 1
 340 1573 l 1
 340 396 l 2
 340 180 344 127 489 127 c 0
 518 127 564 130 596 134 c 1
 605 -3 l 1
 532 -15 470 -20 441 -20 c 0
EndSplineSet
EndChar

StartChar: less
Encoding: 60 60 398
Width: 1203
VWidth: 0
Flags: W
LayerCount: 2
Fore
SplineSet
1072 1037 m 1
 297 658 l 1
 1070 304 l 1
 1070 146 l 1
 112 605 l 1
 112 702 l 1
 1072 1195 l 1
 1072 1037 l 1
EndSplineSet
EndChar

StartChar: lessequal
Encoding: 8804 8804 399
Width: 1225
VWidth: 0
Flags: W
LayerCount: 2
Fore
SplineSet
1068 1162 m 1
 312 766 l 1
 1068 383 l 1
 1068 232 l 1
 158 716 l 1
 158 806 l 1
 1068 1312 l 1
 1068 1162 l 1
128 8 m 1
 128 141 l 1
 1093 141 l 1
 1093 8 l 1
 128 8 l 1
EndSplineSet
EndChar

StartChar: logicalnot
Encoding: 172 172 400
Width: 1240
VWidth: 0
Flags: W
LayerCount: 2
Fore
SplineSet
1108 825 m 1
 1108 260 l 1
 973 260 l 1
 973 681 l 1
 117 681 l 1
 117 825 l 1
 1108 825 l 1
EndSplineSet
EndChar

StartChar: lozenge
Encoding: 9674 9674 401
Width: 1196
VWidth: 0
Flags: W
LayerCount: 2
Fore
SplineSet
1079 768 m 1
 645 -48 l 1
 536 -48 l 1
 111 766 l 1
 543 1583 l 1
 654 1583 l 1
 1079 768 l 1
589 106 m 1
 708 326 828 546 947 766 c 1
 832 985 714 1203 601 1424 c 1
 481 1206 362 987 243 768 c 1
 359 548 470 323 589 106 c 1
EndSplineSet
EndChar

StartChar: lslash
Encoding: 322 322 402
Width: 814
VWidth: 0
Flags: W
LayerCount: 2
Fore
SplineSet
527 -21 m 0
 260 -21 237 106 237 468 c 2
 237 573 l 1
 125 486 l 1
 125 631 l 1
 237 718 l 1
 237 1490 l 1
 405 1510 l 1
 405 848 l 1
 581 985 l 1
 581 839 l 1
 405 703 l 1
 405 431 l 2
 405 192 409 118 552 118 c 0
 579 118 641 124 690 128 c 1
 705 -8 l 1
 655 -13 546 -21 527 -21 c 0
EndSplineSet
EndChar

StartChar: m
Encoding: 109 109 403
Width: 1950
VWidth: 0
Flags: W
PickledData: "(dp1
S'com.typemytype.robofont.layerData'
p2
(dp3
s."
LayerCount: 2
Fore
SplineSet
358 577 m 2
 358 0 l 1
 166 0 l 1
 166 0 164 1029 164 1097 c 1
 329 1097 l 1
 350 940 l 1
 410 1032 532 1120 699 1120 c 0
 912 1120 991 1011 1022 925 c 1
 1103 1057 1255 1120 1412 1120 c 0
 1660 1120 1798 974 1798 706 c 2
 1798 0 l 1
 1606 0 l 1
 1606 571 l 2
 1606 806 1577 977 1383 977 c 2
 1378 977 l 1
 1223 975 1132 894 1088 752 c 1
 1082 704 1079 644 1079 588 c 2
 1079 0 l 1
 886 0 l 1
 886 619 l 2
 886 865 833 977 671 977 c 2
 656 977 l 1
 493 970 403 876 367 744 c 1
 361 693 358 638 358 577 c 2
EndSplineSet
EndChar

StartChar: macron
Encoding: 175 175 404
Width: 1062
VWidth: 0
Flags: W
LayerCount: 2
Fore
SplineSet
133 1486 m 1
 133 1625 l 1
 933 1625 l 1
 933 1486 l 1
 133 1486 l 1
533 1097 m 0
EndSplineSet
EndChar

StartChar: middot
Encoding: 65537 -1 405
Width: 409
VWidth: 0
Flags: W
LayerCount: 2
Fore
SplineSet
118 561 m 1
 118 759 l 1
 286 759 l 1
 286 561 l 1
 118 561 l 1
EndSplineSet
EndChar

StartChar: minus
Encoding: 8722 8722 406
Width: 1236
VWidth: 0
Flags: W
LayerCount: 2
Fore
SplineSet
114 534 m 1
 114 682 l 1
 1115 682 l 1
 1115 534 l 1
 114 534 l 1
EndSplineSet
EndChar

StartChar: mu
Encoding: 956 956 407
Width: 496
VWidth: 0
Flags: W
LayerCount: 2
Fore
SplineSet
245 532 m 0
 157 532 112 598 112 664 c 0
 112 730 157 796 245 796 c 0
 334 796 378 730 378 664 c 0
 378 598 334 532 245 532 c 0
EndSplineSet
EndChar

StartChar: multiply
Encoding: 215 215 408
Width: 1011
VWidth: 0
Flags: W
LayerCount: 2
Fore
SplineSet
410 604 m 1
 125 932 l 1
 231 1027 l 1
 505 713 l 1
 779 1027 l 1
 885 932 l 1
 600 604 l 1
 885 278 l 1
 777 181 l 1
 505 494 l 1
 233 181 l 1
 125 278 l 1
 410 604 l 1
EndSplineSet
EndChar

StartChar: n
Encoding: 110 110 409
Width: 1212
VWidth: 0
Flags: W
PickledData: "(dp1
S'com.typemytype.robofont.layerData'
p2
(dp3
s."
LayerCount: 2
Fore
SplineSet
164 1097 m 1
 327 1097 l 1
 348 940 l 1
 427 1059 541 1120 698 1120 c 0
 951 1120 1060 966 1060 672 c 2
 1060 0 l 1
 868 0 l 1
 868 685 l 2
 868 866 828 977 660 977 c 0
 482 977 399 880 366 754 c 1
 359 707 356 656 356 600 c 2
 356 0 l 1
 164 0 l 1
 164 1097 l 1
608 1097 m 0
608 0 m 0
EndSplineSet
EndChar

StartChar: nacute
Encoding: 324 324 410
Width: 1180
VWidth: 0
Flags: W
LayerCount: 2
Fore
SplineSet
973 1671 m 1
 648 1283 l 1
 534 1283 l 1
 720 1671 l 1
 973 1671 l 1
143 1097 m 1
 306 1097 l 1
 327 940 l 1
 406 1059 520 1120 677 1120 c 0
 930 1120 1039 966 1039 672 c 2
 1039 0 l 1
 847 0 l 1
 847 685 l 2
 847 866 807 977 639 977 c 0
 461 977 378 880 345 754 c 1
 338 707 335 656 335 600 c 2
 335 0 l 1
 143 0 l 1
 143 1097 l 1
EndSplineSet
EndChar

StartChar: ncaron
Encoding: 328 328 411
Width: 1177
VWidth: 0
Flags: W
LayerCount: 2
Fore
SplineSet
885 1671 m 1
 697 1283 l 1
 485 1283 l 1
 297 1671 l 1
 429 1671 l 1
 589 1359 l 1
 751 1671 l 1
 885 1671 l 1
143 1097 m 1
 306 1097 l 1
 327 940 l 1
 406 1059 520 1120 677 1120 c 0
 930 1120 1039 966 1039 672 c 2
 1039 0 l 1
 847 0 l 1
 847 685 l 2
 847 866 807 977 639 977 c 0
 461 977 378 880 345 754 c 1
 338 707 335 656 335 600 c 2
 335 0 l 1
 143 0 l 1
 143 1097 l 1
EndSplineSet
EndChar

StartChar: ncommaaccent
Encoding: 326 326 412
Width: 1174
VWidth: 0
Flags: W
LayerCount: 2
Fore
SplineSet
461 -661 m 1
 556 -163 l 1
 721 -163 l 1
 577 -661 l 1
 461 -661 l 1
143 1097 m 1
 306 1097 l 1
 327 940 l 1
 406 1059 520 1120 677 1120 c 0
 930 1120 1039 966 1039 672 c 2
 1039 0 l 1
 847 0 l 1
 847 685 l 2
 847 866 807 977 639 977 c 0
 461 977 378 880 345 754 c 1
 338 707 335 656 335 600 c 2
 335 0 l 1
 143 0 l 1
 143 1097 l 1
EndSplineSet
EndChar

StartChar: nine
Encoding: 57 57 413
Width: 1182
VWidth: 0
Flags: W
PickledData: "(dp1
S'com.typemytype.robofont.layerData'
p2
(dp3
s."
LayerCount: 2
Fore
SplineSet
464 0 m 1
 244 0 l 1
 775 658 l 1
 711 624 630 598 550 598 c 0
 298 598 80 777 80 1053 c 0
 80 1320 280 1525 586 1525 c 0
 906 1525 1084 1312 1084 1042 c 0
 1084 844 1020 712 866 504 c 1
 769 375 464 0 464 0 c 1
586 748 m 0
 808 748 895 889 895 1061 c 0
 895 1234 798 1373 592 1373 c 0
 387 1373 269 1228 269 1056 c 0
 269 872 384 748 586 748 c 0
EndSplineSet
EndChar

StartChar: notequal
Encoding: 8800 8800 414
Width: 1227
VWidth: 0
Flags: W
LayerCount: 2
Fore
SplineSet
128 479 m 1
 460 479 l 1
 612 783 l 1
 135 783 l 1
 126 915 l 1
 671 915 l 1
 812 1207 l 1
 927 1191 l 1
 810 915 l 1
 1088 915 l 1
 1097 783 l 1
 751 783 l 1
 595 479 l 1
 1090 479 l 1
 1097 352 l 1
 535 352 l 1
 390 48 l 1
 277 68 l 1
 396 352 l 1
 135 352 l 1
 128 479 l 1
EndSplineSet
EndChar

StartChar: ntilde
Encoding: 241 241 415
Width: 1179
VWidth: 0
Flags: W
LayerCount: 2
Fore
SplineSet
387 1283 m 1
 279 1283 l 1
 279 1433 344 1502 451 1502 c 0
 575 1502 747 1408 747 1408 c 1
 787 1411 790 1460 793 1502 c 1
 903 1502 l 1
 903 1365 859 1283 753 1283 c 0
 663 1283 441 1380 441 1380 c 1
 408 1379 390 1338 387 1283 c 1
143 1097 m 1
 306 1097 l 1
 327 940 l 1
 406 1059 520 1120 677 1120 c 0
 930 1120 1039 966 1039 672 c 2
 1039 0 l 1
 847 0 l 1
 847 685 l 2
 847 866 807 977 639 977 c 0
 461 977 378 880 345 754 c 1
 338 707 335 656 335 600 c 2
 335 0 l 1
 143 0 l 1
 143 1097 l 1
EndSplineSet
EndChar

StartChar: nu
Encoding: 957 957 416
Width: 496
VWidth: 0
Flags: W
LayerCount: 2
Fore
SplineSet
245 532 m 0
 157 532 112 598 112 664 c 0
 112 730 157 796 245 796 c 0
 334 796 378 730 378 664 c 0
 378 598 334 532 245 532 c 0
EndSplineSet
EndChar

StartChar: numbersign
Encoding: 35 35 417
Width: 1186
VWidth: 0
Flags: W
LayerCount: 2
Fore
SplineSet
314 536 m 1
 375 930 l 1
 198 930 l 1
 207 1055 l 1
 400 1055 l 1
 483 1462 l 1
 636 1462 l 1
 557 1055 l 1
 791 1055 l 1
 862 1462 l 1
 990 1462 l 1
 924 1055 l 1
 1062 1055 l 1
 1048 931 l 1
 901 931 l 1
 834 536 l 1
 981 536 l 1
 971 410 l 1
 816 410 l 1
 730 -23 l 1
 579 -23 l 1
 663 410 l 1
 428 410 l 1
 348 -23 l 1
 219 -23 l 1
 292 410 l 1
 121 410 l 1
 131 536 l 1
 314 536 l 1
452 536 m 1
 688 536 l 1
 767 931 l 1
 532 931 l 1
 452 536 l 1
EndSplineSet
EndChar

StartChar: o
Encoding: 111 111 418
Width: 1208
VWidth: 0
Flags: W
PickledData: "(dp1
S'com.typemytype.robofont.guides'
p2
(tsS'com.typemytype.robofont.layerData'
p3
(dp4
s."
LayerCount: 2
Fore
SplineSet
604 -23 m 0
 917 -23 1116 219 1116 548 c 0
 1116 883 928 1120 604 1120 c 0
 280 1120 92 883 92 548 c 0
 92 219 291 -23 604 -23 c 0
604 974 m 0
 830 974 924 790 924 546 c 0
 924 306 831 123 604 123 c 0
 377 123 284 306 284 546 c 0
 284 790 378 974 604 974 c 0
604 1097 m 0
EndSplineSet
EndChar

StartChar: oacute
Encoding: 243 243 419
Width: 1270
VWidth: 0
Flags: W
LayerCount: 2
Fore
SplineSet
1014 1671 m 1
 689 1283 l 1
 575 1283 l 1
 761 1671 l 1
 1014 1671 l 1
632 -23 m 0
 945 -23 1144 219 1144 548 c 0
 1144 883 956 1120 632 1120 c 0
 308 1120 120 883 120 548 c 0
 120 219 319 -23 632 -23 c 0
632 974 m 0
 858 974 952 790 952 546 c 0
 952 306 859 123 632 123 c 0
 405 123 312 306 312 546 c 0
 312 790 406 974 632 974 c 0
EndSplineSet
EndChar

StartChar: obreve
Encoding: 335 335 420
Width: 1268
VWidth: 0
Flags: W
LayerCount: 2
Fore
SplineSet
630 1283 m 0
 507 1283 381 1369 381 1541 c 1
 497 1541 l 1
 497 1445 557 1400 630 1400 c 0
 703 1400 766 1445 766 1541 c 1
 883 1541 l 1
 883 1369 754 1283 630 1283 c 0
632 -23 m 0
 945 -23 1144 219 1144 548 c 0
 1144 883 956 1120 632 1120 c 0
 308 1120 120 883 120 548 c 0
 120 219 319 -23 632 -23 c 0
632 974 m 0
 858 974 952 790 952 546 c 0
 952 306 859 123 632 123 c 0
 405 123 312 306 312 546 c 0
 312 790 406 974 632 974 c 0
EndSplineSet
EndChar

StartChar: ocircumflex
Encoding: 244 244 421
Width: 1269
VWidth: 0
Flags: W
LayerCount: 2
Fore
SplineSet
631 1555 m 1
 471 1283 l 1
 339 1283 l 1
 527 1671 l 1
 739 1671 l 1
 927 1283 l 1
 793 1283 l 1
 631 1555 l 1
633 -23 m 0
 946 -23 1145 219 1145 548 c 0
 1145 883 957 1120 633 1120 c 0
 309 1120 121 883 121 548 c 0
 121 219 320 -23 633 -23 c 0
633 974 m 0
 859 974 953 790 953 546 c 0
 953 306 860 123 633 123 c 0
 406 123 313 306 313 546 c 0
 313 790 407 974 633 974 c 0
EndSplineSet
EndChar

StartChar: odieresis
Encoding: 246 246 422
Width: 1270
VWidth: 0
Flags: W
LayerCount: 2
Fore
SplineSet
515 1495 m 1
 515 1283 l 1
 361 1283 l 1
 361 1495 l 1
 515 1495 l 1
905 1495 m 1
 905 1283 l 1
 751 1283 l 1
 751 1495 l 1
 905 1495 l 1
633 -23 m 0
 946 -23 1145 219 1145 548 c 0
 1145 883 957 1120 633 1120 c 0
 309 1120 121 883 121 548 c 0
 121 219 320 -23 633 -23 c 0
633 974 m 0
 859 974 953 790 953 546 c 0
 953 306 860 123 633 123 c 0
 406 123 313 306 313 546 c 0
 313 790 407 974 633 974 c 0
EndSplineSet
EndChar

StartChar: oe
Encoding: 339 339 423
Width: 2002
VWidth: 0
Flags: W
LayerCount: 2
Fore
SplineSet
625 -25 m 0
 293 -25 120 232 120 547 c 0
 120 861 296 1124 628 1124 c 0
 829 1124 966 1031 1043 889 c 1
 1125 1031 1279 1119 1452 1124 c 1
 1725 1124 1872 918 1872 594 c 0
 1872 578 1870 538 1870 519 c 1
 1131 519 l 1
 1131 272 1275 119 1468 119 c 0
 1624 119 1726 176 1804 229 c 1
 1856 107 l 1
 1766 30 1639 -25 1463 -25 c 0
 1269 -25 1121 61 1038 211 c 1
 958 70 820 -25 625 -25 c 0
628 113 m 0
 865 113 959 323 959 547 c 0
 959 780 872 986 625 986 c 0
 389 986 293 768 293 544 c 0
 293 323 388 113 628 113 c 0
1137 634 m 1
 1710 634 l 1
 1710 647 l 1
 1706 872 1602 988 1442 988 c 0
 1276 988 1156 850 1137 634 c 1
1001 1097 m 0
EndSplineSet
EndChar

StartChar: ogonek
Encoding: 731 731 424
Width: 590
VWidth: 0
Flags: W
LayerCount: 2
Fore
SplineSet
311 -419 m 0
 203 -419 118 -357 118 -243 c 0
 118 -134 213 -51 309 5 c 1
 423 5 l 1
 319 -72 243 -146 243 -214 c 0
 243 -267 290 -303 331 -303 c 0
 385 -303 417 -291 468 -270 c 1
 468 -387 l 1
 430 -403 365 -419 311 -419 c 0
468 10 m 0
EndSplineSet
EndChar

StartChar: ograve
Encoding: 242 242 425
Width: 1270
VWidth: 0
Flags: W
LayerCount: 2
Fore
SplineSet
506 1670 m 1
 691 1283 l 1
 579 1283 l 1
 256 1670 l 1
 506 1670 l 1
635 -23 m 0
 948 -23 1147 219 1147 548 c 0
 1147 883 959 1120 635 1120 c 0
 311 1120 123 883 123 548 c 0
 123 219 322 -23 635 -23 c 0
635 974 m 0
 861 974 955 790 955 546 c 0
 955 306 862 123 635 123 c 0
 408 123 315 306 315 546 c 0
 315 790 409 974 635 974 c 0
EndSplineSet
EndChar

StartChar: ohorn
Encoding: 417 417 426
Width: 1587
VWidth: 0
Flags: W
LayerCount: 2
Fore
SplineSet
1318 775 m 0
 1289 775 1257 778 1226 781 c 1
 1226 875 l 1
 1241 875 1257 873 1274 873 c 0
 1332 873 1350 918 1350 973 c 0
 1350 1022 1335 1079 1320 1120 c 1
 1438 1120 l 1
 1459 1071 1468 1019 1468 970 c 0
 1468 864 1419 775 1318 775 c 0
632 -23 m 0
 945 -23 1144 219 1144 548 c 0
 1144 883 956 1120 632 1120 c 0
 308 1120 120 883 120 548 c 0
 120 219 319 -23 632 -23 c 0
632 974 m 0
 858 974 952 790 952 546 c 0
 952 306 859 123 632 123 c 0
 405 123 312 306 312 546 c 0
 312 790 406 974 632 974 c 0
EndSplineSet
EndChar

StartChar: ohungarumlaut
Encoding: 337 337 427
Width: 1274
VWidth: 0
Flags: W
LayerCount: 2
Fore
SplineSet
816 1618 m 1
 564 1283 l 1
 464 1283 l 1
 662 1618 l 1
 816 1618 l 1
1050 1618 m 1
 800 1283 l 1
 698 1283 l 1
 900 1618 l 1
 1050 1618 l 1
632 -23 m 0
 945 -23 1144 219 1144 548 c 0
 1144 883 956 1120 632 1120 c 0
 308 1120 120 883 120 548 c 0
 120 219 319 -23 632 -23 c 0
632 974 m 0
 858 974 952 790 952 546 c 0
 952 306 859 123 632 123 c 0
 405 123 312 306 312 546 c 0
 312 790 406 974 632 974 c 0
EndSplineSet
EndChar

StartChar: omacron
Encoding: 333 333 428
Width: 1281
VWidth: 0
Flags: W
LayerCount: 2
Fore
SplineSet
1039 1422 m 1
 1039 1283 l 1
 239 1283 l 1
 239 1422 l 1
 1039 1422 l 1
639 -23 m 0
 952 -23 1151 219 1151 548 c 0
 1151 883 963 1120 639 1120 c 0
 315 1120 127 883 127 548 c 0
 127 219 326 -23 639 -23 c 0
639 974 m 0
 865 974 959 790 959 546 c 0
 959 306 866 123 639 123 c 0
 412 123 319 306 319 546 c 0
 319 790 413 974 639 974 c 0
EndSplineSet
EndChar

StartChar: omega
Encoding: 969 969 429
Width: 496
VWidth: 0
Flags: W
LayerCount: 2
Fore
SplineSet
245 532 m 0
 157 532 112 598 112 664 c 0
 112 730 157 796 245 796 c 0
 334 796 378 730 378 664 c 0
 378 598 334 532 245 532 c 0
248 1097 m 0
EndSplineSet
EndChar

StartChar: omegatonos
Encoding: 974 974 430
Width: 496
VWidth: 0
Flags: W
LayerCount: 2
Fore
SplineSet
245 532 m 0
 157 532 112 598 112 664 c 0
 112 730 157 796 245 796 c 0
 334 796 378 730 378 664 c 0
 378 598 334 532 245 532 c 0
EndSplineSet
EndChar

StartChar: omicron
Encoding: 959 959 431
Width: 1267
VWidth: 0
Flags: W
LayerCount: 2
Fore
SplineSet
632 -23 m 0
 945 -23 1144 219 1144 548 c 0
 1144 883 956 1120 632 1120 c 0
 308 1120 120 883 120 548 c 0
 120 219 319 -23 632 -23 c 0
632 974 m 0
 858 974 952 790 952 546 c 0
 952 306 859 123 632 123 c 0
 405 123 312 306 312 546 c 0
 312 790 406 974 632 974 c 0
634 1097 m 0
EndSplineSet
EndChar

StartChar: omicrontonos
Encoding: 972 972 432
Width: 496
VWidth: 0
Flags: W
LayerCount: 2
Fore
SplineSet
245 532 m 0
 157 532 112 598 112 664 c 0
 112 730 157 796 245 796 c 0
 334 796 378 730 378 664 c 0
 378 598 334 532 245 532 c 0
EndSplineSet
EndChar

StartChar: one
Encoding: 49 49 433
Width: 1072
VWidth: 0
Flags: W
PickledData: "(dp1
S'com.typemytype.robofont.layerData'
p2
(dp3
s."
LayerCount: 2
Fore
SplineSet
956 0 m 1
 158 0 l 1
 158 154 l 1
 493 154 l 1
 493 1311 l 1
 414 1259 294 1216 190 1209 c 1
 190 1365 l 1
 278 1372 432 1440 511 1496 c 1
 670 1496 l 1
 670 154 l 1
 956 154 l 1
 956 0 l 1
EndSplineSet
EndChar

StartChar: onehalf
Encoding: 189 189 434
Width: 1642
VWidth: 0
Flags: W
LayerCount: 2
Fore
SplineSet
146 746 m 1
 264 746 l 1
 264 1409 l 1
 226 1384 177 1357 133 1334 c 1
 133 1436 l 1
 194 1467 242 1499 282 1539 c 1
 379 1538 l 1
 379 746 l 1
 503 746 l 1
 503 650 l 1
 146 650 l 1
 146 746 l 1
1498 -30 m 1
 945 -30 l 1
 945 63 l 1
 1191 310 1381 492 1381 617 c 0
 1381 707 1315 760 1244 760 c 0
 1173 760 1090 722 1031 634 c 1
 954 699 l 1
 1001 808 1128 868 1248 868 c 0
 1383 868 1510 793 1510 629 c 0
 1510 435 1322 268 1104 69 c 1
 1498 69 l 1
 1498 -30 l 1
256 0 m 1
 1176 1547 l 1
 1311 1547 l 1
 390 0 l 1
 256 0 l 1
EndSplineSet
EndChar

StartChar: onequarter
Encoding: 188 188 435
Width: 1656
VWidth: 0
Flags: W
LayerCount: 2
Fore
SplineSet
146 746 m 1
 264 746 l 1
 264 1409 l 1
 226 1384 177 1357 133 1334 c 1
 133 1436 l 1
 194 1467 242 1499 282 1539 c 1
 379 1538 l 1
 379 746 l 1
 503 746 l 1
 503 650 l 1
 146 650 l 1
 146 746 l 1
1313 899 m 1
 1433 899 l 1
 1433 358 l 1
 1527 358 l 1
 1537 240 l 1
 1431 240 l 1
 1431 40 l 1
 1324 40 l 1
 1324 240 l 1
 934 240 l 1
 934 339 l 1
 1313 899 l 1
256 0 m 1
 1176 1547 l 1
 1311 1547 l 1
 390 0 l 1
 256 0 l 1
1324 716 m 1
 1077 358 l 1
 1323 358 l 1
 1324 716 l 1
EndSplineSet
EndChar

StartChar: ordfeminine
Encoding: 170 170 436
Width: 826
VWidth: 0
Flags: W
LayerCount: 2
Fore
SplineSet
360 826 m 0
 233 826 138 913 138 1050 c 0
 138 1242 316 1274 553 1289 c 1
 553 1307 l 1
 550 1424 521 1473 423 1473 c 0
 350 1473 280 1467 208 1385 c 1
 147 1463 l 1
 222 1561 318 1590 429 1590 c 0
 559 1590 670 1517 670 1330 c 1
 668 982 l 2
 668 969 669 938 674 847 c 1
 556 847 l 1
 553 926 l 1
 513 866 448 826 360 826 c 0
144 635 m 1
 144 741 l 1
 689 741 l 1
 689 635 l 1
 144 635 l 1
379 937 m 0
 498 937 548 1047 553 1168 c 1
 553 1195 l 1
 429 1182 257 1187 257 1048 c 0
 257 968 307 937 379 937 c 0
EndSplineSet
EndChar

StartChar: ordmasculine
Encoding: 186 186 437
Width: 867
VWidth: 0
Flags: W
LayerCount: 2
Fore
SplineSet
435 941 m 0
 560 941 627 1062 627 1203 c 0
 627 1351 558 1473 431 1473 c 0
 308 1473 238 1351 238 1207 c 0
 238 1058 304 941 435 941 c 0
435 826 m 0
 223 826 113 994 113 1210 c 0
 113 1422 230 1590 433 1590 c 0
 637 1590 751 1419 751 1205 c 0
 751 994 637 826 435 826 c 0
EndSplineSet
EndChar

StartChar: oslash
Encoding: 248 248 438
Width: 1273
VWidth: 0
Flags: W
LayerCount: 2
Fore
SplineSet
329 -275 m 1
 258 -237 l 1
 376 41 l 1
 210 137 120 328 120 547 c 0
 120 861 308 1124 640 1124 c 0
 707 1124 768 1113 822 1094 c 1
 937 1367 l 1
 1014 1336 l 1
 897 1060 l 1
 1062 964 1145 770 1145 549 c 0
 1145 245 966 -25 637 -25 c 0
 568 -25 505 -14 449 7 c 1
 329 -275 l 1
435 182 m 1
 766 963 l 1
 729 978 686 986 637 986 c 0
 401 986 293 768 293 544 c 0
 293 401 338 262 435 182 c 1
640 113 m 0
 877 113 971 323 971 547 c 0
 971 700 933 842 837 921 c 1
 505 139 l 1
 544 122 589 113 640 113 c 0
637 1097 m 0
EndSplineSet
EndChar

StartChar: oslashacute
Encoding: 511 511 439
Width: 1273
VWidth: 0
Flags: W
LayerCount: 2
Fore
SplineSet
929 1877 m 1
 603 1489 l 1
 489 1489 l 1
 675 1877 l 1
 929 1877 l 1
329 -275 m 1
 258 -237 l 1
 376 41 l 1
 210 137 120 328 120 547 c 0
 120 861 308 1124 640 1124 c 0
 707 1124 768 1113 822 1094 c 1
 937 1367 l 1
 1014 1336 l 1
 897 1060 l 1
 1062 964 1145 770 1145 549 c 0
 1145 245 966 -25 637 -25 c 0
 568 -25 505 -14 449 7 c 1
 329 -275 l 1
435 182 m 1
 766 963 l 1
 729 978 686 986 637 986 c 0
 401 986 293 768 293 544 c 0
 293 401 338 262 435 182 c 1
640 113 m 0
 877 113 971 323 971 547 c 0
 971 700 933 842 837 921 c 1
 505 139 l 1
 544 122 589 113 640 113 c 0
EndSplineSet
EndChar

StartChar: otilde
Encoding: 245 245 440
Width: 1272
VWidth: 0
Flags: W
LayerCount: 2
Fore
SplineSet
430 1283 m 1
 322 1283 l 1
 322 1433 387 1502 494 1502 c 0
 618 1502 790 1408 790 1408 c 1
 830 1411 833 1460 836 1502 c 1
 946 1502 l 1
 946 1365 902 1283 796 1283 c 0
 706 1283 484 1380 484 1380 c 1
 451 1379 433 1338 430 1283 c 1
634 -23 m 0
 947 -23 1146 219 1146 548 c 0
 1146 883 958 1120 634 1120 c 0
 310 1120 122 883 122 548 c 0
 122 219 321 -23 634 -23 c 0
634 974 m 0
 860 974 954 790 954 546 c 0
 954 306 861 123 634 123 c 0
 407 123 314 306 314 546 c 0
 314 790 408 974 634 974 c 0
EndSplineSet
EndChar

StartChar: p
Encoding: 112 112 441
Width: 1282
VWidth: 0
Flags: W
PickledData: "(dp1
S'com.typemytype.robofont.layerData'
p2
(dp3
s."
LayerCount: 2
Fore
SplineSet
164 1097 m 1
 337 1097 l 1
 356 918 l 1
 414 1055 555 1120 706 1120 c 0
 1013 1120 1188 879 1188 543 c 0
 1188 216 993 -23 707 -23 c 0
 562 -23 413 34 351 150 c 1
 355 78 356 8 356 -60 c 2
 356 -465 l 1
 164 -476 l 1
 164 1097 l 1
680 118 m 0
 890 118 996 286 996 549 c 0
 996 806 894 978 681 978 c 0
 455 978 356 820 356 567 c 0
 356 282 444 118 680 118 c 0
EndSplineSet
EndChar

StartChar: paragraph
Encoding: 182 182 442
Width: 1147
VWidth: 0
Flags: W
LayerCount: 2
Fore
SplineSet
612 -158 m 1
 487 -158 l 1
 487 847 l 1
 265 851 107 1033 107 1212 c 0
 107 1388 232 1561 555 1561 c 2
 1021 1561 l 1
 1021 1430 l 1
 946 1430 l 1
 946 -158 l 1
 831 -158 l 1
 831 1430 l 1
 612 1430 l 1
 612 -158 l 1
EndSplineSet
EndChar

StartChar: parenleft
Encoding: 40 40 443
Width: 654
VWidth: 0
Flags: W
LayerCount: 2
Fore
SplineSet
558 -271 m 1
 405 -271 l 1
 236 -38 130 271 130 598 c 0
 130 934 231 1235 403 1486 c 1
 558 1486 l 1
 390 1224 300 919 300 602 c 0
 300 301 395 -21 558 -271 c 1
EndSplineSet
EndChar

StartChar: parenright
Encoding: 41 41 444
Width: 658
VWidth: 0
Flags: W
LayerCount: 2
Fore
SplineSet
250 -271 m 1
 98 -271 l 1
 260 -22 356 300 356 602 c 0
 356 919 265 1224 97 1486 c 1
 252 1486 l 1
 423 1234 526 932 526 598 c 0
 526 269 418 -38 250 -271 c 1
EndSplineSet
EndChar

StartChar: partialdiff
Encoding: 8706 8706 445
Width: 1215
VWidth: 0
Flags: W
LayerCount: 2
Fore
SplineSet
523 -28 m 0
 247 -28 126 182 126 452 c 0
 126 806 330 1077 619 1077 c 0
 756 1077 862 1014 930 901 c 1
 930 920 931 952 931 980 c 0
 931 1305 815 1507 598 1507 c 0
 496 1507 394 1461 314 1405 c 1
 301 1553 l 1
 385 1610 499 1652 622 1652 c 0
 920 1652 1082 1421 1082 917 c 0
 1082 453 918 -28 523 -28 c 0
524 119 m 0
 741 119 885 383 917 705 c 1
 882 826 788 935 644 935 c 0
 436 935 274 711 274 450 c 0
 274 250 371 119 524 119 c 0
EndSplineSet
EndChar

StartChar: percent
Encoding: 37 37 446
Width: 1821
VWidth: 0
Flags: W
PickledData: "(dp1
S'com.typemytype.robofont.layerData'
p2
(dp3
s."
LayerCount: 2
Fore
SplineSet
387 844 m 0
 514 844 578 964 578 1104 c 0
 578 1250 511 1378 387 1378 c 0
 260 1378 197 1245 197 1104 c 0
 197 957 262 844 387 844 c 0
387 728 m 0
 191 728 70 888 70 1104 c 0
 70 1322 192 1489 387 1489 c 0
 583 1489 707 1325 707 1104 c 0
 707 888 582 728 387 728 c 0
368 -4 m 1
 1163 1462 l 1
 1325 1462 l 1
 503 -4 l 1
 368 -4 l 1
1398 98 m 0
 1548 98 1624 228 1624 369 c 0
 1624 515 1546 640 1398 640 c 0
 1248 640 1172 510 1172 369 c 0
 1172 223 1250 98 1398 98 c 0
1398 -15 m 0
 1167 -15 1046 153 1046 369 c 0
 1046 587 1170 754 1398 754 c 0
 1630 754 1751 590 1751 369 c 0
 1751 153 1627 -15 1398 -15 c 0
EndSplineSet
EndChar

StartChar: period
Encoding: 46 46 447
Width: 526
VWidth: 0
Flags: W
PickledData: "(dp1
S'com.typemytype.robofont.layerData'
p2
(dp3
s."
LayerCount: 2
Fore
SplineSet
263 -12 m 0
 175 -12 130 54 130 120 c 0
 130 186 174 252 263 252 c 0
 352 252 396 186 396 120 c 0
 396 54 352 -12 263 -12 c 0
EndSplineSet
EndChar

StartChar: periodcentered
Encoding: 183 183 448
Width: 409
VWidth: 0
Flags: W
LayerCount: 2
Fore
SplineSet
118 561 m 1
 118 759 l 1
 286 759 l 1
 286 561 l 1
 118 561 l 1
EndSplineSet
EndChar

StartChar: perthousand
Encoding: 8240 8240 449
Width: 2340
VWidth: 0
Flags: W
LayerCount: 2
Fore
SplineSet
419 919 m 0
 530 919 585 1039 585 1178 c 0
 585 1325 530 1438 415 1438 c 0
 302 1438 248 1319 248 1180 c 0
 248 1033 303 919 419 919 c 0
415 796 m 0
 225 796 119 950 119 1180 c 0
 119 1399 225 1559 417 1559 c 0
 611 1559 713 1410 713 1176 c 0
 713 960 604 796 415 796 c 0
270 -22 m 1
 1126 1547 l 1
 1283 1547 l 1
 406 -22 l 1
 270 -22 l 1
1118 93 m 0
 1251 93 1316 217 1316 354 c 0
 1316 500 1253 610 1116 610 c 0
 983 610 919 493 919 354 c 0
 919 207 985 93 1118 93 c 0
1115 -30 m 0
 895 -30 788 124 788 354 c 0
 788 572 894 735 1118 735 c 0
 1342 735 1445 584 1445 352 c 0
 1445 136 1336 -30 1115 -30 c 0
1892 93 m 0
 2025 93 2092 214 2092 354 c 0
 2092 497 2022 610 1890 610 c 0
 1754 610 1688 493 1688 354 c 0
 1688 207 1755 93 1892 93 c 0
1887 -30 m 0
 1669 -30 1561 124 1561 354 c 0
 1561 572 1669 735 1892 735 c 0
 2112 735 2218 588 2218 352 c 0
 2218 136 2108 -30 1887 -30 c 0
EndSplineSet
EndChar

StartChar: phi
Encoding: 966 966 450
Width: 496
VWidth: 0
Flags: W
LayerCount: 2
Fore
SplineSet
245 532 m 0
 157 532 112 598 112 664 c 0
 112 730 157 796 245 796 c 0
 334 796 378 730 378 664 c 0
 378 598 334 532 245 532 c 0
EndSplineSet
EndChar

StartChar: pi
Encoding: 960 960 451
Width: 1378
VWidth: 0
Flags: W
LayerCount: 2
Fore
SplineSet
1114 -8 m 0
 974 -8 930 79 930 301 c 2
 930 976 l 1
 524 976 l 1
 508 566 476 144 400 0 c 1
 252 0 l 1
 340 189 366 663 374 976 c 1
 267 973 195 954 130 911 c 1
 114 1053 l 1
 173 1109 267 1120 424 1120 c 2
 1250 1120 l 1
 1250 976 l 1
 1068 976 l 1
 1068 312 l 2
 1068 248 1070 158 1156 158 c 0
 1175 158 1203 164 1232 172 c 1
 1232 6 l 1
 1187 -2 1149 -8 1114 -8 c 0
EndSplineSet
EndChar

StartChar: plus
Encoding: 43 43 452
Width: 1157
VWidth: 0
Flags: W
LayerCount: 2
Fore
SplineSet
511 718 m 1
 511 1142 l 1
 648 1142 l 1
 648 718 l 1
 1038 718 l 1
 1038 582 l 1
 647 582 l 1
 647 153 l 1
 510 153 l 1
 510 582 l 1
 113 582 l 1
 113 718 l 1
 511 718 l 1
EndSplineSet
EndChar

StartChar: plusminus
Encoding: 177 177 453
Width: 1238
VWidth: 0
Flags: W
LayerCount: 2
Fore
SplineSet
548 790 m 1
 548 1206 l 1
 684 1206 l 1
 684 790 l 1
 1102 790 l 1
 1102 647 l 1
 686 647 l 1
 686 233 l 1
 549 233 l 1
 549 647 l 1
 134 647 l 1
 134 790 l 1
 548 790 l 1
134 0 m 1
 134 143 l 1
 1104 143 l 1
 1104 0 l 1
 134 0 l 1
EndSplineSet
EndChar

StartChar: product
Encoding: 8719 8719 454
Width: 1468
VWidth: 0
Flags: W
LayerCount: 2
Fore
SplineSet
1142 0 m 1
 1142 1342 l 1
 327 1342 l 1
 327 0 l 1
 150 0 l 1
 150 1496 l 1
 1319 1496 l 1
 1319 0 l 1
 1142 0 l 1
EndSplineSet
EndChar

StartChar: psi
Encoding: 968 968 455
Width: 496
VWidth: 0
Flags: W
LayerCount: 2
Fore
SplineSet
245 532 m 0
 157 532 112 598 112 664 c 0
 112 730 157 796 245 796 c 0
 334 796 378 730 378 664 c 0
 378 598 334 532 245 532 c 0
EndSplineSet
EndChar

StartChar: q
Encoding: 113 113 456
Width: 1272
VWidth: 0
Flags: W
PickledData: "(dp1
S'com.typemytype.robofont.layerData'
p2
(dp3
s."
LayerCount: 2
Fore
SplineSet
1118 1097 m 1
 945 1097 l 1
 926 918 l 1
 866 1048 727 1120 576 1120 c 0
 269 1120 94 879 94 543 c 0
 94 216 289 -23 575 -23 c 0
 720 -23 858 48 931 150 c 1
 927 78 926 8 926 -60 c 2
 926 -476 l 1
 1118 -465 l 1
 1118 1097 l 1
606 118 m 0
 396 118 286 286 286 549 c 0
 286 806 392 978 605 978 c 0
 831 978 926 820 926 567 c 0
 926 282 842 118 606 118 c 0
EndSplineSet
EndChar

StartChar: question
Encoding: 63 63 457
Width: 900
VWidth: 0
Flags: W
LayerCount: 2
Fore
SplineSet
424 435 m 1
 337 435 l 1
 337 668 622 989 622 1186 c 1
 620 1318 530 1373 397 1373 c 0
 277 1373 186 1322 138 1292 c 1
 93 1427 l 1
 183 1498 313 1524 424 1524 c 0
 634 1524 785 1408 785 1200 c 0
 785 927 574 770 424 435 c 1
395 -12 m 0
 307 -12 262 54 262 120 c 0
 262 186 307 252 395 252 c 0
 484 252 528 186 528 120 c 0
 528 54 484 -12 395 -12 c 0
EndSplineSet
EndChar

StartChar: questiondown
Encoding: 191 191 458
Width: 915
VWidth: 0
Flags: W
LayerCount: 2
Fore
SplineSet
479 1077 m 1
 566 1077 l 1
 566 844 281 523 281 326 c 1
 283 194 373 139 506 139 c 0
 626 139 717 190 765 220 c 1
 810 85 l 1
 720 14 590 -12 479 -12 c 0
 269 -12 118 104 118 312 c 0
 118 585 329 742 479 1077 c 1
508 1524 m 0
 596 1524 641 1458 641 1392 c 0
 641 1326 596 1260 508 1260 c 0
 419 1260 375 1326 375 1392 c 0
 375 1458 419 1524 508 1524 c 0
EndSplineSet
EndChar

StartChar: quotedbl
Encoding: 34 34 459
Width: 671
VWidth: 0
Flags: W
LayerCount: 2
Fore
SplineSet
138 1016 m 1
 117 1510 l 1
 268 1510 l 1
 239 1016 l 1
 138 1016 l 1
424 1016 m 1
 403 1510 l 1
 554 1510 l 1
 525 1016 l 1
 424 1016 l 1
EndSplineSet
EndChar

StartChar: quotedblbase
Encoding: 8222 8222 460
Width: 789
VWidth: 0
Flags: W
LayerCount: 2
Fore
SplineSet
101 -256 m 1
 191 216 l 1
 352 216 l 1
 219 -256 l 1
 101 -256 l 1
416 -256 m 1
 507 216 l 1
 669 216 l 1
 534 -256 l 1
 416 -256 l 1
EndSplineSet
EndChar

StartChar: quotedblleft
Encoding: 8220 8220 461
Width: 782
VWidth: 0
Flags: W
LayerCount: 2
Fore
SplineSet
115 1102 m 1
 249 1574 l 1
 369 1574 l 1
 275 1102 l 1
 115 1102 l 1
424 1102 m 1
 559 1574 l 1
 676 1574 l 1
 586 1102 l 1
 424 1102 l 1
EndSplineSet
EndChar

StartChar: quotedblright
Encoding: 8221 8221 462
Width: 758
VWidth: 0
Flags: W
LayerCount: 2
Fore
SplineSet
118 1102 m 1
 211 1574 l 1
 370 1574 l 1
 235 1102 l 1
 118 1102 l 1
405 1102 m 1
 496 1574 l 1
 659 1574 l 1
 522 1102 l 1
 405 1102 l 1
EndSplineSet
EndChar

StartChar: quoteleft
Encoding: 8216 8216 463
Width: 474
VWidth: 0
Flags: W
LayerCount: 2
Fore
SplineSet
115 1102 m 1
 251 1574 l 1
 368 1574 l 1
 277 1102 l 1
 115 1102 l 1
EndSplineSet
EndChar

StartChar: quoteright
Encoding: 8217 8217 464
Width: 468
VWidth: 0
Flags: W
LayerCount: 2
Fore
SplineSet
118 1102 m 1
 211 1574 l 1
 368 1574 l 1
 234 1102 l 1
 118 1102 l 1
EndSplineSet
EndChar

StartChar: quotesinglbase
Encoding: 8218 8218 465
Width: 474
VWidth: 0
Flags: W
LayerCount: 2
Fore
SplineSet
101 -256 m 1
 193 216 l 1
 354 216 l 1
 220 -256 l 1
 101 -256 l 1
EndSplineSet
EndChar

StartChar: quotesingle
Encoding: 39 39 466
Width: 400
VWidth: 0
Flags: W
LayerCount: 2
Fore
SplineSet
142 975 m 1
 121 1486 l 1
 277 1486 l 1
 257 975 l 1
 142 975 l 1
EndSplineSet
EndChar

StartChar: r
Encoding: 114 114 467
Width: 768
VWidth: 0
Flags: W
PickledData: "(dp1
S'com.typemytype.robofont.layerData'
p2
(dp3
s."
LayerCount: 2
Fore
SplineSet
164 1097 m 1
 327 1097 l 1
 343 900 l 1
 416 1020 539 1107 675 1107 c 0
 705 1107 732 1105 757 1101 c 1
 751 947 l 1
 722 952 695 955 671 955 c 0
 480 955 356 804 356 616 c 2
 356 0 l 1
 164 0 l 1
 164 1097 l 1
421 1097 m 0
421 0 m 0
EndSplineSet
EndChar

StartChar: racute
Encoding: 341 341 468
Width: 912
VWidth: 0
Flags: W
LayerCount: 2
Fore
SplineSet
821 1671 m 1
 497 1283 l 1
 383 1283 l 1
 569 1671 l 1
 821 1671 l 1
143 1097 m 1
 306 1097 l 1
 322 900 l 1
 395 1020 518 1107 654 1107 c 0
 684 1107 711 1105 736 1101 c 1
 730 947 l 1
 701 952 674 955 650 955 c 0
 459 955 335 804 335 616 c 2
 335 0 l 1
 143 0 l 1
 143 1097 l 1
EndSplineSet
EndChar

StartChar: radical
Encoding: 8730 8730 469
Width: 1275
VWidth: 0
Flags: W
LayerCount: 2
Fore
SplineSet
372 889 m 1
 613 230 l 1
 672 44 l 1
 807 602 943 1160 1079 1718 c 1
 1192 1718 l 1
 752 -166 l 1
 613 -166 l 1
 280 743 l 1
 128 712 l 1
 112 833 l 1
 372 889 l 1
EndSplineSet
EndChar

StartChar: rcaron
Encoding: 345 345 470
Width: 864
VWidth: 0
Flags: W
LayerCount: 2
Fore
SplineSet
738 1671 m 1
 551 1283 l 1
 338 1283 l 1
 151 1671 l 1
 282 1671 l 1
 443 1359 l 1
 604 1671 l 1
 738 1671 l 1
148 1097 m 1
 311 1097 l 1
 327 900 l 1
 400 1020 523 1107 659 1107 c 0
 689 1107 716 1105 741 1101 c 1
 735 947 l 1
 706 952 679 955 655 955 c 0
 464 955 340 804 340 616 c 2
 340 0 l 1
 148 0 l 1
 148 1097 l 1
EndSplineSet
EndChar

StartChar: rcommaaccent
Encoding: 343 343 471
Width: 855
VWidth: 0
Flags: W
LayerCount: 2
Fore
SplineSet
309 -661 m 1
 405 -163 l 1
 569 -163 l 1
 425 -661 l 1
 309 -661 l 1
143 1097 m 1
 306 1097 l 1
 322 900 l 1
 395 1020 518 1107 654 1107 c 0
 684 1107 711 1105 736 1101 c 1
 730 947 l 1
 701 952 674 955 650 955 c 0
 459 955 335 804 335 616 c 2
 335 0 l 1
 143 0 l 1
 143 1097 l 1
EndSplineSet
EndChar

StartChar: registered
Encoding: 174 174 472
Width: 1837
VWidth: 0
Flags: W
LayerCount: 2
Fore
SplineSet
607 301 m 1
 607 1277 l 1
 921 1277 l 2
 1184 1277 1308 1184 1308 1007 c 0
 1308 877 1245 759 1048 735 c 1
 1140 662 1189 531 1328 301 c 1
 1179 301 l 1
 1113 419 1012 647 922 716 c 1
 739 716 l 1
 739 301 l 1
 607 301 l 1
739 1149 m 1
 739 843 l 1
 921 843 l 2
 1069 843 1149 871 1149 999 c 0
 1149 1131 1079 1149 911 1149 c 2
 739 1149 l 1
910 67 m 0
 1361 67 1596 387 1596 778 c 0
 1596 1168 1358 1493 905 1493 c 0
 476 1493 238 1169 238 783 c 0
 238 389 477 67 910 67 c 0
910 -26 m 0
 518 -26 125 242 125 781 c 0
 125 1318 513 1586 905 1586 c 0
 1320 1586 1709 1316 1709 781 c 0
 1709 242 1325 -26 910 -26 c 0
EndSplineSet
EndChar

StartChar: rho
Encoding: 961 961 473
Width: 1291
VWidth: 0
Flags: W
LayerCount: 2
Fore
SplineSet
143 1097 m 1
 316 1097 l 1
 335 918 l 1
 395 1048 534 1120 685 1120 c 0
 992 1120 1167 879 1167 543 c 0
 1167 216 972 -23 686 -23 c 0
 541 -23 403 48 330 150 c 1
 334 78 335 8 335 -60 c 2
 335 -465 l 1
 143 -476 l 1
 143 1097 l 1
655 118 m 0
 865 118 975 286 975 549 c 0
 975 806 869 978 656 978 c 0
 430 978 335 820 335 567 c 0
 335 282 419 118 655 118 c 0
EndSplineSet
EndChar

